<svg width="1437" height="1080" viewBox="0 0 1437 1080" fill="none" xmlns="http://www.w3.org/2000/svg">
<g opacity="0.08">
<path d="M593.181 870.255L449.615 787.41L593.181 704.474L736.84 787.41L593.181 870.255Z" fill="white"/>
<path d="M593.181 1024.92L449.615 941.987V787.406L593.181 870.25V1024.92Z" fill="#9AC0FF"/>
<path d="M736.834 941.987L593.176 1024.92V870.25L736.834 787.406V941.987Z" fill="#CEE0FF"/>
<path d="M754.706 963.557L611.141 880.621L754.706 797.776L898.365 880.621L754.706 963.557Z" fill="white"/>
<path d="M754.706 1118.14L611.141 1035.3V880.624L754.706 963.561V1118.14Z" fill="#9AC0FF"/>
<path d="M898.36 1035.3L754.701 1118.14V963.561L898.36 880.624V1035.3Z" fill="#CEE0FF"/>
<path d="M916.328 1056.86L772.67 973.922L916.328 890.985L1059.89 973.922L916.328 1056.86Z" fill="white"/>
<path d="M916.328 1211.44L772.67 1128.5V973.918L916.328 1056.85V1211.44Z" fill="#9AC0FF"/>
<path d="M1059.89 1128.5L916.324 1211.44V1056.85L1059.89 973.918V1128.5Z" fill="#CEE0FF"/>
<path d="M1077.85 1150.07L934.285 1067.23L1077.85 984.292L1221.42 1067.23L1077.85 1150.07Z" fill="white"/>
<path d="M1077.85 1304.74L934.285 1221.81V1067.22L1077.85 1150.07V1304.74Z" fill="#9AC0FF"/>
<path d="M1221.41 1221.81L1077.85 1304.74V1150.07L1221.41 1067.22V1221.81Z" fill="#CEE0FF"/>
<path d="M431.197 963.843L287.538 880.907L431.197 798.062L574.762 880.907L431.197 963.843Z" fill="white"/>
<path d="M431.197 1118.52L287.538 1035.58V880.907L431.197 963.844V1118.52Z" fill="#9AC0FF"/>
<path d="M574.758 1035.58L431.192 1118.52V963.844L574.758 880.907V1035.58Z" fill="#CEE0FF"/>
<path d="M592.712 1057.14L449.054 974.202L592.712 891.265L736.278 974.202L592.712 1057.14Z" fill="white"/>
<path d="M592.712 1211.72L449.054 1128.78V974.203L592.712 1057.14V1211.72Z" fill="#9AC0FF"/>
<path d="M736.272 1128.78L592.706 1211.72V1057.14L736.272 974.203V1128.78Z" fill="#CEE0FF"/>
<path d="M754.244 1150.35L610.679 1067.5L754.244 984.564L897.81 1067.5L754.244 1150.35Z" fill="white"/>
<path d="M754.244 1305.01L610.679 1222.08V1067.5L754.244 1150.34V1305.01Z" fill="#9AC0FF"/>
<path d="M897.806 1222.08L754.24 1305.01V1150.34L897.806 1067.5V1222.08Z" fill="#CEE0FF"/>
<path d="M269.12 1057.42L125.555 974.483L269.12 891.546L412.686 974.483L269.12 1057.42Z" fill="white"/>
<path d="M269.12 1212L125.555 1129.15V974.479L269.12 1057.42V1212Z" fill="#9AC0FF"/>
<path d="M412.681 1129.15L269.115 1212V1057.42L412.681 974.479V1129.15Z" fill="#CEE0FF"/>
<path d="M430.631 1150.73L287.065 1067.79L430.631 984.853L574.29 1067.79L430.631 1150.73Z" fill="white"/>
<path d="M430.631 1305.3L287.065 1222.37V1067.79L430.631 1150.72V1305.3Z" fill="#9AC0FF"/>
<path d="M574.284 1222.37L430.626 1305.3V1150.72L574.284 1067.79V1222.37Z" fill="#CEE0FF"/>
<path d="M592.16 1243.94L448.594 1161L592.16 1078.16L735.818 1161L592.16 1243.94Z" fill="white"/>
<path d="M107.032 1151L-36.5342 1068.07L107.032 985.13L250.69 1068.07L107.032 1151Z" fill="#7DAEFD"/>
<path d="M107.032 1305.58L-36.5342 1222.64V1068.06L107.032 1151V1305.58Z" fill="#9AC0FF"/>
<path d="M250.685 1222.64L107.026 1305.58V1151L250.685 1068.06V1222.64Z" fill="#5693FF"/>
<path d="M268.65 1244.21L124.991 1161.37L268.65 1078.43L412.215 1161.37L268.65 1244.21Z" fill="#7DAEFD"/>
<path d="M593.181 694.298L449.615 611.361L593.181 528.517L736.84 611.361L593.181 694.298Z" fill="white"/>
<path d="M593.181 848.88L449.615 766.036V611.362L593.181 694.299V848.88Z" fill="#9AC0FF"/>
<path d="M736.835 766.036L593.177 848.88V694.299L736.835 611.362V766.036Z" fill="#CEE0FF"/>
<path d="M754.706 787.589L611.141 704.653L754.706 621.716L898.365 704.653L754.706 787.589Z" fill="white"/>
<path d="M754.706 942.166L611.141 859.229V704.648L754.706 787.585V942.166Z" fill="#9AC0FF"/>
<path d="M898.362 859.229L754.703 942.166V787.585L898.362 704.648V859.229Z" fill="#CEE0FF"/>
<path d="M916.328 880.806L772.67 797.962L916.328 715.025L1059.89 797.962L916.328 880.806Z" fill="#7DAEFD"/>
<path d="M916.328 1035.48L772.67 952.539V797.958L916.328 880.802V1035.48Z" fill="#9AC0FF"/>
<path d="M1059.89 952.539L916.324 1035.48V880.802L1059.89 797.958V952.539Z" fill="#CEE0FF"/>
<path d="M1077.85 974.114L934.285 891.177L1077.85 808.24L1221.42 891.177L1077.85 974.114Z" fill="white"/>
<path d="M1077.85 1128.69L934.285 1045.85V891.173L1077.85 974.11V1128.69Z" fill="#9AC0FF"/>
<path d="M1221.41 1045.85L1077.85 1128.69V974.11L1221.41 891.173V1045.85Z" fill="#CEE0FF"/>
<path d="M431.197 787.869L287.538 704.932L431.197 621.995L574.762 704.932L431.197 787.869Z" fill="white"/>
<path d="M431.197 942.445L287.538 859.509V704.928L431.197 787.865V942.445Z" fill="#9AC0FF"/>
<path d="M574.758 859.509L431.192 942.445V787.865L574.758 704.928V859.509Z" fill="#CEE0FF"/>
<path d="M592.713 881.088L449.055 798.243L592.713 715.307L736.279 798.243L592.713 881.088Z" fill="white"/>
<path d="M592.713 1035.76L449.055 952.819V798.238L592.713 881.083V1035.76Z" fill="#9AC0FF"/>
<path d="M736.275 952.819L592.709 1035.76V881.083L736.275 798.238V952.819Z" fill="#CEE0FF"/>
<path d="M754.244 974.392L610.679 891.456L754.244 808.611L897.81 891.456L754.244 974.392Z" fill="white"/>
<path d="M754.244 1128.98L610.679 1046.13V891.459L754.244 974.396V1128.98Z" fill="#9AC0FF"/>
<path d="M897.806 1046.13L754.24 1128.98V974.396L897.806 891.459V1046.13Z" fill="#CEE0FF"/>
<path d="M915.765 1067.7L772.199 984.759L915.765 901.822L1059.42 984.759L915.765 1067.7Z" fill="white"/>
<path d="M915.765 1222.27L772.199 1139.34V984.755L915.765 1067.69V1222.27Z" fill="#9AC0FF"/>
<path d="M1059.42 1139.34L915.76 1222.27V1067.69L1059.42 984.755V1139.34Z" fill="#CEE0FF"/>
<path d="M269.12 881.455L125.555 798.518L269.12 715.581L412.686 798.518L269.12 881.455Z" fill="#5693FF"/>
<path d="M269.12 1036.03L125.555 953.095V798.514L269.12 881.451V1036.03Z" fill="#5693FF"/>
<path d="M412.682 953.095L269.116 1036.03V881.451L412.682 798.514V953.095Z" fill="#5693FF"/>
<path d="M430.631 974.671L287.065 891.734L430.631 808.89L574.29 891.734L430.631 974.671Z" fill="#5693FF"/>
<path d="M430.631 1129.35L287.065 1046.41V891.735L430.631 974.672V1129.35Z" fill="#5693FF"/>
<path d="M574.284 1046.41L430.626 1129.35V974.672L574.284 891.735V1046.41Z" fill="#5693FF"/>
<path d="M592.16 1067.97L448.594 985.031L592.16 902.094L735.818 985.031L592.16 1067.97Z" fill="white"/>
<path d="M592.16 1222.54L448.594 1139.61V985.026L592.16 1067.96V1222.54Z" fill="#9AC0FF"/>
<path d="M735.814 1139.61L592.155 1222.54V1067.96L735.814 985.026V1139.61Z" fill="#CEE0FF"/>
<path d="M753.777 1161.18L610.119 1078.34L753.777 995.403L897.343 1078.34L753.777 1161.18Z" fill="white"/>
<path d="M753.777 1315.85L610.119 1232.92V1078.34L753.777 1161.18V1315.85Z" fill="#9AC0FF"/>
<path d="M897.337 1232.92L753.771 1315.85V1161.18L897.337 1078.34V1232.92Z" fill="#CEE0FF"/>
<path d="M107.032 974.941L-36.5342 892.097L107.032 809.16L250.69 892.097L107.032 974.941Z" fill="#7DAEFD"/>
<path d="M107.032 1129.61L-36.5342 1046.67V892.093L107.032 974.937V1129.61Z" fill="#9AC0FF"/>
<path d="M250.685 1046.67L107.026 1129.61V974.937L250.685 892.093V1046.67Z" fill="#5693FF"/>
<path d="M268.65 1068.25L124.991 985.311L268.65 902.374L412.215 985.311L268.65 1068.25Z" fill="#7DAEFD"/>
<path d="M268.65 1222.83L124.991 1139.98V985.311L268.65 1068.25V1222.83Z" fill="#9AC0FF"/>
<path d="M412.211 1139.98L268.646 1222.83V1068.25L412.211 985.311V1139.98Z" fill="#CEE0FF"/>
<path d="M430.177 1161.46L286.519 1078.62L430.177 995.68L573.743 1078.62L430.177 1161.46Z" fill="#7DAEFD"/>
<path d="M430.177 1316.13L286.519 1233.19V1078.61L430.177 1161.46V1316.13Z" fill="#9AC0FF"/>
<path d="M573.739 1233.19L430.173 1316.13V1161.46L573.739 1078.61V1233.19Z" fill="#CEE0FF"/>
<path d="M593.181 518.331L449.615 435.394L593.181 352.458L736.84 435.394L593.181 518.331Z" fill="#7DAEFD"/>
<path d="M593.181 672.907L449.615 589.971V435.39L593.181 518.327V672.907Z" fill="#9AC0FF"/>
<path d="M736.835 589.971L593.177 672.907V518.327L736.835 435.39V589.971Z" fill="#CEE0FF"/>
<path d="M754.706 611.537L611.141 528.693L754.706 445.756L898.365 528.693L754.706 611.537Z" fill="white"/>
<path d="M754.706 766.206L611.141 683.269V528.688L754.706 611.533V766.206Z" fill="#9AC0FF"/>
<path d="M898.362 683.269L754.703 766.206V611.533L898.362 528.688V683.269Z" fill="#CEE0FF"/>
<path d="M916.328 704.848L772.67 621.911L916.328 538.975L1059.89 621.911L916.328 704.848Z" fill="white"/>
<path d="M916.328 859.425L772.67 776.581V621.907L916.328 704.844V859.425Z" fill="#9AC0FF"/>
<path d="M1059.89 776.581L916.324 859.425V704.844L1059.89 621.907V776.581Z" fill="#CEE0FF"/>
<path d="M1077.85 798.054L934.287 715.209L1077.85 632.272L1221.42 715.209L1077.85 798.054Z" fill="white"/>
<path d="M1077.85 952.723L934.287 869.786V715.205L1077.85 798.049V952.723Z" fill="#9AC0FF"/>
<path d="M1221.41 869.786L1077.85 952.723V798.049L1221.41 715.205V869.786Z" fill="#CEE0FF"/>
<path d="M592.713 705.121L449.055 622.184L592.713 539.34L736.279 622.184L592.713 705.121Z" fill="#7DAEFD"/>
<path d="M592.713 859.703L449.055 776.859V622.186L592.713 705.122V859.703Z" fill="#9AC0FF"/>
<path d="M736.273 776.859L592.707 859.703V705.122L736.273 622.186V776.859Z" fill="#9AC0FF"/>
<path d="M754.244 798.431L610.679 715.494L754.244 632.558L897.81 715.494L754.244 798.431Z" fill="white"/>
<path d="M754.244 953.008L610.679 870.071V715.49L754.244 798.427V953.008Z" fill="#9AC0FF"/>
<path d="M897.806 870.071L754.24 953.008V798.427L897.806 715.49V870.071Z" fill="#CEE0FF"/>
<path d="M1293.05 1109.43L1149.39 1026.59L1293.05 943.652L1436.61 1026.59L1293.05 1109.43Z" fill="#2D83EE"/>
<path d="M1293.05 1264.11L1149.39 1181.17V1026.59L1293.05 1109.44V1264.11Z" fill="#0647AA"/>
<path d="M1436.61 1181.17L1293.04 1264.11V1109.44L1436.61 1026.59V1181.17Z" fill="#1C64D0"/>
<path d="M430.631 798.702L287.065 715.765L430.631 632.828L574.29 715.765L430.631 798.702Z" fill="white"/>
<path d="M430.631 953.278L287.065 870.342V715.761L430.631 798.697V953.278Z" fill="#9AC0FF"/>
<path d="M574.284 870.342L430.626 953.278V798.697L574.284 715.761V870.342Z" fill="#CEE0FF"/>
<path d="M592.16 891.91L448.594 809.066L592.16 726.129L735.818 809.066L592.16 891.91Z" fill="white"/>
<path d="M592.16 1046.58L448.594 963.643V809.062L592.16 891.906V1046.58Z" fill="#9AC0FF"/>
<path d="M735.813 963.643L592.154 1046.58V891.906L735.813 809.062V963.643Z" fill="#CEE0FF"/>
<path d="M753.777 985.219L610.119 902.282L753.777 819.438L897.343 902.282L753.777 985.219Z" fill="white"/>
<path d="M753.777 1139.8L610.119 1056.96V902.283L753.777 985.22V1139.8Z" fill="#9AC0FF"/>
<path d="M897.339 1056.96L753.773 1139.8V985.22L897.339 902.283V1056.96Z" fill="#CEE0FF"/>
<path d="M107.032 798.98L-36.5342 716.043L107.032 633.106L250.69 716.043L107.032 798.98Z" fill="#7DAEFD"/>
<path d="M107.032 953.557L-36.5342 870.712V716.039L107.032 798.976V953.557Z" fill="#9AC0FF"/>
<path d="M250.685 870.712L107.026 953.557V798.976L250.685 716.039V870.712Z" fill="#5693FF"/>
<path d="M-75.6832 1091.02L-219.249 1008.08L-75.6832 925.143L67.8827 1008.08L-75.6832 1091.02Z" fill="#2D83EE"/>
<path d="M67.8775 1162.75L-75.6885 1245.59V1091.01L67.8775 1008.08V1162.75Z" fill="#1C64D0"/>
<path d="M430.177 985.498L286.519 902.561L430.177 819.717L573.743 902.561L430.177 985.498Z" fill="#7DAEFD"/>
<path d="M430.177 1140.08L286.519 1057.24V902.562L430.177 985.499V1140.08Z" fill="#9AC0FF"/>
<path d="M573.739 1057.24L430.173 1140.08V985.499L573.739 902.562V1057.24Z" fill="#CEE0FF"/>
<path d="M591.7 1078.79L448.134 995.858L591.7 912.921L735.265 995.858L591.7 1078.79Z" fill="white"/>
<path d="M591.7 1233.37L448.134 1150.43V995.854L591.7 1078.79V1233.37Z" fill="#9AC0FF"/>
<path d="M735.261 1150.43L591.695 1233.37V1078.79L735.261 995.854V1150.43Z" fill="#CEE0FF"/>
<path d="M593.181 342.275L449.615 259.431L593.181 176.494L736.84 259.431L593.181 342.275Z" fill="white"/>
<path d="M593.181 496.943L449.615 414.007V259.426L593.181 342.27V496.943Z" fill="#9AC0FF"/>
<path d="M736.835 414.007L593.177 496.943V342.27L736.835 259.426V414.007Z" fill="#CEE0FF"/>
<path d="M754.706 435.582L611.141 352.645L754.706 269.801L898.365 352.645L754.706 435.582Z" fill="white"/>
<path d="M754.706 590.163L611.141 507.226V352.646L754.706 435.582V590.163Z" fill="#9AC0FF"/>
<path d="M898.36 507.226L754.701 590.163V435.582L898.36 352.646V507.226Z" fill="#CEE0FF"/>
<path d="M916.328 528.793L772.67 445.949L916.328 363.012L1059.89 445.949L916.328 528.793Z" fill="white"/>
<path d="M916.328 683.462L772.67 600.525V445.944L916.328 528.789V683.462Z" fill="#9AC0FF"/>
<path d="M1059.89 600.525L916.324 683.462V528.789L1059.89 445.944V600.525Z" fill="#CEE0FF"/>
<path d="M1077.85 369.213L934.287 286.276L1077.85 203.339L1221.42 286.276L1077.85 369.213Z" fill="#2D83EE"/>
<path d="M1077.85 523.794L934.287 440.949V286.276L1077.85 369.213V523.794Z" fill="#0647AA"/>
<path d="M1221.41 440.949L1077.85 523.794V369.213L1221.41 286.276V440.949Z" fill="#1C64D0"/>
<path d="M48.2572 214.811L-95.3086 131.874L48.2572 48.9375L191.823 131.874L48.2572 214.811Z" fill="#2D83EE"/>
<path d="M48.2572 369.388L-95.3086 286.451V131.87L48.2572 214.807V369.388Z" fill="#0647AA"/>
<path d="M191.818 286.451L48.252 369.388V214.807L191.818 131.87V286.451Z" fill="#1C64D0"/>
<path d="M592.713 529.155L449.055 446.218L592.713 363.281L736.279 446.218L592.713 529.155Z" fill="white"/>
<path d="M592.713 683.732L449.055 600.795V446.214L592.713 529.151V683.732Z" fill="#9AC0FF"/>
<path d="M736.273 600.795L592.707 683.732V529.151L736.273 446.214V600.795Z" fill="#CEE0FF"/>
<path d="M754.244 622.369L610.679 539.525L754.244 456.588L897.81 539.525L754.244 622.369Z" fill="white"/>
<path d="M754.244 777.038L610.679 694.101V539.521L754.244 622.365V777.038Z" fill="#9AC0FF"/>
<path d="M897.806 694.101L754.24 777.038V622.365L897.806 539.521V694.101Z" fill="#CEE0FF"/>
<path d="M915.765 715.673L772.199 632.737L915.765 549.8L1059.42 632.737L915.765 715.673Z" fill="white"/>
<path d="M915.765 870.25L772.199 787.406V632.732L915.765 715.669V870.25Z" fill="#9AC0FF"/>
<path d="M1059.42 787.406L915.76 870.25V715.669L1059.42 632.732V787.406Z" fill="#CEE0FF"/>
<path d="M111.293 438.266L-32.2725 355.422L111.293 272.485L254.859 355.422L111.293 438.266Z" fill="#2D83EE"/>
<path d="M111.293 592.939L-32.2725 510.002V355.421L111.293 438.266V592.939Z" fill="#0647AA"/>
<path d="M254.854 510.002L111.288 592.939V438.266L254.854 355.421V510.002Z" fill="#1C64D0"/>
<path d="M430.631 622.652L287.065 539.808L430.631 456.871L574.29 539.808L430.631 622.652Z" fill="white"/>
<path d="M430.631 777.321L287.065 694.385V539.804L430.631 622.648V777.321Z" fill="#9AC0FF"/>
<path d="M574.284 694.385L430.626 777.321V622.648L574.284 539.804V694.385Z" fill="#CEE0FF"/>
<path d="M592.16 95.5982L448.594 12.754V-141.919L592.16 -58.9826V95.5982Z" fill="#0647AA"/>
<path d="M735.813 12.754L592.154 95.5982V-58.9826L735.813 -141.919V12.754Z" fill="#1C64D0"/>
<path d="M753.777 809.169L610.119 726.325L753.777 643.388L897.343 726.325L753.777 809.169Z" fill="white"/>
<path d="M753.777 963.844L610.119 880.907V726.326L753.777 809.17V963.844Z" fill="#9AC0FF"/>
<path d="M897.337 880.907L753.771 963.844V809.17L897.337 726.326V880.907Z" fill="#CEE0FF"/>
<path d="M107.032 622.926L-36.5342 540.081L107.032 457.145L250.69 540.081L107.032 622.926Z" fill="white"/>
<path d="M107.032 777.595L-36.5342 694.658V540.077L107.032 622.922V777.595Z" fill="#9AC0FF"/>
<path d="M250.685 694.658L107.026 777.595V622.922L250.685 540.077V694.658Z" fill="#CEE0FF"/>
<path d="M268.65 716.236L124.991 633.299L268.65 550.455L412.215 633.299L268.65 716.236Z" fill="white"/>
<path d="M268.65 870.821L124.991 787.977V633.304L268.65 716.24V870.821Z" fill="#9AC0FF"/>
<path d="M412.211 787.977L268.646 870.821V716.24L412.211 633.304V787.977Z" fill="#CEE0FF"/>
<path d="M430.177 809.532L286.519 726.595L430.177 643.658L573.743 726.595L430.177 809.532Z" fill="white"/>
<path d="M430.177 964.109L286.519 881.173V726.592L430.177 809.529V964.109Z" fill="#9AC0FF"/>
<path d="M573.739 881.173L430.173 964.109V809.529L573.739 726.592V881.173Z" fill="#CEE0FF"/>
<path d="M591.7 902.74L448.134 819.803L591.7 736.959L735.265 819.803L591.7 902.74Z" fill="white"/>
<path d="M591.7 1057.41L448.134 974.478V819.805L591.7 902.742V1057.41Z" fill="#9AC0FF"/>
<path d="M735.261 974.478L591.695 1057.41V902.742L735.261 819.805V974.478Z" fill="#CEE0FF"/>
<path style="mix-blend-mode:screen" opacity="0.5" d="M1275.73 775.658C1283.7 736.874 1309.8 716.324 1323.87 716.51C1305.82 710.215 1271.75 742.613 1275.73 775.658Z" fill="url(#paint0_radial_348_32168)"/>
</g>
<defs>
<radialGradient id="paint0_radial_348_32168" cx="0" cy="0" r="1" gradientUnits="userSpaceOnUse" gradientTransform="translate(1314.98 715.769) scale(78.0311 78.0311)">
<stop stop-color="#FFE7D7"/>
<stop offset="0.07" stop-color="#A79388"/>
<stop offset="0.13" stop-color="#63544C"/>
<stop offset="0.22" stop-color="#1C150F"/>
<stop offset="0.28"/>
<stop offset="1"/>
</radialGradient>
</defs>
</svg>
