<svg width="143" height="158" viewBox="0 0 143 158" fill="none" xmlns="http://www.w3.org/2000/svg">
<rect opacity="0.5" x="7.83398" y="7.67383" width="120" height="150" fill="#D4DDEA"/>
<rect x="0.164062" y="0.326172" width="120" height="150" fill="#D4DDEA"/>
<rect x="16.1641" y="32.3262" width="38.2016" height="7.44186" fill="white"/>
<rect x="16.1641" y="55.7676" width="55.7153" height="7.44186" fill="white"/>
<rect x="16.1641" y="79.209" width="68.2559" height="7.44186" fill="white"/>
<path d="M116.007 140.153C112.318 140.153 108.851 139.451 105.607 138.047C102.362 136.642 99.5398 134.738 97.1398 132.334C94.7398 129.928 92.8403 127.099 91.4412 123.847C90.0421 120.594 89.3416 117.119 89.3398 113.421C89.3398 109.723 90.0403 106.248 91.4412 102.996C92.8421 99.7435 94.7416 96.9144 97.1398 94.5085C99.5398 92.1026 102.362 90.1984 105.607 88.7959C108.851 87.3934 112.318 86.6912 116.007 86.6895C119.695 86.6895 123.162 87.3916 126.407 88.7959C129.651 90.2002 132.473 92.1044 134.873 94.5085C137.273 96.9144 139.174 99.7435 140.575 102.996C141.975 106.248 142.675 109.723 142.673 113.421C142.673 117.119 141.973 120.594 140.572 123.847C139.171 127.099 137.271 129.928 134.873 132.334C132.473 134.74 129.651 136.645 126.407 138.049C123.162 139.454 119.695 140.155 116.007 140.153Z" fill="#A6B1C2"/>
<path d="M116.007 126.786C116.762 126.786 117.396 126.53 117.908 126.017C118.42 125.503 118.675 124.869 118.673 124.113C118.673 123.356 118.417 122.721 117.905 122.207C117.393 121.694 116.76 121.438 116.007 121.44C115.251 121.44 114.617 121.697 114.105 122.21C113.593 122.723 113.338 123.358 113.34 124.113C113.34 124.871 113.596 125.506 114.108 126.019C114.62 126.533 115.253 126.788 116.007 126.786ZM113.34 116.094H118.673V100.055H113.34V116.094Z" fill="white" fill-opacity="0.5"/>
</svg>
