<svg width="24" height="24" viewBox="0 0 24 24" fill="none" xmlns="http://www.w3.org/2000/svg">
<g clip-path="url(#clip0_30_661)">
<path d="M12 1.99994C13.0609 1.99994 14.0783 2.42137 14.8284 3.17151C15.5786 3.92166 16 4.93907 16 5.99994H18.035C18.5532 5.99987 19.0512 6.20093 19.4241 6.56075C19.7969 6.92058 20.0156 7.41108 20.034 7.92894L20.462 19.9289C20.4715 20.1973 20.4269 20.4649 20.3308 20.7157C20.2347 20.9664 20.0891 21.1953 19.9026 21.3886C19.7162 21.5818 19.4927 21.7356 19.2455 21.8406C18.9984 21.9457 18.7326 21.9998 18.464 21.9999H5.536C5.26745 21.9998 5.00166 21.9457 4.75449 21.8406C4.50733 21.7356 4.28385 21.5818 4.09739 21.3886C3.91093 21.1953 3.7653 20.9664 3.66919 20.7157C3.57309 20.4649 3.52847 20.1973 3.538 19.9289L3.966 7.92894C3.9844 7.41108 4.20307 6.92058 4.57595 6.56075C4.94884 6.20093 5.44682 5.99987 5.965 5.99994H8C8 4.93907 8.42143 3.92166 9.17158 3.17151C9.92172 2.42137 10.9391 1.99994 12 1.99994ZM8 7.99994H5.965L5.536 19.9999H18.464L18.035 7.99994H16V8.99994C15.9997 9.25482 15.9021 9.49997 15.7272 9.68531C15.5522 9.87064 15.3131 9.98217 15.0586 9.99711C14.8042 10.012 14.5536 9.92927 14.3582 9.76567C14.1627 9.60208 14.0371 9.37003 14.007 9.11694L14 8.99994V7.99994H10V8.99994C9.99972 9.25482 9.90212 9.49997 9.72716 9.68531C9.55219 9.87064 9.31305 9.98217 9.05861 9.99711C8.80417 10.012 8.55362 9.92927 8.35817 9.76567C8.16272 9.60208 8.03711 9.37003 8.007 9.11694L8 8.99994V7.99994ZM12 3.99994C11.4954 3.99978 11.0094 4.19035 10.6395 4.53344C10.2695 4.87653 10.0428 5.34678 10.005 5.84994L10 5.99994H14C14 5.46951 13.7893 4.9608 13.4142 4.58573C13.0391 4.21065 12.5304 3.99994 12 3.99994Z" fill="#6E7686"/>
</g>
<defs>
<clipPath id="clip0_30_661">
<rect width="24" height="24" fill="white"/>
</clipPath>
</defs>
</svg>
