<svg width="24" height="24" viewBox="0 0 24 24" fill="none" xmlns="http://www.w3.org/2000/svg">
<g clip-path="url(#clip0_30_679)">
<path fill-rule="evenodd" clip-rule="evenodd" d="M7.5 18.9999C7.89782 18.9999 8.27936 19.158 8.56066 19.4393C8.84196 19.7206 9 20.1021 9 20.4999C9 20.8978 8.84196 21.2793 8.56066 21.5606C8.27936 21.8419 7.89782 21.9999 7.5 21.9999C7.10218 21.9999 6.72064 21.8419 6.43934 21.5606C6.15804 21.2793 6 20.8978 6 20.4999C6 20.1021 6.15804 19.7206 6.43934 19.4393C6.72064 19.158 7.10218 18.9999 7.5 18.9999ZM17.5 18.9999C17.8978 18.9999 18.2794 19.158 18.5607 19.4393C18.842 19.7206 19 20.1021 19 20.4999C19 20.8978 18.842 21.2793 18.5607 21.5606C18.2794 21.8419 17.8978 21.9999 17.5 21.9999C17.1022 21.9999 16.7206 21.8419 16.4393 21.5606C16.158 21.2793 16 20.8978 16 20.4999C16 20.1021 16.158 19.7206 16.4393 19.4393C16.7206 19.158 17.1022 18.9999 17.5 18.9999ZM3.138 1.99994C3.89654 2.00003 4.62689 2.28746 5.18203 2.80438C5.73717 3.3213 6.07589 4.02933 6.13 4.78594L6.145 4.99994H19.802C20.095 4.99989 20.3844 5.06422 20.6498 5.18838C20.9152 5.31253 21.15 5.49348 21.3378 5.71842C21.5255 5.94336 21.6615 6.2068 21.7362 6.49011C21.8109 6.77342 21.8224 7.06968 21.77 7.35794L20.133 16.3579C20.0492 16.8188 19.8062 17.2355 19.4466 17.5356C19.0869 17.8357 18.6334 18 18.165 17.9999H6.931C6.42514 18 5.93807 17.8083 5.56789 17.4635C5.1977 17.1188 4.97192 16.6465 4.936 16.1419L4.136 4.92894C4.11802 4.67639 4.00492 4.44006 3.81951 4.26764C3.6341 4.09522 3.39019 3.99955 3.137 3.99994H3C2.73478 3.99994 2.48043 3.89458 2.29289 3.70705C2.10536 3.51951 2 3.26516 2 2.99994C2 2.73472 2.10536 2.48037 2.29289 2.29283C2.48043 2.1053 2.73478 1.99994 3 1.99994H3.138ZM19.802 6.99994H6.288L6.931 15.9999H18.165L19.802 6.99994Z" fill="#6E7686"/>
</g>
<defs>
<clipPath id="clip0_30_679">
<rect width="24" height="24" fill="white"/>
</clipPath>
</defs>
</svg>
