<svg width="40" height="26" viewBox="0 0 40 26" fill="none" xmlns="http://www.w3.org/2000/svg">
<path fill-rule="evenodd" clip-rule="evenodd" d="M16.4696 21.8044C16.4688 21.8044 16.468 21.8044 16.4672 21.8044C12.4353 21.8044 9.16675 18.5359 9.16675 14.5039C9.16675 10.7079 12.064 7.58855 15.7679 7.23658C16.8954 3.90133 20.0505 1.50031 23.7664 1.50031C27.482 1.50031 30.637 3.90109 31.7646 7.23607C35.4711 7.58551 38.3712 10.706 38.3712 14.5039C38.3712 18.5359 35.1027 21.8044 31.0708 21.8044C31.0707 21.8044 31.0705 21.8044 31.0704 21.8044V21.8051H16.4696V21.8044Z" fill="url(#paint0_linear_17_10314)"/>
<g filter="url(#filter0_bi_17_10314)">
<mask id="path-2-inside-1_17_10314" fill="white">
<path fill-rule="evenodd" clip-rule="evenodd" d="M7.71108 24.9662C7.69647 24.9663 7.68185 24.9663 7.66722 24.9663C4.21538 24.9663 1.41711 22.168 1.41711 18.7162C1.41711 15.4656 3.89868 12.7945 7.07071 12.4942C8.03598 9.63879 10.7371 7.58319 13.9184 7.58319C17.0998 7.58319 19.801 9.63892 20.7662 12.4945C23.9368 12.7962 26.4168 15.4666 26.4168 18.7162C26.4168 22.168 23.6186 24.9663 20.1667 24.9663C20.1521 24.9663 20.1375 24.9663 20.1229 24.9662H7.71108Z"/>
</mask>
<path fill-rule="evenodd" clip-rule="evenodd" d="M7.71108 24.9662C7.69647 24.9663 7.68185 24.9663 7.66722 24.9663C4.21538 24.9663 1.41711 22.168 1.41711 18.7162C1.41711 15.4656 3.89868 12.7945 7.07071 12.4942C8.03598 9.63879 10.7371 7.58319 13.9184 7.58319C17.0998 7.58319 19.801 9.63892 20.7662 12.4945C23.9368 12.7962 26.4168 15.4666 26.4168 18.7162C26.4168 22.168 23.6186 24.9663 20.1667 24.9663C20.1521 24.9663 20.1375 24.9663 20.1229 24.9662H7.71108Z" fill="white" fill-opacity="0.01"/>
<path d="M7.71108 24.9662V24.3828L7.70704 24.3828L7.71108 24.9662ZM7.07071 12.4942L7.12569 13.0749L7.5022 13.0393L7.62332 12.681L7.07071 12.4942ZM20.7662 12.4945L20.2136 12.6813L20.3346 13.0394L20.7109 13.0752L20.7662 12.4945ZM20.1229 24.9662L20.1269 24.3828H20.1229V24.9662ZM7.70704 24.3828C7.6938 24.3829 7.68053 24.383 7.66722 24.383V25.5496C7.68317 25.5496 7.69913 25.5496 7.71511 25.5495L7.70704 24.3828ZM7.66722 24.383C4.53755 24.383 2.00045 21.8459 2.00045 18.7162H0.833781C0.833781 22.4902 3.89321 25.5496 7.66722 25.5496V24.383ZM2.00045 18.7162C2.00045 15.7693 4.25034 13.3472 7.12569 13.0749L7.01572 11.9135C3.54702 12.2419 0.833781 15.1618 0.833781 18.7162H2.00045ZM7.62332 12.681C8.5109 10.0554 10.9948 8.16652 13.9184 8.16652V6.99986C10.4794 6.99986 7.56105 9.22218 6.51809 12.3074L7.62332 12.681ZM13.9184 8.16652C16.8421 8.16652 19.3261 10.0555 20.2136 12.6813L21.3188 12.3077C20.2759 9.22232 17.3575 6.99986 13.9184 6.99986V8.16652ZM20.7109 13.0752C23.585 13.3487 25.8335 15.7702 25.8335 18.7162H27.0002C27.0002 15.1629 24.2886 12.2437 20.8215 11.9138L20.7109 13.0752ZM25.8335 18.7162C25.8335 21.8459 23.2964 24.383 20.1667 24.383V25.5496C23.9407 25.5496 27.0002 22.4902 27.0002 18.7162H25.8335ZM20.1667 24.383C20.1534 24.383 20.1401 24.3829 20.1269 24.3828L20.1188 25.5495C20.1348 25.5496 20.1508 25.5496 20.1667 25.5496V24.383ZM20.1229 24.3828H7.71108V25.5495H20.1229V24.3828Z" fill="url(#paint1_linear_17_10314)" fill-opacity="0.1" mask="url(#path-2-inside-1_17_10314)"/>
</g>
<defs>
<filter id="filter0_bi_17_10314" x="-11.9162" y="-5.75014" width="51.6664" height="44.0498" filterUnits="userSpaceOnUse" color-interpolation-filters="sRGB">
<feFlood flood-opacity="0" result="BackgroundImageFix"/>
<feGaussianBlur in="BackgroundImageFix" stdDeviation="6.66667"/>
<feComposite in2="SourceAlpha" operator="in" result="effect1_backgroundBlur_17_10314"/>
<feBlend mode="normal" in="SourceGraphic" in2="effect1_backgroundBlur_17_10314" result="shape"/>
<feColorMatrix in="SourceAlpha" type="matrix" values="0 0 0 0 0 0 0 0 0 0 0 0 0 0 0 0 0 0 127 0" result="hardAlpha"/>
<feOffset/>
<feGaussianBlur stdDeviation="1.16667"/>
<feComposite in2="hardAlpha" operator="arithmetic" k2="-1" k3="1"/>
<feColorMatrix type="matrix" values="0 0 0 0 1 0 0 0 0 1 0 0 0 0 1 0 0 0 0.8 0"/>
<feBlend mode="normal" in2="shape" result="effect2_innerShadow_17_10314"/>
</filter>
<linearGradient id="paint0_linear_17_10314" x1="8.91609" y1="21.7505" x2="38.0832" y2="1.3332" gradientUnits="userSpaceOnUse">
<stop stop-color="#1877F2"/>
<stop offset="1" stop-color="#1CADFF"/>
</linearGradient>
<linearGradient id="paint1_linear_17_10314" x1="1.41711" y1="7.58319" x2="26.4168" y2="25.083" gradientUnits="userSpaceOnUse">
<stop stop-color="white"/>
<stop offset="1" stop-color="white" stop-opacity="0"/>
</linearGradient>
</defs>
</svg>
