<svg width="24" height="24" viewBox="0 0 24 24" fill="none" xmlns="http://www.w3.org/2000/svg">
<g clip-path="url(#clip0_30_278)">
<path fill-rule="evenodd" clip-rule="evenodd" d="M18.884 14.4688C19.0119 14.2484 19.219 14.0851 19.4632 14.0123C19.7073 13.9395 19.9701 13.9626 20.1978 14.077C20.4254 14.1913 20.6009 14.3883 20.6883 14.6276C20.7757 14.8669 20.7684 15.1306 20.668 15.3648L20.616 15.4688L20.281 16.0488C20.4807 16.2833 20.6432 16.547 20.763 16.8308L20.829 16.9998H21.5C21.7549 17 22 17.0976 22.1854 17.2726C22.3707 17.4476 22.4822 17.6867 22.4972 17.9412C22.5121 18.1956 22.4293 18.4461 22.2657 18.6416C22.1021 18.837 21.8701 18.9627 21.617 18.9928L21.5 18.9998H20.829C20.7311 19.2771 20.593 19.5386 20.419 19.7758L20.281 19.9498L20.616 20.5308C20.7446 20.7517 20.7836 21.0136 20.7251 21.2625C20.6667 21.5113 20.5151 21.7284 20.3015 21.869C20.088 22.0095 19.8287 22.063 19.5769 22.0183C19.3252 21.9736 19.1001 21.8342 18.948 21.6288L18.884 21.5308L18.549 20.9508C18.256 21.0048 17.959 21.0138 17.669 20.9808L17.452 20.9488L17.116 21.5308C16.9881 21.7511 16.781 21.9144 16.5368 21.9872C16.2927 22.06 16.0299 22.0369 15.8022 21.9225C15.5746 21.8082 15.3991 21.6112 15.3117 21.3719C15.2243 21.1326 15.2316 20.8689 15.332 20.6348L15.384 20.5308L15.719 19.9498C15.5196 19.7157 15.3571 19.4527 15.237 19.1698L15.171 18.9998H14.5C14.2451 18.9995 14 18.9019 13.8146 18.7269C13.6293 18.5519 13.5178 18.3128 13.5028 18.0584C13.4879 17.8039 13.5707 17.5534 13.7343 17.3579C13.8979 17.1625 14.1299 17.0369 14.383 17.0068L14.5 16.9998H15.172C15.2699 16.7224 15.408 16.4609 15.582 16.2238L15.719 16.0498L15.384 15.4688C15.2554 15.2478 15.2164 14.9859 15.2749 14.7371C15.3333 14.4882 15.4849 14.2711 15.6985 14.1306C15.912 13.99 16.1713 13.9365 16.4231 13.9812C16.6748 14.0259 16.8999 14.1653 17.052 14.3708L17.116 14.4688L17.451 15.0488C17.744 14.9948 18.041 14.9858 18.331 15.0188L18.548 15.0498L18.884 14.4688ZM11 12.9998C11.447 12.9998 11.887 13.0238 12.316 13.0698C12.5798 13.0977 12.8216 13.2293 12.9883 13.4356C13.155 13.6419 13.233 13.906 13.205 14.1698C13.177 14.4335 13.0454 14.6754 12.8391 14.8421C12.6328 15.0088 12.3688 15.0867 12.105 15.0588C11.745 15.0198 11.375 14.9998 11 14.9998C8.977 14.9998 7.157 15.5898 5.864 16.3788C5.217 16.7728 4.729 17.2008 4.414 17.6008C4.09 18.0108 4 18.3208 4 18.4998C4 18.6218 4.037 18.7508 4.255 18.9258C4.504 19.1258 4.937 19.3328 5.599 19.5078C6.917 19.8578 8.811 19.9998 11 19.9998L11.658 19.9948C11.9232 19.9912 12.179 20.0931 12.3691 20.2781C12.5591 20.4631 12.6679 20.716 12.6715 20.9813C12.6751 21.2465 12.5732 21.5022 12.3882 21.6923C12.2031 21.8824 11.9502 21.9912 11.685 21.9948L11 21.9998C8.771 21.9998 6.665 21.8598 5.087 21.4418C4.302 21.2338 3.563 20.9358 3.003 20.4858C2.41 20.0098 2 19.3448 2 18.4998C2 17.7128 2.358 16.9768 2.844 16.3608C3.338 15.7358 4.021 15.1608 4.822 14.6708C6.425 13.6938 8.605 12.9998 11 12.9998ZM18 16.9998C17.7348 16.9998 17.4804 17.1051 17.2929 17.2926C17.1054 17.4802 17 17.7345 17 17.9998C17 18.265 17.1054 18.5193 17.2929 18.7069C17.4804 18.8944 17.7348 18.9998 18 18.9998C18.2652 18.9998 18.5196 18.8944 18.7071 18.7069C18.8946 18.5193 19 18.265 19 17.9998C19 17.7345 18.8946 17.4802 18.7071 17.2926C18.5196 17.1051 18.2652 16.9998 18 16.9998ZM11 1.99976C12.3261 1.99976 13.5979 2.52654 14.5355 3.46422C15.4732 4.4019 16 5.67367 16 6.99976C16 8.32584 15.4732 9.59761 14.5355 10.5353C13.5979 11.473 12.3261 11.9998 11 11.9998C9.67392 11.9998 8.40215 11.473 7.46447 10.5353C6.52678 9.59761 6 8.32584 6 6.99976C6 5.67367 6.52678 4.4019 7.46447 3.46422C8.40215 2.52654 9.67392 1.99976 11 1.99976ZM11 3.99976C10.606 3.99976 10.2159 4.07735 9.85195 4.22812C9.48797 4.37888 9.15726 4.59986 8.87868 4.87844C8.6001 5.15701 8.37913 5.48773 8.22836 5.85171C8.0776 6.21568 8 6.60579 8 6.99976C8 7.39372 8.0776 7.78383 8.22836 8.14781C8.37913 8.51178 8.6001 8.8425 8.87868 9.12108C9.15726 9.39965 9.48797 9.62063 9.85195 9.77139C10.2159 9.92216 10.606 9.99976 11 9.99976C11.7956 9.99976 12.5587 9.68369 13.1213 9.12108C13.6839 8.55847 14 7.79541 14 6.99976C14 6.20411 13.6839 5.44104 13.1213 4.87844C12.5587 4.31583 11.7956 3.99976 11 3.99976Z" fill="#6E7686"/>
</g>
<defs>
<clipPath id="clip0_30_278">
<rect width="24" height="24" fill="white"/>
</clipPath>
</defs>
</svg>
