<svg width="66" height="42" viewBox="0 0 66 42" fill="none" xmlns="http://www.w3.org/2000/svg">
<g id="Frame 626606">
<path id="Union" fill-rule="evenodd" clip-rule="evenodd" d="M26.9467 36.0929C26.9461 36.0929 26.9455 36.0929 26.9449 36.0929C20.0331 36.0929 14.4299 30.4898 14.4299 23.5779C14.4299 17.0702 19.3971 11.7226 25.7469 11.1195C27.6798 5.40207 33.0885 1.28613 39.4584 1.28613C45.8282 1.28613 51.2367 5.40176 53.1697 11.1189C59.5228 11.7188 64.4934 17.0679 64.4934 23.5779C64.4934 30.4898 58.8903 36.0929 51.9784 36.0929C51.9778 36.0929 51.9773 36.0929 51.9767 36.0929V36.094H26.9467V36.0929Z" fill="url(#paint0_linear_102_10506)"/>
<g id="Union_2" filter="url(#filter0_bi_102_10506)">
<mask id="path-2-inside-1_102_10506" fill="white">
<path fill-rule="evenodd" clip-rule="evenodd" d="M11.9887 41.5142C11.945 41.5147 11.9012 41.515 11.8573 41.515C5.93985 41.515 1.14282 36.718 1.14282 30.8005C1.14282 25.2288 5.39575 20.6504 10.8324 20.1345C12.487 15.2391 17.1177 11.7148 22.5716 11.7148C28.0255 11.7148 32.6562 15.2391 34.3108 20.1345C39.7474 20.6504 44.0003 25.2288 44.0003 30.8005C44.0003 36.718 39.2033 41.515 33.2859 41.515C33.242 41.515 33.1982 41.5147 33.1544 41.5142H11.9887Z"/>
</mask>
<path fill-rule="evenodd" clip-rule="evenodd" d="M11.9887 41.5142C11.945 41.5147 11.9012 41.515 11.8573 41.515C5.93985 41.515 1.14282 36.718 1.14282 30.8005C1.14282 25.2288 5.39575 20.6504 10.8324 20.1345C12.487 15.2391 17.1177 11.7148 22.5716 11.7148C28.0255 11.7148 32.6562 15.2391 34.3108 20.1345C39.7474 20.6504 44.0003 25.2288 44.0003 30.8005C44.0003 36.718 39.2033 41.515 33.2859 41.515C33.242 41.515 33.1982 41.5147 33.1544 41.5142H11.9887Z" fill="white" fill-opacity="0.01"/>
<path d="M11.9887 41.5142V40.5141L11.9767 40.5143L11.9887 41.5142ZM10.8324 20.1345L10.9269 21.13L11.5722 21.0687L11.7798 20.4546L10.8324 20.1345ZM34.3108 20.1345L33.3634 20.4546L33.571 21.0687L34.2163 21.13L34.3108 20.1345ZM33.1544 41.5142L33.1664 40.5142H33.1544V41.5142ZM11.9767 40.5143C11.937 40.5148 11.8972 40.515 11.8573 40.515V42.515C11.9052 42.515 11.953 42.5147 12.0008 42.5141L11.9767 40.5143ZM11.8573 40.515C6.49213 40.515 2.14282 36.1657 2.14282 30.8005H0.142822C0.142822 37.2703 5.38756 42.515 11.8573 42.515V40.515ZM2.14282 30.8005C2.14282 25.7494 5.9987 21.5976 10.9269 21.13L10.738 19.1389C4.7928 19.7031 0.142822 24.7082 0.142822 30.8005H2.14282ZM11.7798 20.4546C13.3012 15.9532 17.5595 12.7148 22.5716 12.7148V10.7148C16.6759 10.7148 11.6728 14.5249 9.88508 19.8143L11.7798 20.4546ZM22.5716 12.7148C27.5837 12.7148 31.842 15.9532 33.3634 20.4546L35.2581 19.8143C33.4704 14.5249 28.4673 10.7148 22.5716 10.7148V12.7148ZM34.2163 21.13C39.1445 21.5977 43.0003 25.7494 43.0003 30.8005H45.0003C45.0003 24.7082 40.3504 19.7031 34.4052 19.1389L34.2163 21.13ZM43.0003 30.8005C43.0003 36.1657 38.651 40.515 33.2859 40.515V42.515C39.7556 42.515 45.0003 37.2703 45.0003 30.8005H43.0003ZM33.2859 40.515C33.246 40.515 33.2062 40.5148 33.1664 40.5143L33.1424 42.5141C33.1902 42.5147 33.238 42.515 33.2859 42.515V40.515ZM33.1544 40.5142H11.9887V42.5142H33.1544V40.5142Z" fill="url(#paint1_linear_102_10506)" fill-opacity="0.1" mask="url(#path-2-inside-1_102_10506)"/>
</g>
</g>
<defs>
<filter id="filter0_bi_102_10506" x="-21.7143" y="-11.1423" width="88.5718" height="75.5141" filterUnits="userSpaceOnUse" color-interpolation-filters="sRGB">
<feFlood flood-opacity="0" result="BackgroundImageFix"/>
<feGaussianBlur in="BackgroundImageFix" stdDeviation="11.4286"/>
<feComposite in2="SourceAlpha" operator="in" result="effect1_backgroundBlur_102_10506"/>
<feBlend mode="normal" in="SourceGraphic" in2="effect1_backgroundBlur_102_10506" result="shape"/>
<feColorMatrix in="SourceAlpha" type="matrix" values="0 0 0 0 0 0 0 0 0 0 0 0 0 0 0 0 0 0 127 0" result="hardAlpha"/>
<feOffset/>
<feGaussianBlur stdDeviation="2"/>
<feComposite in2="hardAlpha" operator="arithmetic" k2="-1" k3="1"/>
<feColorMatrix type="matrix" values="0 0 0 0 1 0 0 0 0 1 0 0 0 0 1 0 0 0 0.8 0"/>
<feBlend mode="normal" in2="shape" result="effect2_innerShadow_102_10506"/>
</filter>
<linearGradient id="paint0_linear_102_10506" x1="14.0002" y1="36.0005" x2="64.0002" y2="1.00049" gradientUnits="userSpaceOnUse">
<stop stop-color="#1877F2"/>
<stop offset="1" stop-color="#1CADFF"/>
</linearGradient>
<linearGradient id="paint1_linear_102_10506" x1="1.14282" y1="11.7148" x2="44.0003" y2="41.7151" gradientUnits="userSpaceOnUse">
<stop stop-color="white"/>
<stop offset="1" stop-color="white" stop-opacity="0"/>
</linearGradient>
</defs>
</svg>
