<svg width="44" height="44" viewBox="0 0 44 44" fill="none" xmlns="http://www.w3.org/2000/svg">
<g clip-path="url(#clip0_39_823)">
<path fill-rule="evenodd" clip-rule="evenodd" d="M22 11.4074C16.1499 11.4074 11.4074 16.1499 11.4074 22C11.4074 27.8501 16.1499 32.5926 22 32.5926C27.8501 32.5926 32.5926 27.8501 32.5926 22C32.5926 16.1499 27.8501 11.4074 22 11.4074ZM0 22C0 9.84974 9.84974 0 22 0C34.1503 0 44 9.84974 44 22C44 34.1503 34.1503 44 22 44C9.84974 44 0 34.1503 0 22Z" fill="#0068B8"/>
<path d="M22 21.9996C22 24.8886 22.569 27.7494 23.6746 30.4186C24.7802 33.0878 26.4007 35.513 28.4436 37.5559C30.4865 39.5988 32.9118 41.2193 35.581 42.3249C38.2501 43.4305 41.1109 43.9996 44 43.9996L44 21.9996L22 21.9996Z" fill="#97DEE8"/>
<path d="M44 22C44 19.1109 43.431 16.2501 42.3254 13.581C41.2197 10.9118 39.5992 8.48654 37.5564 6.44365C35.5135 4.40076 33.0882 2.78025 30.419 1.67465C27.7499 0.569047 24.8891 -1.26286e-07 22 0L22 22L44 22Z" fill="#53D1F0"/>
</g>
<defs>
<clipPath id="clip0_39_823">
<rect width="44" height="44" fill="white"/>
</clipPath>
</defs>
</svg>
