<svg width="1220" height="345" viewBox="0 0 1220 345" fill="none" xmlns="http://www.w3.org/2000/svg">
<path d="M578.98 13.66H581.1V16.42H587.44V28H585.38V26.98H581.1V31.98H578.98V26.98H574.62V28.14H572.56V16.42H578.98V13.66ZM574.62 25.02H578.98V22.6H574.62V25.02ZM581.1 25.02H585.38V22.6H581.1V25.02ZM574.62 20.74H578.98V18.36H574.62V20.74ZM581.1 20.74H585.38V18.36H581.1V20.74ZM601.96 13.58H603.98V14.68H608.72V16.36H603.98V17.2H608.02V18.84H603.98V19.7H609.2V21.42H596.8V19.7H601.96V18.84H598.2V17.2H601.96V16.36H597.36V14.68H601.96V13.58ZM600.14 26.46V27.44H605.86V26.46H600.14ZM605.86 24.9V23.9H600.14V24.9H605.86ZM600.14 29.02V32.08H598.18V22.22H607.86V30.02C607.86 31.3 607.2 31.96 605.9 31.96H604.24L603.74 30.14L605.32 30.22C605.68 30.22 605.86 30 605.86 29.58V29.02H600.14ZM593.56 13.72C594.82 14.68 595.9 15.66 596.8 16.62L595.36 18.06C594.6 17.14 593.5 16.18 592.08 15.14L593.56 13.72ZM590.72 19.48H595.4V27.64C595.88 27.18 596.36 26.68 596.86 26.16L597.42 28.36C596.22 29.54 594.96 30.6 593.64 31.54L592.86 29.66C593.2 29.36 593.38 28.98 593.38 28.54V21.48H590.72V19.48ZM616.76 22.3L616.3 20.54C616.48 20.48 616.62 20.42 616.72 20.36C617.38 19.96 618.22 18.92 619.24 17.26H616.24V15.38H621.5C621.26 14.78 621.02 14.22 620.76 13.7L622.88 13.34C623.12 13.94 623.38 14.62 623.62 15.38H628.68V17.26H621.4C620.66 18.58 620 19.6 619.42 20.32C621.3 20.2 623.2 20.02 625.08 19.8C624.72 19.32 624.36 18.86 624 18.42L625.68 17.38C627.08 19.02 628.14 20.46 628.88 21.7L627.14 22.9C626.86 22.44 626.58 21.96 626.26 21.48C623.34 21.8 620.16 22.08 616.76 22.3ZM612.86 13.72C614.06 14.56 615.1 15.42 615.94 16.28L614.46 17.76C613.74 16.96 612.7 16.08 611.36 15.16L612.86 13.72ZM612.38 18.5C613.62 19.46 614.68 20.44 615.52 21.4L614.04 22.88C613.3 21.98 612.26 21 610.9 19.94L612.38 18.5ZM613.84 23.92L615.68 24.64C614.92 27.18 614.08 29.58 613.16 31.82L611.24 30.96C612.24 28.68 613.12 26.32 613.84 23.92ZM620.6 22.88H622.72V31.68H620.6V22.88ZM617.32 22.88H619.36C619.28 25.52 619.02 27.46 618.58 28.7C618.1 29.98 617.28 31.12 616.14 32.08L614.82 30.4C615.7 29.66 616.34 28.78 616.7 27.76C617.04 26.8 617.24 25.16 617.32 22.88ZM627.26 31.9H626.44C625 31.9 624.28 31.28 624.28 30.06V22.88H626.26V29.64C626.26 29.84 626.34 29.96 626.5 30H627.16C627.4 29.96 627.52 29.68 627.54 29.16C627.58 28.62 627.6 27.88 627.6 26.96L629.42 27.64C629.42 29.58 629.28 30.76 629 31.18C628.74 31.58 628.16 31.82 627.26 31.9ZM639.1 14.2H648.08V20.36H639.1V14.2ZM646.06 18.52V16.04H641.14V18.52H646.06ZM638.56 21.8H648.66V23.68H644.54V25.56H648.04V27.42H644.54V29.46H649.14V31.42H637.8V29.46H642.42V27.42H639.02V25.56H642.42V23.68H638.56V21.8ZM631.08 18.84H633.78V16.6C633.04 16.7 632.28 16.78 631.52 16.86L631.1 14.9C633.56 14.7 635.76 14.32 637.7 13.72L638.44 15.68C637.58 15.92 636.68 16.12 635.76 16.28V18.84H637.94V20.82H635.76V21.6C636.64 22.4 637.54 23.26 638.44 24.22L637.26 26C636.68 25.04 636.18 24.24 635.76 23.6V32H633.78V23.92C633.16 25.52 632.4 26.98 631.48 28.32L630.56 25.98C631.9 24.46 632.9 22.74 633.54 20.82H631.08V18.84Z" fill="#025CB9"/>
<rect x="530.5" y="0.5" width="159" height="45" stroke="#025CB9"/>
<path d="M223 110L587 110" stroke="#025CB9"/>
<path d="M633 110L997 110" stroke="#025CB9"/>
<path d="M200.14 102.72H201.9V117H199.56V105.54C198.7 106.32 197.62 106.9 196.3 107.28V104.96C196.94 104.8 197.62 104.52 198.34 104.12C199.06 103.68 199.66 103.22 200.14 102.72Z" fill="#025CB9"/>
<rect x="176.5" y="86.5" width="47" height="47" rx="23.5" stroke="#025CB9"/>
<path d="M59.408 160.512V163.312H63.472V160.512H59.408ZM59.344 164.368C59.168 166.416 58.576 168.112 57.552 169.456L56.672 168.672C57.696 167.248 58.224 165.44 58.256 163.248V155.568H70.176V167.552C70.176 168.672 69.616 169.232 68.496 169.232H66.656L66.352 168.096C66.992 168.128 67.584 168.16 68.128 168.16C68.704 168.16 69.008 167.824 69.008 167.152V164.368H64.656V169.056H63.472V164.368H59.344ZM69.008 163.312V160.512H64.656V163.312H69.008ZM69.008 159.44V156.688H64.656V159.44H69.008ZM63.472 156.688H59.408V159.44H63.472V156.688ZM84.784 158.032H75.648V161.152H84.784V158.032ZM75.648 162.272C75.568 165.136 74.816 167.6 73.376 169.664L72.528 168.896C73.824 167.104 74.48 164.768 74.512 161.904V156.896H79.728C79.44 156.224 79.136 155.6 78.8 155.024L80.032 154.832C80.32 155.44 80.608 156.128 80.896 156.896H85.952V162.272H75.648ZM90.64 169.456H89.2L88.96 168.336C89.408 168.368 89.824 168.4 90.24 168.4C90.624 168.4 90.832 168.192 90.832 167.792V163.888C90.224 164.128 89.6 164.352 88.976 164.544L88.704 163.392C89.424 163.216 90.128 162.992 90.832 162.72V159.104H88.896V158H90.832V154.976H92.016V158H93.632V159.104H92.016V162.224C92.48 162 92.944 161.776 93.392 161.52V162.688C92.944 162.928 92.48 163.152 92.016 163.376V168.096C92.016 168.992 91.552 169.456 90.64 169.456ZM94.88 155.488H101.856V161.04H94.88V155.488ZM100.736 160.096V158.72H96V160.096H100.736ZM96 157.824H100.736V156.432H96V157.824ZM93.76 162.16H102.912V163.184H98.912V164.992H102.256V166.032H98.912V168.096C99.552 168.192 100.304 168.24 101.184 168.24C102.016 168.24 102.736 168.208 103.328 168.16L103.008 169.28C102.368 169.28 101.776 169.264 101.264 169.264C99.152 169.248 97.712 169.04 96.944 168.656C96.336 168.336 95.776 167.728 95.296 166.832C94.912 167.824 94.384 168.736 93.696 169.568L92.848 168.832C94.064 167.36 94.736 165.696 94.864 163.872L95.888 163.984C95.856 164.56 95.776 165.104 95.648 165.648C96.16 166.72 96.752 167.408 97.424 167.712C97.536 167.76 97.664 167.808 97.808 167.856V163.184H93.76V162.16ZM104.928 156.832H111.536C111.248 156.176 110.928 155.584 110.576 155.04L111.856 154.816C112.176 155.424 112.496 156.096 112.784 156.832H119.088V157.936H104.928V156.832ZM114.528 158.416C116.304 159.824 117.792 161.216 118.992 162.624L118.144 163.472C117.088 162.128 115.616 160.704 113.744 159.168L114.528 158.416ZM114.688 161.408L115.744 161.872C114.976 163.344 114.048 164.608 112.944 165.68C114.672 166.928 116.768 167.856 119.264 168.496L118.544 169.568C115.952 168.832 113.792 167.808 112.064 166.464C110.272 167.904 108.096 168.96 105.536 169.632L104.832 168.576C107.36 167.936 109.456 166.976 111.136 165.696C109.968 164.64 109.008 163.424 108.256 162.08L109.248 161.52C109.952 162.832 110.88 163.968 112.016 164.944C113.104 163.92 114 162.752 114.688 161.408ZM109.376 158.432L110.208 159.168C108.992 160.752 107.488 162.144 105.696 163.328L104.96 162.352C106.704 161.232 108.176 159.936 109.376 158.432ZM126.912 154.768L128.112 154.928C127.984 155.408 127.824 155.856 127.632 156.272H132.32V163.328C133.152 162.4 133.76 161.424 134.16 160.432L135.152 161.056C134.384 162.528 133.44 163.792 132.32 164.832V168.24C132.32 169.168 131.888 169.632 131.056 169.632H129.344L129.04 168.528L130.688 168.576C131.008 168.576 131.184 168.368 131.184 167.984V165.776C130.832 166.032 130.496 166.272 130.144 166.496C127.952 167.792 125.2 168.72 121.904 169.296L121.392 168.256C125.568 167.52 128.576 166.448 130.432 165.056L130.656 164.88H121.296V163.824H123.216V156.272H126.432C126.64 155.792 126.8 155.28 126.912 154.768ZM124.368 163.824H131.184V162.208H124.368V163.824ZM124.368 161.216H131.184V159.776H124.368V161.216ZM124.368 158.8H131.184V157.296H124.368V158.8ZM144.176 162.304H142.176V161.184H149.248C149.248 164.576 149.168 166.672 149.008 167.488C148.88 168.736 148.224 169.36 147.056 169.36C146.72 169.36 146.16 169.344 145.36 169.312L145.088 168.224C145.776 168.256 146.368 168.288 146.88 168.288C147.488 168.288 147.824 167.856 147.92 167.008C148.016 166.496 148.08 164.928 148.112 162.304H145.312C145.04 164.064 144.672 165.456 144.192 166.48C143.616 167.6 142.768 168.624 141.632 169.52L140.896 168.576C141.888 167.792 142.64 166.928 143.152 165.968C143.6 165.04 143.952 163.808 144.176 162.304ZM140.304 154.912L141.36 155.392C140.944 156.608 140.432 157.744 139.808 158.832V169.632H138.624V160.608C138.096 161.312 137.52 161.984 136.896 162.624L136.528 161.424C138.256 159.536 139.504 157.36 140.304 154.912ZM143.792 155.088L144.848 155.504C143.92 158.24 142.704 160.32 141.2 161.76L140.304 160.992C141.84 159.536 143.008 157.568 143.792 155.088ZM147.584 154.896C148.288 157.232 149.536 159.136 151.312 160.624L150.544 161.52C148.656 159.952 147.344 157.92 146.608 155.44L147.584 154.896ZM162.032 155.008H163.216C163.216 156.352 163.168 157.616 163.072 158.768C163.92 162.864 165.392 166.128 167.488 168.528L166.656 169.488C164.944 167.312 163.648 164.624 162.752 161.456C162.672 161.904 162.592 162.32 162.512 162.736C161.904 165.488 160.544 167.76 158.416 169.52L157.632 168.576C159.488 167.008 160.736 165.04 161.344 162.656C161.792 160.656 162.032 158.112 162.032 155.008ZM154.592 155.088C155.68 155.904 156.592 156.72 157.328 157.552L156.544 158.352C155.872 157.568 154.944 156.736 153.792 155.872L154.592 155.088ZM152.72 159.824H156.176V166.816C156.752 166.336 157.376 165.792 158.032 165.168L158.32 166.352C157.328 167.296 156.272 168.144 155.152 168.88L154.704 167.856C154.944 167.664 155.072 167.424 155.072 167.168V160.928H152.72V159.824ZM178.624 156.816H174.128V155.68H183.104V156.816H179.792V161.312H182.88V162.384H179.792V167.92H183.424V169.056H173.632V167.92H175.264V159.456H176.384V167.92H178.624V156.816ZM170.656 155.088C171.696 155.92 172.576 156.736 173.296 157.552L172.512 158.352C171.856 157.552 170.976 156.72 169.856 155.84L170.656 155.088ZM168.704 159.824H172.128V166.736C172.64 166.288 173.184 165.776 173.776 165.2L174.08 166.432C173.152 167.328 172.176 168.144 171.136 168.864L170.688 167.824C170.912 167.632 171.024 167.408 171.024 167.152V160.928H168.704V159.824ZM187.648 160.576V160.992C187.552 164.576 186.816 167.424 185.472 169.552L184.624 168.672C185.792 166.816 186.416 164.256 186.512 160.992V156.192C190.64 156.144 194.336 155.776 197.632 155.088L198.208 156.128C195.072 156.768 191.552 157.12 187.648 157.216V159.456H199.168V160.576H187.648ZM197.904 162.816V169.6H196.752V168.848H190.272V169.6H189.12V162.816H197.904ZM190.272 167.728H196.752V163.92H190.272V167.728ZM202.656 159.648H207.424V158.64H208.576V159.648H213.28V160.656H208.576V162.208H215.104V163.216H212.016V164.752H214.416V165.76H212.016V168.272C212.016 169.152 211.536 169.6 210.592 169.6H208.272L208.032 168.512C208.8 168.56 209.52 168.592 210.192 168.592C210.64 168.592 210.864 168.384 210.864 168V165.76H201.824V164.752H210.864V163.216H200.88V162.208H207.424V160.656H202.656V159.648ZM204.528 166.208C205.392 167.04 206.048 167.792 206.496 168.432L205.6 169.056C205.104 168.368 204.432 167.616 203.6 166.784L204.528 166.208ZM203.232 157.072C202.848 157.808 202.4 158.496 201.904 159.104L200.912 158.48C201.84 157.376 202.528 156.16 202.96 154.848L204.048 155.088C203.92 155.44 203.808 155.776 203.68 156.096H207.776V157.072H205.072C205.488 157.632 205.824 158.144 206.08 158.624L205.04 159.008C204.72 158.336 204.32 157.696 203.872 157.072H203.232ZM209.728 157.024C209.456 157.568 209.152 158.048 208.832 158.496L207.872 157.888C208.576 156.96 209.072 155.952 209.392 154.832L210.48 155.056C210.384 155.392 210.272 155.728 210.16 156.048H214.768V157.024H211.872C212.304 157.584 212.64 158.112 212.88 158.592L211.888 158.96C211.552 158.288 211.152 157.648 210.672 157.024H209.728ZM219.952 154.832L220.96 155.296C220.128 157.056 218.8 158.624 216.944 159.984L216.608 158.88C218.144 157.696 219.248 156.352 219.952 154.832ZM220.544 158.512L221.536 158.976C221.152 159.84 220.672 160.656 220.096 161.424V169.52H218.992V162.704C218.416 163.312 217.776 163.872 217.088 164.4L216.752 163.296C218.48 161.904 219.744 160.304 220.544 158.512ZM225.936 154.896H227.04V156.64H230.64V157.68H227.04V159.68H231.296V160.736H221.76V159.68H225.936V157.68H222.368V156.64H225.936V154.896ZM221.84 162.688H228.048V161.504H229.2V162.688H231.072V163.76H229.2V167.872C229.2 168.912 228.672 169.44 227.648 169.44H225.376L225.12 168.336C225.856 168.384 226.576 168.416 227.248 168.416C227.776 168.416 228.048 168.128 228.048 167.584V163.76H221.84V162.688ZM223.728 164.384C224.624 165.296 225.312 166.096 225.792 166.768L224.896 167.408C224.384 166.672 223.696 165.84 222.832 164.944L223.728 164.384ZM244.576 161.248V164.384H236.592V165.488H245.312V169.6H244.176V168.928H236.592V169.584H235.44V161.248H244.576ZM236.592 167.904H244.176V166.416H236.592V167.904ZM236.592 163.456H243.456V162.176H236.592V163.456ZM246.784 159.312V162.208H245.664V160.304H234.336V162.208H233.216V159.312H239.552C239.392 158.928 239.232 158.592 239.056 158.272L240.176 158.08L240.08 158.016C240.848 157.056 241.392 156.016 241.744 154.864L242.848 155.104C242.736 155.44 242.624 155.76 242.496 156.08H247.12V157.088H244.272C244.608 157.536 244.88 157.952 245.072 158.336L244.048 158.72C243.76 158.144 243.424 157.6 243.04 157.088H242.032C241.744 157.632 241.408 158.144 241.056 158.624L240.192 158.096C240.368 158.464 240.544 158.864 240.704 159.312H246.784ZM235.136 157.088C234.752 157.712 234.336 158.288 233.856 158.816L232.848 158.176C233.808 157.184 234.512 156.064 234.96 154.848L236.064 155.088C235.936 155.44 235.792 155.76 235.664 156.08H239.952V157.088H237.264C237.616 157.568 237.92 158.032 238.144 158.464L237.088 158.864C236.8 158.256 236.448 157.664 236.048 157.088H235.136ZM254.656 155.568H262.48V162.96H259.152V164.848H262.752V165.936H259.152V168.016H263.344V169.12H253.712V168.016H258V165.936H254.384V164.848H258V162.96H254.656V155.568ZM261.376 161.936V159.776H259.152V161.936H261.376ZM258 161.936V159.776H255.76V161.936H258ZM255.76 158.768H258V156.592H255.76V158.768ZM259.152 156.592V158.768H261.376V156.592H259.152ZM249.008 160.864H250.752V157.072H248.784V155.984H253.888V157.072H251.936V160.864H253.696V161.968H251.936V165.6C252.544 165.392 253.12 165.168 253.696 164.912V166.032C252.224 166.64 250.64 167.152 248.944 167.568L248.656 166.464C249.36 166.336 250.064 166.176 250.752 165.984V161.968H249.008V160.864ZM277.392 160.736V166.704H276.256V161.792H267.76V166.896H266.624V160.736H277.392ZM267.584 155.52H276.432V159.536H267.584V155.52ZM275.312 158.528V156.544H268.704V158.528H275.312ZM271.568 162.832L272.736 162.928C272.512 165.28 272.016 166.864 271.248 167.696C270.416 168.688 268.512 169.328 265.536 169.6L265.088 168.56C267.68 168.4 269.408 167.888 270.256 167.008C270.992 166.192 271.44 164.8 271.568 162.832ZM273.152 166.544C275.232 167.136 277.136 167.856 278.864 168.688L278.24 169.648C276.4 168.688 274.512 167.952 272.576 167.408L273.152 166.544ZM283.92 163.504V165.344H287.472V163.504H283.92ZM287.472 166.4H283.92V167.344H282.8V159.584H287.472V157.984H288.624V159.584H293.344V167.296H292.224V166.4H288.624V169.648H287.472V166.4ZM288.624 165.344H292.224V163.504H288.624V165.344ZM292.224 162.48V160.64H288.624V162.48H292.224ZM287.472 160.64H283.92V162.48H287.472V160.64ZM294.64 156.144V158.944H293.52V157.184H282.416V159.024H281.296V156.144H287.392C287.232 155.728 287.072 155.344 286.896 154.992L288.112 154.784C288.272 155.184 288.416 155.632 288.576 156.144H294.64ZM300.176 161.456V169.6H299.072V161.584C298.56 163.216 297.888 164.688 297.072 166L296.592 164.832C297.728 163.168 298.544 161.28 299.024 159.168H296.864V158.064H299.072V154.944H300.176V158.064H302.064V159.168H300.176V160.208C300.944 161.088 301.712 162.08 302.512 163.2L301.872 164.176C301.216 163.056 300.656 162.144 300.176 161.456ZM302.464 156.688H306.464C306.24 156.112 305.984 155.584 305.696 155.104L306.88 154.912C307.12 155.424 307.36 156.016 307.584 156.688H311.136V157.728H306.752C305.872 159.28 305.104 160.384 304.432 161.04C305.456 160.976 306.464 160.912 307.456 160.832C307.872 160.256 308.24 159.664 308.56 159.024L309.488 159.52C307.888 162.688 305.552 164.864 302.448 166.016L301.824 165.056C303.76 164.368 305.376 163.296 306.688 161.824C305.568 161.888 304.368 161.952 303.104 162L302.864 161.056C302.96 161.024 303.024 160.992 303.088 160.96C303.728 160.544 304.544 159.472 305.568 157.728H302.464V156.688ZM307.584 166.352C306.048 167.728 304.272 168.784 302.224 169.488L301.6 168.496C305.36 167.264 308.176 164.896 310.048 161.392L311.024 161.904C310.256 163.344 309.344 164.592 308.304 165.648C309.456 166.672 310.448 167.68 311.248 168.688L310.416 169.52C309.712 168.528 308.768 167.472 307.584 166.352ZM314.016 155.184C315.12 156.016 316.048 156.848 316.8 157.68L315.984 158.48C315.312 157.68 314.4 156.832 313.232 155.936L314.016 155.184ZM323.376 169.312C322.496 169.312 321.536 169.296 320.512 169.28C319.472 169.264 318.624 169.168 317.984 168.992C317.344 168.8 316.768 168.4 316.272 167.824C316.048 167.552 315.84 167.424 315.648 167.424C315.264 167.424 314.624 168.16 313.744 169.632L312.88 168.848C313.728 167.504 314.48 166.688 315.136 166.4V161.536H312.864V160.48H316.208V166.464C316.336 166.56 316.464 166.672 316.608 166.832C316.992 167.296 317.408 167.632 317.856 167.84C318.368 168.064 319.088 168.192 320.048 168.224C320.896 168.24 321.952 168.256 323.216 168.256C323.952 168.256 324.72 168.24 325.504 168.224C326.272 168.208 326.864 168.192 327.28 168.16L327.008 169.312H323.376ZM320.512 156.72C321.184 157.12 321.808 157.52 322.352 157.92C323.184 157.488 323.952 157.008 324.656 156.464H317.552V155.488H326.208V156.32C325.248 157.152 324.208 157.872 323.088 158.48L323.344 158.688H326.512V165.84C326.512 166.656 326.064 167.072 325.168 167.072H323.84L323.584 166.096L324.848 166.144C325.232 166.144 325.424 165.952 325.424 165.6V164.4H322.736V167.152H321.664V164.4H318.992V167.2H317.904V158.688H321.904C321.296 158.256 320.592 157.824 319.808 157.408L320.512 156.72ZM318.992 162.048V163.456H321.664V162.048H318.992ZM322.736 162.048V163.456H325.424V162.048H322.736ZM325.424 161.088V159.648H322.736V161.088H325.424ZM321.664 161.088V159.648H318.992V161.088H321.664ZM329.968 155.152C331.056 156 331.968 156.848 332.704 157.68L331.872 158.528C331.216 157.712 330.32 156.832 329.168 155.904L329.968 155.152ZM339.696 169.312C338.784 169.312 337.792 169.296 336.72 169.28C335.632 169.264 334.752 169.168 334.096 168.992C333.424 168.8 332.832 168.4 332.32 167.824C332.096 167.552 331.872 167.424 331.664 167.424C331.28 167.424 330.624 168.16 329.728 169.664L328.864 168.896C329.728 167.52 330.48 166.688 331.152 166.4V161.552H328.848V160.464H332.256V166.464C332.384 166.56 332.528 166.672 332.672 166.832C333.088 167.28 333.52 167.616 333.984 167.84C334.496 168.048 335.264 168.16 336.256 168.192C337.136 168.208 338.24 168.224 339.552 168.224C340.256 168.224 340.96 168.208 341.696 168.208C342.416 168.192 342.976 168.176 343.36 168.144L343.072 169.312H339.696ZM339.216 167.168H336.944L336.688 166.064C337.424 166.112 338.144 166.144 338.816 166.144C339.264 166.144 339.504 165.92 339.504 165.488V158.688H333.456V157.552H339.504V154.96H340.672V157.552H343.04V158.688H340.672V165.76C340.672 166.688 340.176 167.168 339.216 167.168ZM335.2 160.112C336.224 161.296 337.008 162.336 337.552 163.232L336.624 163.872C336.048 162.912 335.28 161.856 334.304 160.688L335.2 160.112Z" fill="black"/>
<path d="M610.22 102.44C611.6 102.44 612.74 102.84 613.64 103.64C614.52 104.44 614.96 105.46 614.96 106.74C614.96 107.98 614.48 109.1 613.56 110.12C613 110.72 612 111.48 610.6 112.42C609.14 113.38 608.26 114.22 607.94 114.94H614.98V117H605.02C605.02 115.54 605.48 114.28 606.44 113.2C606.96 112.6 608.06 111.72 609.72 110.58C610.64 109.94 611.28 109.4 611.68 108.98C612.3 108.28 612.62 107.52 612.62 106.72C612.62 105.94 612.4 105.36 612 104.98C611.58 104.6 610.96 104.42 610.14 104.42C609.26 104.42 608.6 104.72 608.16 105.32C607.72 105.88 607.48 106.74 607.44 107.86H605.1C605.12 106.26 605.58 104.98 606.5 104C607.44 102.96 608.68 102.44 610.22 102.44Z" fill="#025CB9"/>
<rect x="586.5" y="86.5" width="47" height="47" rx="23.5" stroke="#025CB9"/>
<path d="M501.408 160.512V163.312H505.472V160.512H501.408ZM501.344 164.368C501.168 166.416 500.576 168.112 499.552 169.456L498.672 168.672C499.696 167.248 500.224 165.44 500.256 163.248V155.568H512.176V167.552C512.176 168.672 511.616 169.232 510.496 169.232H508.656L508.352 168.096C508.992 168.128 509.584 168.16 510.128 168.16C510.704 168.16 511.008 167.824 511.008 167.152V164.368H506.656V169.056H505.472V164.368H501.344ZM511.008 163.312V160.512H506.656V163.312H511.008ZM511.008 159.44V156.688H506.656V159.44H511.008ZM505.472 156.688H501.408V159.44H505.472V156.688ZM526.784 158.032H517.648V161.152H526.784V158.032ZM517.648 162.272C517.568 165.136 516.816 167.6 515.376 169.664L514.528 168.896C515.824 167.104 516.48 164.768 516.512 161.904V156.896H521.728C521.44 156.224 521.136 155.6 520.8 155.024L522.032 154.832C522.32 155.44 522.608 156.128 522.896 156.896H527.952V162.272H517.648ZM537.44 154.976H538.624V157.376H543.696V166.32H542.56V165.344H538.624V169.536H537.44V165.344H533.44V166.432H532.304V157.376H537.44V154.976ZM533.44 164.256H537.44V161.856H533.44V164.256ZM538.624 164.256H542.56V161.856H538.624V164.256ZM533.44 160.816H537.44V158.448H533.44V160.816ZM538.624 160.816H542.56V158.448H538.624V160.816ZM555.824 154.928H556.928V155.968H560.896V156.912H556.928V157.984H560.32V158.912H556.928V160H561.296V160.96H551.504V160H555.824V158.912H552.592V157.984H555.824V156.912H551.952V155.968H555.824V154.928ZM553.824 164.992V166.16H558.992V164.992H553.824ZM558.992 164.096V162.912H553.824V164.096H558.992ZM553.824 167.056V169.6H552.72V161.968H560.096V168.208C560.096 169.072 559.632 169.504 558.736 169.504H557.392L557.12 168.48L558.4 168.528C558.784 168.528 558.992 168.336 558.992 167.968V167.056H553.824ZM548.608 155.104C549.68 155.904 550.576 156.72 551.312 157.536L550.528 158.336C549.856 157.568 548.944 156.752 547.792 155.888L548.608 155.104ZM546.672 159.824H550.064V166.848C550.544 166.4 551.04 165.904 551.584 165.344L551.888 166.56C550.992 167.488 550.032 168.32 549.04 169.04L548.592 168.016C548.832 167.792 548.96 167.552 548.96 167.28V160.928H546.672V159.824ZM567.472 156.56H571.664V154.928H572.832V156.56H577.232V157.664H572.832V159.184H576.576V163.712H572.768C572.64 165.152 572.368 166.256 571.936 167.056C573.536 167.936 575.392 168.432 577.488 168.544L577.2 169.648C574.96 169.504 572.992 168.944 571.296 167.952C570.432 168.832 569.072 169.408 567.216 169.68L566.72 168.624C568.352 168.448 569.552 168 570.288 167.296C569.344 166.624 568.496 165.808 567.76 164.864L568.64 164.256C569.328 165.12 570.096 165.84 570.944 166.448C571.28 165.744 571.504 164.832 571.6 163.712H568.016V159.184H571.664V157.664H567.472V156.56ZM575.488 162.672V160.208H572.832V162.288C572.832 162.416 572.816 162.544 572.816 162.672H575.488ZM571.648 162.672C571.648 162.544 571.664 162.416 571.664 162.288V160.208H569.104V162.672H571.648ZM564.544 160.704C564.032 161.424 563.488 162.112 562.88 162.768L562.496 161.552C564.16 159.6 565.36 157.36 566.096 154.832L567.184 155.328C566.784 156.576 566.288 157.76 565.696 158.864V169.632H564.544V160.704ZM581.408 160.512V163.312H585.472V160.512H581.408ZM581.344 164.368C581.168 166.416 580.576 168.112 579.552 169.456L578.672 168.672C579.696 167.248 580.224 165.44 580.256 163.248V155.568H592.176V167.552C592.176 168.672 591.616 169.232 590.496 169.232H588.656L588.352 168.096C588.992 168.128 589.584 168.16 590.128 168.16C590.704 168.16 591.008 167.824 591.008 167.152V164.368H586.656V169.056H585.472V164.368H581.344ZM591.008 163.312V160.512H586.656V163.312H591.008ZM591.008 159.44V156.688H586.656V159.44H591.008ZM585.472 156.688H581.408V159.44H585.472V156.688ZM596.384 155.856H607.776V156.976H596.384V155.856ZM594.848 160.32H609.2V161.472H601.52C600.048 164.496 598.752 166.592 597.664 167.776C600.544 167.616 603.408 167.344 606.272 166.96C605.696 165.936 605.056 164.88 604.352 163.792L605.28 163.216C606.752 165.424 607.888 167.36 608.688 168.992L607.664 169.712C607.408 169.152 607.136 168.592 606.832 168.016C603.584 168.432 600.048 168.752 596.208 169.008L595.904 167.84C596.032 167.808 596.112 167.76 596.176 167.728C597.2 166.96 598.56 164.88 600.24 161.472H594.848V160.32ZM611.328 164.544H617.456V163.456H618.576V164.544H624.656V165.568H619.552C620.768 166.672 622.624 167.536 625.12 168.176L624.608 169.248C621.808 168.352 619.792 167.168 618.576 165.728V169.6H617.456V165.792C616.32 167.12 614.336 168.272 611.488 169.248L610.848 168.208C613.616 167.44 615.52 166.56 616.544 165.568H611.328V164.544ZM617.12 154.88H618.224V155.776H624.128V156.768H618.224V157.808H623.072V162.992H612.976V157.808H617.12V154.88ZM621.984 162.016V160.864H614.064V162.016H621.984ZM614.064 159.92H621.984V158.784H614.064V159.92ZM626.88 155.568H641.12V156.688H634.704C634.576 157.392 634.368 158.08 634.112 158.736H640.256V169.648H639.152V168.848H628.896V169.648H627.792V158.736H632.944C633.2 158.064 633.408 157.392 633.536 156.688H626.88V155.568ZM628.896 167.792H631.104V159.776H628.896V167.792ZM632.176 167.792H635.824V165.744H632.176V167.792ZM636.896 167.792H639.152V159.776H636.896V167.792ZM632.176 164.736H635.824V162.784H632.176V164.736ZM632.176 161.76H635.824V159.776H632.176V161.76ZM646.848 154.752C647.376 155.552 647.888 156.432 648.368 157.392L647.328 157.904C646.848 156.912 646.336 156.032 645.792 155.264L646.848 154.752ZM652.192 159.056H648.08V160.608C648.064 161.408 648.016 162.144 647.936 162.816H652.192V159.056ZM652.192 163.92H647.776C647.584 164.912 647.312 165.76 646.976 166.48C646.304 167.84 645.216 168.896 643.696 169.648L643.024 168.592C644.464 167.856 645.488 166.864 646.064 165.616C646.272 165.104 646.448 164.544 646.576 163.92H642.88V162.816H646.752C646.848 162.128 646.896 161.392 646.912 160.608V159.056H643.536V157.952H651.616C652.224 156.96 652.736 155.888 653.184 154.752L654.416 155.2C653.968 156.224 653.472 157.152 652.928 157.952H656.512V159.056H653.376V162.816H657.136V163.92H653.376V169.52H652.192V163.92ZM660.048 155.184C661.12 156.016 662.032 156.832 662.768 157.664L661.936 158.48C661.296 157.696 660.4 156.848 659.264 155.936L660.048 155.184ZM669.344 169.312C668.48 169.312 667.536 169.296 666.528 169.28C665.504 169.264 664.688 169.168 664.048 168.992C663.424 168.8 662.864 168.4 662.368 167.824C662.16 167.552 661.952 167.424 661.76 167.424C661.376 167.424 660.752 168.16 659.872 169.632L659.008 168.848C659.856 167.504 660.608 166.688 661.264 166.4V161.536H658.976V160.48H662.336V166.464C662.464 166.56 662.592 166.688 662.72 166.832C663.104 167.296 663.504 167.632 663.952 167.84C664.432 168.064 665.152 168.192 666.08 168.224C666.912 168.24 667.952 168.256 669.184 168.256C669.936 168.256 670.704 168.24 671.488 168.224C672.256 168.208 672.864 168.192 673.28 168.16L673.008 169.312H669.344ZM663.872 157.456H665.76V154.912H666.864V157.456H669.392V154.928H670.512V157.456H672.544V158.528H670.512V161.712H673.056V162.8H670.512V167.392H669.392V162.8H666.544C666.128 164.72 665.296 166.144 664.064 167.072L663.376 166.144C664.384 165.424 665.072 164.304 665.424 162.8H663.312V161.712H665.632C665.712 161.104 665.76 160.464 665.76 159.792V158.528H663.872V157.456ZM666.864 158.528V159.536C666.864 160.304 666.816 161.04 666.736 161.712H669.392V158.528H666.864ZM680.8 155.952H688.464V157.088H680.8V155.952ZM680.368 160.016H689.168V161.152H686.576V168.144C686.576 169.072 686.048 169.536 685.024 169.536H682.672L682.432 168.4C683.2 168.448 683.92 168.48 684.624 168.48C685.136 168.48 685.408 168.272 685.408 167.856V161.152H680.368V160.016ZM678.272 155.072L679.312 155.552C678.416 157.328 676.976 158.896 674.992 160.256L674.656 159.104C676.32 157.92 677.52 156.576 678.272 155.072ZM679.024 158.72L680.064 159.2C679.6 160.096 679.024 160.96 678.32 161.76V169.6H677.184V162.928C676.544 163.504 675.856 164.064 675.088 164.592L674.752 163.44C676.704 162.064 678.128 160.496 679.024 158.72ZM698.32 154.944H699.424V169.6H698.32V166.08H695.168V165.024H698.32V162.256H696.064V161.2H698.32V158.544H695.808V157.504H698.32V154.944ZM692.48 169.456H691.008L690.752 168.336C691.216 168.368 691.664 168.4 692.08 168.4C692.528 168.4 692.768 168.208 692.768 167.824V164C692.192 164.224 691.6 164.448 691.008 164.64L690.736 163.472C691.424 163.296 692.096 163.088 692.768 162.832V159.104H691.04V158H692.768V154.976H693.888V158H695.312V159.104H693.888V162.368C694.416 162.112 694.928 161.856 695.44 161.568V162.752C694.928 163.024 694.416 163.28 693.888 163.52V168.112C693.888 169.008 693.408 169.456 692.48 169.456ZM701.328 154.944H702.448V157.504H705.184V158.544H702.448V161.2H704.848V162.256H702.448V165.024H705.296V166.08H702.448V169.6H701.328V154.944ZM707.376 155.6H712.224V156.512C711.728 157.952 711.152 159.456 710.48 161.024C711.52 162.432 712.08 163.696 712.16 164.848C712.16 165.536 711.984 166.032 711.664 166.336C711.216 166.72 710.448 166.912 709.328 166.928L708.944 165.76C709.2 165.792 709.408 165.824 709.568 165.824C710.144 165.792 710.544 165.696 710.736 165.568C710.928 165.424 711.04 165.184 711.04 164.848C711.04 163.76 710.464 162.544 709.328 161.2C710.096 159.536 710.672 158.032 711.088 156.688H708.496V169.616H707.376V155.6ZM715.696 155.04H716.832C716.832 156.624 716.752 158.08 716.624 159.392C717.552 163.232 719.152 166.256 721.424 168.48L720.592 169.456C718.672 167.424 717.232 164.912 716.272 161.92C716.208 162.208 716.16 162.48 716.096 162.752C715.488 165.504 714.064 167.76 711.824 169.52L711.056 168.608C713.008 167.04 714.304 165.056 714.944 162.688C715.424 160.688 715.68 158.144 715.696 155.04Z" fill="black"/>
<path d="M405.6 110L401 105.4L402.4 104L408.4 110L402.4 116L401 114.6L405.6 110Z" fill="#025CB9"/>
<path d="M815.6 110L811 105.4L812.4 104L818.4 110L812.4 116L811 114.6L815.6 110Z" fill="#025CB9"/>
<path d="M1020.14 102.44C1021.58 102.44 1022.76 102.78 1023.64 103.48C1024.5 104.18 1024.94 105.14 1024.94 106.38C1024.94 107.94 1024.14 108.98 1022.56 109.5C1023.4 109.76 1024.06 110.14 1024.5 110.66C1024.98 111.2 1025.22 111.9 1025.22 112.74C1025.22 114.06 1024.76 115.14 1023.84 115.98C1022.88 116.84 1021.62 117.28 1020.06 117.28C1018.58 117.28 1017.38 116.9 1016.48 116.14C1015.48 115.3 1014.92 114.06 1014.8 112.46H1017.18C1017.22 113.38 1017.5 114.1 1018.06 114.6C1018.56 115.06 1019.22 115.3 1020.04 115.3C1020.94 115.3 1021.66 115.04 1022.18 114.54C1022.64 114.08 1022.88 113.52 1022.88 112.84C1022.88 112.02 1022.62 111.42 1022.14 111.04C1021.66 110.64 1020.96 110.46 1020.04 110.46H1019.04V108.7H1020.04C1020.88 108.7 1021.52 108.52 1021.96 108.16C1022.38 107.8 1022.6 107.26 1022.6 106.56C1022.6 105.86 1022.4 105.34 1022.02 104.98C1021.6 104.62 1020.98 104.44 1020.16 104.44C1019.32 104.44 1018.68 104.64 1018.22 105.06C1017.74 105.48 1017.46 106.12 1017.38 106.98H1015.08C1015.2 105.54 1015.72 104.42 1016.68 103.62C1017.58 102.82 1018.74 102.44 1020.14 102.44Z" fill="#025CB9"/>
<rect x="996.5" y="86.5" width="47" height="47" rx="23.5" stroke="#025CB9"/>
<path d="M838.408 160.512V163.312H842.472V160.512H838.408ZM838.344 164.368C838.168 166.416 837.576 168.112 836.552 169.456L835.672 168.672C836.696 167.248 837.224 165.44 837.256 163.248V155.568H849.176V167.552C849.176 168.672 848.616 169.232 847.496 169.232H845.656L845.352 168.096C845.992 168.128 846.584 168.16 847.128 168.16C847.704 168.16 848.008 167.824 848.008 167.152V164.368H843.656V169.056H842.472V164.368H838.344ZM848.008 163.312V160.512H843.656V163.312H848.008ZM848.008 159.44V156.688H843.656V159.44H848.008ZM842.472 156.688H838.408V159.44H842.472V156.688ZM863.784 158.032H854.648V161.152H863.784V158.032ZM854.648 162.272C854.568 165.136 853.816 167.6 852.376 169.664L851.528 168.896C852.824 167.104 853.48 164.768 853.512 161.904V156.896H858.728C858.44 156.224 858.136 155.6 857.8 155.024L859.032 154.832C859.32 155.44 859.608 156.128 859.896 156.896H864.952V162.272H854.648ZM870.584 161.664H879.48V165.552H870.584V161.664ZM878.328 164.528V162.672H871.736V164.528H878.328ZM872.008 165.904C872.552 166.496 873.048 167.2 873.496 168.032H876.664C877.16 167.328 877.592 166.592 877.96 165.824L879.048 166.192C878.696 166.88 878.312 167.488 877.896 168.032H881.832V169.136H868.136V168.032H872.296C871.912 167.424 871.464 166.848 870.92 166.304L872.008 165.904ZM869.448 157.12C870.312 157.728 871.032 158.32 871.64 158.912C872.376 158.208 872.968 157.424 873.416 156.592H869.416V155.536H874.728V156.4C874.28 157.456 873.656 158.416 872.856 159.264H877.784C876.664 158.144 875.8 156.896 875.192 155.552L876.136 155.024C876.424 155.696 876.792 156.336 877.224 156.944C877.928 156.432 878.52 155.856 879.016 155.216L879.832 155.936C879.272 156.624 878.616 157.232 877.864 157.76C878.216 158.192 878.616 158.592 879.048 158.976C879.832 158.4 880.488 157.76 881.032 157.056L881.832 157.776C881.288 158.48 880.632 159.12 879.88 159.664C880.68 160.272 881.56 160.832 882.536 161.312L881.784 162.192C880.392 161.44 879.192 160.592 878.184 159.648V160.32H872.344V159.776C871.288 160.736 869.976 161.536 868.408 162.192L867.72 161.296C868.904 160.816 869.944 160.24 870.84 159.584C870.248 159.024 869.528 158.448 868.68 157.856L869.448 157.12ZM885.752 155.536H894.984V160.736H897.864V161.776H891.48V163.6C891.864 164.048 892.264 164.464 892.712 164.864C893.848 164.224 894.84 163.312 895.672 162.128L896.552 162.864C895.656 164.016 894.648 164.896 893.496 165.504C894.744 166.48 896.216 167.344 897.912 168.08L897.336 169.104C894.872 167.952 892.92 166.544 891.48 164.88V168.176C891.48 169.136 891.048 169.616 890.216 169.616H888.376L888.136 168.528C888.728 168.576 889.288 168.608 889.832 168.608C890.152 168.608 890.328 168.368 890.328 167.904V164.976C888.68 166.48 886.712 167.824 884.44 169.04L883.976 167.968C886.44 166.8 888.552 165.408 890.328 163.776V161.776H884.152V160.736H893.816V159.184H886.296V158.176H893.816V156.576H885.752V155.536ZM885.88 162.384C886.856 163.056 887.672 163.744 888.328 164.416L887.592 165.168C886.984 164.528 886.168 163.84 885.112 163.12L885.88 162.384ZM901.384 155.856H912.776V156.976H901.384V155.856ZM899.848 160.32H914.2V161.472H906.52C905.048 164.496 903.752 166.592 902.664 167.776C905.544 167.616 908.408 167.344 911.272 166.96C910.696 165.936 910.056 164.88 909.352 163.792L910.28 163.216C911.752 165.424 912.888 167.36 913.688 168.992L912.664 169.712C912.408 169.152 912.136 168.592 911.832 168.016C908.584 168.432 905.048 168.752 901.208 169.008L900.904 167.84C901.032 167.808 901.112 167.76 901.176 167.728C902.2 166.96 903.56 164.88 905.24 161.472H899.848V160.32ZM916.328 164.544H922.456V163.456H923.576V164.544H929.656V165.568H924.552C925.768 166.672 927.624 167.536 930.12 168.176L929.608 169.248C926.808 168.352 924.792 167.168 923.576 165.728V169.6H922.456V165.792C921.32 167.12 919.336 168.272 916.488 169.248L915.848 168.208C918.616 167.44 920.52 166.56 921.544 165.568H916.328V164.544ZM922.12 154.88H923.224V155.776H929.128V156.768H923.224V157.808H928.072V162.992H917.976V157.808H922.12V154.88ZM926.984 162.016V160.864H919.064V162.016H926.984ZM919.064 159.92H926.984V158.784H919.064V159.92ZM931.88 155.568H946.12V156.688H939.704C939.576 157.392 939.368 158.08 939.112 158.736H945.256V169.648H944.152V168.848H933.896V169.648H932.792V158.736H937.944C938.2 158.064 938.408 157.392 938.536 156.688H931.88V155.568ZM933.896 167.792H936.104V159.776H933.896V167.792ZM937.176 167.792H940.824V165.744H937.176V167.792ZM941.896 167.792H944.152V159.776H941.896V167.792ZM937.176 164.736H940.824V162.784H937.176V164.736ZM937.176 161.76H940.824V159.776H937.176V161.76ZM951.848 154.752C952.376 155.552 952.888 156.432 953.368 157.392L952.328 157.904C951.848 156.912 951.336 156.032 950.792 155.264L951.848 154.752ZM957.192 159.056H953.08V160.608C953.064 161.408 953.016 162.144 952.936 162.816H957.192V159.056ZM957.192 163.92H952.776C952.584 164.912 952.312 165.76 951.976 166.48C951.304 167.84 950.216 168.896 948.696 169.648L948.024 168.592C949.464 167.856 950.488 166.864 951.064 165.616C951.272 165.104 951.448 164.544 951.576 163.92H947.88V162.816H951.752C951.848 162.128 951.896 161.392 951.912 160.608V159.056H948.536V157.952H956.616C957.224 156.96 957.736 155.888 958.184 154.752L959.416 155.2C958.968 156.224 958.472 157.152 957.928 157.952H961.512V159.056H958.376V162.816H962.136V163.92H958.376V169.52H957.192V163.92ZM968.744 162.384H972.408V159.408H973.576V162.384H977.4V163.504H973.576V167.92H978.12V169.056H968.088V167.92H972.408V163.504H968.744V162.384ZM966.168 163.088C965.576 163.696 964.952 164.288 964.28 164.848L963.56 163.904C965.56 162.256 967.112 160.368 968.232 158.24H964.12V157.104H968.776C969.096 156.368 969.384 155.6 969.608 154.816L970.808 154.96C970.584 155.696 970.344 156.416 970.056 157.104H978.104V158.24H969.544C968.92 159.504 968.168 160.688 967.304 161.776V169.648H966.168V163.088ZM980.12 156.336H982.824V154.864H983.992V156.336H990.008V154.864H991.176V156.336H993.88V157.424H991.176V164.752H994.184V165.824H979.832V164.752H982.824V157.424H980.12V156.336ZM983.992 164.752H990.008V162.928H983.992V164.752ZM983.992 161.936H990.008V160.16H983.992V161.936ZM983.992 159.168H990.008V157.424H983.992V159.168ZM984.824 166.208L985.64 166.944C984.328 167.936 982.712 168.8 980.792 169.552L980.072 168.624C981.96 167.92 983.544 167.12 984.824 166.208ZM989.048 166.256C990.84 166.896 992.472 167.664 993.944 168.576L993.304 169.552C991.736 168.528 990.12 167.712 988.472 167.12L989.048 166.256ZM1002.41 154.864H1003.59V157.744H1009.34V165.264H1008.18V164.256H1003.59V169.712H1002.41V164.256H997.832V165.264H996.68V157.744H1002.41V154.864ZM997.832 163.136H1002.41V158.864H997.832V163.136ZM1003.59 163.136H1008.18V158.864H1003.59V163.136ZM1014.58 161.664H1023.48V165.552H1014.58V161.664ZM1022.33 164.528V162.672H1015.74V164.528H1022.33ZM1016.01 165.904C1016.55 166.496 1017.05 167.2 1017.5 168.032H1020.66C1021.16 167.328 1021.59 166.592 1021.96 165.824L1023.05 166.192C1022.7 166.88 1022.31 167.488 1021.9 168.032H1025.83V169.136H1012.14V168.032H1016.3C1015.91 167.424 1015.46 166.848 1014.92 166.304L1016.01 165.904ZM1013.45 157.12C1014.31 157.728 1015.03 158.32 1015.64 158.912C1016.38 158.208 1016.97 157.424 1017.42 156.592H1013.42V155.536H1018.73V156.4C1018.28 157.456 1017.66 158.416 1016.86 159.264H1021.78C1020.66 158.144 1019.8 156.896 1019.19 155.552L1020.14 155.024C1020.42 155.696 1020.79 156.336 1021.22 156.944C1021.93 156.432 1022.52 155.856 1023.02 155.216L1023.83 155.936C1023.27 156.624 1022.62 157.232 1021.86 157.76C1022.22 158.192 1022.62 158.592 1023.05 158.976C1023.83 158.4 1024.49 157.76 1025.03 157.056L1025.83 157.776C1025.29 158.48 1024.63 159.12 1023.88 159.664C1024.68 160.272 1025.56 160.832 1026.54 161.312L1025.78 162.192C1024.39 161.44 1023.19 160.592 1022.18 159.648V160.32H1016.34V159.776C1015.29 160.736 1013.98 161.536 1012.41 162.192L1011.72 161.296C1012.9 160.816 1013.94 160.24 1014.84 159.584C1014.25 159.024 1013.53 158.448 1012.68 157.856L1013.45 157.12ZM1029.75 155.536H1038.98V160.736H1041.86V161.776H1035.48V163.6C1035.86 164.048 1036.26 164.464 1036.71 164.864C1037.85 164.224 1038.84 163.312 1039.67 162.128L1040.55 162.864C1039.66 164.016 1038.65 164.896 1037.5 165.504C1038.74 166.48 1040.22 167.344 1041.91 168.08L1041.34 169.104C1038.87 167.952 1036.92 166.544 1035.48 164.88V168.176C1035.48 169.136 1035.05 169.616 1034.22 169.616H1032.38L1032.14 168.528C1032.73 168.576 1033.29 168.608 1033.83 168.608C1034.15 168.608 1034.33 168.368 1034.33 167.904V164.976C1032.68 166.48 1030.71 167.824 1028.44 169.04L1027.98 167.968C1030.44 166.8 1032.55 165.408 1034.33 163.776V161.776H1028.15V160.736H1037.82V159.184H1030.3V158.176H1037.82V156.576H1029.75V155.536ZM1029.88 162.384C1030.86 163.056 1031.67 163.744 1032.33 164.416L1031.59 165.168C1030.98 164.528 1030.17 163.84 1029.11 163.12L1029.88 162.384ZM1048.47 156.56H1052.66V154.928H1053.83V156.56H1058.23V157.664H1053.83V159.184H1057.58V163.712H1053.77C1053.64 165.152 1053.37 166.256 1052.94 167.056C1054.54 167.936 1056.39 168.432 1058.49 168.544L1058.2 169.648C1055.96 169.504 1053.99 168.944 1052.3 167.952C1051.43 168.832 1050.07 169.408 1048.22 169.68L1047.72 168.624C1049.35 168.448 1050.55 168 1051.29 167.296C1050.34 166.624 1049.5 165.808 1048.76 164.864L1049.64 164.256C1050.33 165.12 1051.1 165.84 1051.94 166.448C1052.28 165.744 1052.5 164.832 1052.6 163.712H1049.02V159.184H1052.66V157.664H1048.47V156.56ZM1056.49 162.672V160.208H1053.83V162.288C1053.83 162.416 1053.82 162.544 1053.82 162.672H1056.49ZM1052.65 162.672C1052.65 162.544 1052.66 162.416 1052.66 162.288V160.208H1050.1V162.672H1052.65ZM1045.54 160.704C1045.03 161.424 1044.49 162.112 1043.88 162.768L1043.5 161.552C1045.16 159.6 1046.36 157.36 1047.1 154.832L1048.18 155.328C1047.78 156.576 1047.29 157.76 1046.7 158.864V169.632H1045.54V160.704ZM1062.41 160.512V163.312H1066.47V160.512H1062.41ZM1062.34 164.368C1062.17 166.416 1061.58 168.112 1060.55 169.456L1059.67 168.672C1060.7 167.248 1061.22 165.44 1061.26 163.248V155.568H1073.18V167.552C1073.18 168.672 1072.62 169.232 1071.5 169.232H1069.66L1069.35 168.096C1069.99 168.128 1070.58 168.16 1071.13 168.16C1071.7 168.16 1072.01 167.824 1072.01 167.152V164.368H1067.66V169.056H1066.47V164.368H1062.34ZM1072.01 163.312V160.512H1067.66V163.312H1072.01ZM1072.01 159.44V156.688H1067.66V159.44H1072.01ZM1066.47 156.688H1062.41V159.44H1066.47V156.688ZM1082.3 154.656V155.456C1081.86 155.584 1081.53 155.824 1081.27 156.176C1081.03 156.48 1080.92 156.832 1080.92 157.216C1080.98 157.184 1081.11 157.168 1081.27 157.168C1081.54 157.168 1081.78 157.248 1081.98 157.44C1082.15 157.632 1082.25 157.856 1082.25 158.144C1082.25 158.432 1082.14 158.672 1081.94 158.864C1081.75 159.04 1081.51 159.136 1081.21 159.136C1080.84 159.136 1080.55 158.976 1080.33 158.688C1080.12 158.4 1080.02 158.016 1080.02 157.568C1080.02 156.848 1080.22 156.224 1080.63 155.712C1081.05 155.184 1081.59 154.832 1082.3 154.656ZM1079.13 154.656V155.456C1078.7 155.584 1078.36 155.824 1078.12 156.16C1077.86 156.48 1077.75 156.832 1077.75 157.216C1077.82 157.184 1077.94 157.168 1078.12 157.168C1078.38 157.168 1078.6 157.248 1078.79 157.44C1078.98 157.632 1079.08 157.856 1079.08 158.144C1079.08 158.432 1078.98 158.672 1078.81 158.864C1078.62 159.04 1078.36 159.136 1078.04 159.136C1077.67 159.136 1077.38 158.976 1077.18 158.688C1076.95 158.4 1076.86 158.032 1076.86 157.568C1076.86 156.848 1077.06 156.224 1077.48 155.712C1077.88 155.184 1078.42 154.832 1079.13 154.656ZM1086.55 157.12C1086.17 157.712 1085.74 158.224 1085.26 158.656L1084.57 157.792C1085.34 157.088 1085.98 156.096 1086.51 154.816L1087.55 155.04C1087.4 155.424 1087.26 155.776 1087.11 156.096H1091.69V157.12H1089.27C1089.24 157.664 1089.19 158.192 1089.13 158.672H1092.14V159.728H1088.89C1088.84 159.888 1088.79 160.032 1088.76 160.176C1089.98 160.784 1091 161.408 1091.83 162.048L1091.02 162.864C1090.35 162.256 1089.48 161.648 1088.39 161.008C1087.75 162.128 1086.63 163.056 1085.05 163.792L1084.28 162.848C1085.95 162.112 1087.03 161.2 1087.56 160.112L1087.72 159.728H1084.51V158.672H1088.01C1088.11 158.176 1088.15 157.664 1088.19 157.12H1086.55ZM1092.81 156.016H1098.07V161.872H1092.81V156.016ZM1096.95 160.848V157.04H1093.93V160.848H1096.95ZM1096.94 163.024V169.632H1095.77V168.912H1087.85V169.632H1086.7V163.024H1096.94ZM1087.85 167.888H1095.77V166.512H1087.85V167.888ZM1087.85 165.504H1095.77V164.048H1087.85V165.504ZM1102.46 164.112V165.6H1106.15V164.112H1102.46ZM1106.15 163.152V161.6H1102.46V163.152H1106.15ZM1102.46 166.576V169.632H1101.35V160.592H1107.26V168.112C1107.26 169.04 1106.81 169.52 1105.91 169.52H1104.63L1104.35 168.432L1105.55 168.48C1105.95 168.48 1106.15 168.272 1106.15 167.872V166.576H1102.46ZM1112.87 161.92H1110.23C1109.26 161.92 1108.78 161.392 1108.78 160.352V154.976H1109.91V157.056C1111.67 156.784 1113.1 156.496 1114.2 156.208L1114.57 157.216C1113.23 157.552 1111.67 157.856 1109.91 158.112V160.112C1109.91 160.624 1110.12 160.88 1110.55 160.88H1112.65C1112.97 160.88 1113.19 160.784 1113.32 160.624C1113.48 160.4 1113.58 159.808 1113.64 158.816L1114.71 159.152C1114.6 160.464 1114.39 161.264 1114.11 161.552C1113.85 161.792 1113.43 161.92 1112.87 161.92ZM1109.91 165.536V167.824C1109.91 168.144 1110.11 168.32 1110.52 168.32H1112.7C1113.02 168.32 1113.26 168.24 1113.39 168.096C1113.56 167.872 1113.67 167.28 1113.74 166.304L1114.78 166.624C1114.68 167.92 1114.47 168.704 1114.17 168.992C1113.91 169.232 1113.5 169.36 1112.92 169.36H1110.2C1109.24 169.36 1108.78 168.928 1108.78 168.08V162.528H1109.91V164.496C1111.51 164.336 1112.94 164.064 1114.2 163.68L1114.57 164.704C1113.13 165.12 1111.58 165.392 1109.91 165.536ZM1106.11 156.064C1107.07 157.36 1107.82 158.48 1108.35 159.44L1107.4 160.112C1107.23 159.76 1107.03 159.408 1106.83 159.056C1105.11 159.328 1103.07 159.52 1100.7 159.648L1100.38 158.688C1100.59 158.624 1100.76 158.512 1100.91 158.384C1101.9 157.36 1102.73 156.208 1103.37 154.928L1104.46 155.264C1103.72 156.688 1102.92 157.808 1102.03 158.624C1103.37 158.544 1104.79 158.416 1106.3 158.224C1105.96 157.712 1105.59 157.168 1105.21 156.624L1106.11 156.064ZM1117.98 155.856H1129.37V156.976H1117.98V155.856ZM1116.44 160.32H1130.79V161.472H1123.11C1121.64 164.496 1120.35 166.592 1119.26 167.776C1122.14 167.616 1125 167.344 1127.87 166.96C1127.29 165.936 1126.65 164.88 1125.95 163.792L1126.87 163.216C1128.35 165.424 1129.48 167.36 1130.28 168.992L1129.26 169.712C1129 169.152 1128.73 168.592 1128.43 168.016C1125.18 168.432 1121.64 168.752 1117.8 169.008L1117.5 167.84C1117.63 167.808 1117.71 167.76 1117.77 167.728C1118.79 166.96 1120.15 164.88 1121.83 161.472H1116.44V160.32ZM1146.79 163.6L1146.97 164.72L1145.35 164.976V169.552H1144.19V165.168L1139.19 165.984L1139.03 164.864L1144.19 164.032V154.992H1145.35V163.84L1146.79 163.6ZM1140.55 155.824C1141.71 156.64 1142.67 157.456 1143.45 158.288L1142.67 159.088C1141.96 158.304 1140.99 157.472 1139.74 156.608L1140.55 155.824ZM1140.07 159.504C1141.24 160.368 1142.23 161.216 1143.03 162.08L1142.22 162.896C1141.5 162.08 1140.51 161.216 1139.26 160.288L1140.07 159.504ZM1132.6 159.248H1135.23V156.88C1134.46 156.992 1133.67 157.088 1132.84 157.168L1132.62 156.08C1134.7 155.92 1136.55 155.584 1138.15 155.104L1138.55 156.192C1137.87 156.384 1137.15 156.544 1136.38 156.688V159.248H1138.59V160.352H1136.38V161.136C1137.27 161.856 1138.2 162.672 1139.13 163.568L1138.47 164.544C1137.64 163.568 1136.95 162.8 1136.38 162.24V169.552H1135.23V162.08C1134.59 163.648 1133.74 165.072 1132.65 166.352L1132.15 165.072C1133.51 163.696 1134.49 162.112 1135.1 160.352H1132.6V159.248ZM1159.95 156.816H1157.45V161.248H1159.95V156.816ZM1159.95 162.352H1157.43C1157.31 165.648 1156.36 168.064 1154.57 169.616L1153.72 168.848C1155.35 167.472 1156.22 165.312 1156.31 162.352H1154.57V161.248H1156.33V156.816H1154.92V155.728H1162.52V156.816H1161.05V161.248H1162.95V162.352H1161.05V169.568H1159.95V162.352ZM1150.6 156.912H1148.68V155.792H1154.22V156.912H1151.69C1151.47 158.192 1151.13 159.408 1150.7 160.528H1153.66V167.776H1150.91V169.04H1149.85V162.352C1149.51 162.96 1149.15 163.536 1148.75 164.08L1148.14 163.088C1149.39 161.296 1150.2 159.232 1150.6 156.912ZM1150.91 166.768H1152.59V161.552H1150.91V166.768ZM1165.15 155.648H1178.07V156.768H1172.12V162.816H1178.68V163.92H1172.12V169.584H1170.94V163.92H1164.51V162.816H1170.94V156.768H1165.15V155.648ZM1167.1 157.792C1167.71 158.912 1168.28 160.128 1168.83 161.456L1167.75 161.984C1167.21 160.608 1166.63 159.392 1166.03 158.32L1167.1 157.792ZM1176.17 157.712L1177.23 158.208C1176.75 159.472 1176.11 160.704 1175.32 161.92L1174.3 161.392C1175.08 160.144 1175.71 158.928 1176.17 157.712ZM1192.94 162.944V169.616H1191.77V168.816H1183.42V169.616H1182.25V162.944H1192.94ZM1183.42 167.712H1191.77V164.048H1183.42V167.712ZM1181.11 161.296L1180.89 160.208C1182.3 159.728 1184.04 157.952 1186.12 154.896L1187.31 155.296C1185.87 157.344 1184.41 158.976 1182.97 160.16C1186.04 160.032 1188.95 159.824 1191.71 159.568C1191.1 158.704 1190.47 157.888 1189.83 157.152L1190.87 156.656C1192.25 158.256 1193.53 160.032 1194.71 161.968L1193.59 162.512C1193.19 161.84 1192.79 161.216 1192.41 160.608C1189.03 160.912 1185.27 161.136 1181.11 161.296ZM1201.11 154.64C1201.47 154.64 1201.77 154.784 1201.99 155.072C1202.2 155.36 1202.31 155.728 1202.31 156.208C1202.31 156.912 1202.11 157.536 1201.69 158.064C1201.27 158.576 1200.71 158.928 1200.04 159.12V158.32C1200.46 158.176 1200.79 157.952 1201.05 157.632C1201.29 157.296 1201.4 156.944 1201.4 156.56C1201.34 156.592 1201.21 156.608 1201.05 156.608C1200.78 156.608 1200.55 156.512 1200.36 156.32C1200.17 156.128 1200.07 155.904 1200.07 155.632C1200.07 155.328 1200.17 155.088 1200.38 154.912C1200.55 154.72 1200.79 154.64 1201.11 154.64ZM1197.96 154.64C1198.31 154.64 1198.6 154.784 1198.83 155.072C1199.03 155.36 1199.15 155.728 1199.15 156.208C1199.15 156.912 1198.94 157.536 1198.52 158.064C1198.11 158.576 1197.55 158.928 1196.87 159.12V158.32C1197.29 158.176 1197.61 157.952 1197.87 157.632C1198.12 157.296 1198.23 156.944 1198.23 156.56C1198.17 156.592 1198.04 156.608 1197.88 156.608C1197.61 156.608 1197.39 156.512 1197.21 156.32C1197.02 156.128 1196.92 155.904 1196.92 155.632C1196.92 155.328 1197 155.088 1197.19 154.912C1197.39 154.72 1197.64 154.64 1197.96 154.64Z" fill="black"/>
<path d="M1020 246.4L1014 240.4L1015.4 239L1020 243.6L1024.6 239L1026 240.4L1020 246.4Z" fill="#025CB9"/>
<path d="M743.5 280.997C818.871 280.997 1020 280.997 1020 280.997L1020 177.5M1020 133.5L1020 147" stroke="#025CB9"/>
<path d="M279 281L697 281" stroke="#025CB9"/>
<path d="M251.84 273.72H260.54V275.78H253.72L253.32 279.7H253.38C253.82 279.26 254.32 278.94 254.9 278.74C255.42 278.54 256 278.44 256.64 278.44C257.98 278.44 259.08 278.88 259.92 279.76C260.76 280.64 261.2 281.86 261.2 283.4C261.2 284.88 260.64 286.08 259.52 287.02C258.48 287.86 257.26 288.28 255.84 288.28C254.54 288.28 253.42 287.92 252.5 287.22C251.46 286.44 250.9 285.38 250.8 284.06H253.1C253.2 284.84 253.5 285.42 254.02 285.8C254.46 286.12 255.08 286.3 255.86 286.3C256.7 286.3 257.42 286.04 258 285.52C258.56 285 258.86 284.3 258.86 283.42C258.86 282.46 258.6 281.7 258.12 281.16C257.64 280.6 256.92 280.34 256 280.34C255.38 280.34 254.84 280.44 254.4 280.66C253.9 280.9 253.52 281.26 253.24 281.76H251.06L251.84 273.72Z" fill="#025CB9"/>
<rect x="232.5" y="257.5" width="47" height="47" rx="23.5" stroke="#025CB9"/>
<path d="M59.408 331.512V334.312H63.472V331.512H59.408ZM59.344 335.368C59.168 337.416 58.576 339.112 57.552 340.456L56.672 339.672C57.696 338.248 58.224 336.44 58.256 334.248V326.568H70.176V338.552C70.176 339.672 69.616 340.232 68.496 340.232H66.656L66.352 339.096C66.992 339.128 67.584 339.16 68.128 339.16C68.704 339.16 69.008 338.824 69.008 338.152V335.368H64.656V340.056H63.472V335.368H59.344ZM69.008 334.312V331.512H64.656V334.312H69.008ZM69.008 330.44V327.688H64.656V330.44H69.008ZM63.472 327.688H59.408V330.44H63.472V327.688ZM84.784 329.032H75.648V332.152H84.784V329.032ZM75.648 333.272C75.568 336.136 74.816 338.6 73.376 340.664L72.528 339.896C73.824 338.104 74.48 335.768 74.512 332.904V327.896H79.728C79.44 327.224 79.136 326.6 78.8 326.024L80.032 325.832C80.32 326.44 80.608 327.128 80.896 327.896H85.952V333.272H75.648ZM88.88 326.888H103.152V328.008H101.04V338.888C101.04 339.944 100.528 340.488 99.504 340.488H96.832L96.576 339.368C97.456 339.4 98.304 339.432 99.104 339.432C99.616 339.432 99.888 339.144 99.888 338.6V328.008H88.88V326.888ZM96.96 330.456V336.328H91.856V337.736H90.736V330.456H96.96ZM91.856 335.272H95.856V331.496H91.856V335.272ZM110.032 327.672C111.488 329.352 112.608 330.824 113.376 332.072L112.4 332.744C111.584 331.4 110.48 329.912 109.072 328.264L110.032 327.672ZM115.536 335.512C114.48 337.448 112.784 339.096 110.448 340.44L109.68 339.496C112.4 337.928 114.208 335.976 115.088 333.608C115.76 331.608 116.096 329.064 116.112 325.976H117.312C117.312 329.016 116.976 331.576 116.304 333.688C116.224 333.928 116.144 334.168 116.048 334.408C117.36 336.072 118.464 337.736 119.36 339.4L118.48 340.28C117.728 338.776 116.752 337.192 115.536 335.512ZM106.064 338.776L105.68 337.688C105.968 337.464 106.112 337.176 106.112 336.808V326.392H107.296V337.08C108.544 336.568 109.776 335.944 111.008 335.208L111.328 336.328C109.696 337.272 107.936 338.088 106.064 338.776ZM130.176 325.96H131.36V330.792C132.688 331.768 134.032 332.872 135.408 334.104L134.704 335.16C133.392 333.848 132.288 332.808 131.36 332.072V340.584H130.176V325.96ZM123.712 332.312C124.608 332.792 125.424 333.352 126.16 333.992C126.896 332.584 127.392 331.016 127.632 329.304H124.464C123.696 331.128 122.656 332.616 121.376 333.8L120.592 332.824C122.416 331.128 123.664 328.824 124.304 325.944L125.456 326.136C125.296 326.856 125.104 327.544 124.88 328.2H128.768V329.208C128.224 334.056 125.888 337.72 121.728 340.2L120.944 339.224C122.944 338.072 124.512 336.632 125.632 334.904C124.8 334.2 123.952 333.624 123.104 333.208L123.712 332.312ZM137.856 330.84L139.12 326.392L140.256 326.584L139.344 329.736H142.144C142.464 328.488 142.72 327.192 142.912 325.816L144.08 325.96C143.872 327.304 143.616 328.552 143.328 329.736H150.816V330.84H143.024C142.832 331.48 142.64 332.088 142.416 332.664H148.96V333.656C148.528 335.032 147.664 336.28 146.352 337.4C147.648 338.168 149.232 338.872 151.088 339.512L150.496 340.584C148.448 339.832 146.752 339.016 145.408 338.136C144.096 339.064 142.464 339.896 140.528 340.648L139.92 339.576C141.712 338.92 143.2 338.2 144.4 337.416C143.152 336.456 142.272 335.416 141.744 334.296C140.576 336.824 139.072 338.824 137.248 340.312L136.656 339.256C138.992 337.208 140.704 334.408 141.824 330.84H137.856ZM142.608 333.72C143.152 334.808 144.064 335.816 145.344 336.744C146.528 335.816 147.344 334.808 147.792 333.72H142.608ZM146.768 325.944C147.92 326.824 148.864 327.704 149.632 328.584L148.816 329.4C148.144 328.552 147.2 327.656 146 326.696L146.768 325.944ZM164.352 327.816H161.856V332.248H164.352V327.816ZM164.352 333.352H161.84C161.712 336.648 160.768 339.064 158.976 340.616L158.128 339.848C159.76 338.472 160.624 336.312 160.72 333.352H158.976V332.248H160.736V327.816H159.328V326.728H166.928V327.816H165.456V332.248H167.36V333.352H165.456V340.568H164.352V333.352ZM155.008 327.912H153.088V326.792H158.624V327.912H156.096C155.872 329.192 155.536 330.408 155.104 331.528H158.064V338.776H155.312V340.04H154.256V333.352C153.92 333.96 153.552 334.536 153.152 335.08L152.544 334.088C153.792 332.296 154.608 330.232 155.008 327.912ZM155.312 337.768H156.992V332.552H155.312V337.768ZM177.552 329.272C179.248 330.088 180.784 331.08 182.16 332.264L181.536 333.224C180.064 331.928 178.544 330.904 176.976 330.136L177.552 329.272ZM174.352 329.208L175.04 330.008C173.728 331.256 172.08 332.296 170.096 333.112L169.6 332.072C171.52 331.352 173.104 330.392 174.352 329.208ZM176.032 325.864C176.256 326.328 176.464 326.856 176.656 327.448H182.576V330.664H181.424V328.52H170.576V330.648H169.424V327.448H175.44C175.232 326.936 175.008 326.472 174.768 326.056L176.032 325.864ZM174.288 331.816H175.456V332.984L175.408 333.864H179.536V338.92C179.536 339.208 179.696 339.368 180.016 339.368H181.2C181.6 339.368 181.84 339.16 181.936 338.744C182 338.104 182.032 337.432 182.032 336.712L183.088 337.016C182.992 338.328 182.912 339.144 182.816 339.448C182.64 340.12 182.096 340.456 181.2 340.456H179.84C178.88 340.456 178.4 340.008 178.4 339.112V334.952H175.248C175.008 336.104 174.592 337.096 173.984 337.896C173.088 339.032 171.616 339.928 169.568 340.568L168.944 339.576C170.928 338.952 172.32 338.136 173.12 337.128C173.552 336.488 173.856 335.768 174.048 334.952H170.032V333.864H174.224C174.256 333.56 174.272 333.272 174.288 332.984V331.816ZM195.904 325.88C196.672 326.456 197.328 327.048 197.872 327.64L197.136 328.376H199.088V329.48H194.16C194.272 331.464 194.48 333.032 194.768 334.184C194.864 334.584 194.976 334.952 195.088 335.304C195.888 334.024 196.528 332.52 197.024 330.808L198.064 331.256C197.424 333.368 196.592 335.16 195.568 336.6C195.792 337.112 196.032 337.56 196.288 337.928C196.816 338.696 197.248 339.08 197.568 339.08C197.856 339.064 198.128 338.232 198.368 336.584L199.408 337.16C199.024 339.288 198.48 340.36 197.76 340.36C197.088 340.36 196.368 339.88 195.6 338.92C195.312 338.536 195.04 338.088 194.8 337.592C193.68 338.904 192.368 339.88 190.864 340.552L190.224 339.592C191.824 338.872 193.184 337.816 194.288 336.424C194.064 335.832 193.856 335.192 193.68 334.504C193.328 333.16 193.104 331.48 192.976 329.48H187.488V332.136H191.408C191.376 334.84 191.248 336.584 191.04 337.368C190.832 338.056 190.336 338.408 189.536 338.44C189.152 338.44 188.688 338.408 188.176 338.376L187.824 337.336C188.448 337.368 188.976 337.384 189.408 337.384C189.76 337.368 189.984 337.128 190.08 336.68C190.176 336.136 190.224 334.984 190.256 333.224H187.488V333.704C187.424 336.568 186.784 338.872 185.6 340.6L184.72 339.816C185.744 338.344 186.272 336.312 186.32 333.704V328.376H192.928C192.896 327.576 192.88 326.76 192.88 325.896H194.064C194.064 326.792 194.08 327.608 194.112 328.376H197.104C196.624 327.8 195.984 327.208 195.168 326.584L195.904 325.88ZM202.624 326.568H213.296V332.76H208.592V334.216H214.96V335.304H209.616C210.752 336.744 212.656 338.04 215.312 339.16L214.528 340.168C211.744 338.712 209.792 337.096 208.672 335.304H208.592V340.584H207.408V335.304H207.344C206.128 337.272 204.144 338.888 201.36 340.152L200.704 339.096C203.312 338.104 205.2 336.84 206.368 335.304H201.04V334.216H207.408V332.76H202.624V326.568ZM212.16 331.752V330.2H208.592V331.752H212.16ZM207.408 331.752V330.2H203.776V331.752H207.408ZM203.776 329.192H207.408V327.592H203.776V329.192ZM208.592 327.592V329.192H212.16V327.592H208.592ZM226.032 335.4H222.896V334.28H230.368V335.4H227.216V338.936H231.104V340.056H222.176V338.936H226.032V335.4ZM227.136 330.888C225.968 331.912 224.496 332.776 222.736 333.464L222.016 332.52C225.008 331.4 227.088 329.8 228.24 327.752H222.768V326.648H229.616V327.56C229.2 328.52 228.624 329.384 227.888 330.168C229.232 331.016 230.384 331.864 231.312 332.712L230.464 333.56C229.632 332.712 228.528 331.816 227.136 330.888ZM222.016 337.048V338.136C220.512 338.904 218.8 339.528 216.912 340.008L216.752 338.904C218.752 338.44 220.512 337.816 222.016 337.048ZM219.472 325.912L220.576 326.344C219.776 328.392 218.976 330.008 218.16 331.224C218.896 331.16 219.632 331.064 220.384 330.936C220.688 330.376 221.008 329.784 221.328 329.16L222.384 329.56C220.912 332.264 219.68 334.184 218.704 335.336C219.824 335.096 220.928 334.776 222.048 334.376V335.432C220.4 336.008 218.816 336.392 217.296 336.6L216.992 335.544C217.184 335.464 217.36 335.352 217.504 335.224C218.144 334.584 218.912 333.496 219.808 331.96C218.896 332.104 217.984 332.232 217.072 332.36L216.784 331.304C216.96 331.224 217.12 331.08 217.264 330.872C218.112 329.432 218.848 327.768 219.472 325.912ZM233.968 326.152C235.056 327 235.968 327.848 236.704 328.68L235.872 329.528C235.216 328.712 234.32 327.832 233.168 326.904L233.968 326.152ZM243.696 340.312C242.784 340.312 241.792 340.296 240.72 340.28C239.632 340.264 238.752 340.168 238.096 339.992C237.424 339.8 236.832 339.4 236.32 338.824C236.096 338.552 235.872 338.424 235.664 338.424C235.28 338.424 234.624 339.16 233.728 340.664L232.864 339.896C233.728 338.52 234.48 337.688 235.152 337.4V332.552H232.848V331.464H236.256V337.464C236.384 337.56 236.528 337.672 236.672 337.832C237.088 338.28 237.52 338.616 237.984 338.84C238.496 339.048 239.264 339.16 240.256 339.192C241.136 339.208 242.24 339.224 243.552 339.224C244.256 339.224 244.96 339.208 245.696 339.208C246.416 339.192 246.976 339.176 247.36 339.144L247.072 340.312H243.696ZM243.216 338.168H240.944L240.688 337.064C241.424 337.112 242.144 337.144 242.816 337.144C243.264 337.144 243.504 336.92 243.504 336.488V329.688H237.456V328.552H243.504V325.96H244.672V328.552H247.04V329.688H244.672V336.76C244.672 337.688 244.176 338.168 243.216 338.168ZM239.2 331.112C240.224 332.296 241.008 333.336 241.552 334.232L240.624 334.872C240.048 333.912 239.28 332.856 238.304 331.688L239.2 331.112ZM260.576 332.248V335.384H252.592V336.488H261.312V340.6H260.176V339.928H252.592V340.584H251.44V332.248H260.576ZM252.592 338.904H260.176V337.416H252.592V338.904ZM252.592 334.456H259.456V333.176H252.592V334.456ZM262.784 330.312V333.208H261.664V331.304H250.336V333.208H249.216V330.312H255.552C255.392 329.928 255.232 329.592 255.056 329.272L256.176 329.08L256.08 329.016C256.848 328.056 257.392 327.016 257.744 325.864L258.848 326.104C258.736 326.44 258.624 326.76 258.496 327.08H263.12V328.088H260.272C260.608 328.536 260.88 328.952 261.072 329.336L260.048 329.72C259.76 329.144 259.424 328.6 259.04 328.088H258.032C257.744 328.632 257.408 329.144 257.056 329.624L256.192 329.096C256.368 329.464 256.544 329.864 256.704 330.312H262.784ZM251.136 328.088C250.752 328.712 250.336 329.288 249.856 329.816L248.848 329.176C249.808 328.184 250.512 327.064 250.96 325.848L252.064 326.088C251.936 326.44 251.792 326.76 251.664 327.08H255.952V328.088H253.264C253.616 328.568 253.92 329.032 254.144 329.464L253.088 329.864C252.8 329.256 252.448 328.664 252.048 328.088H251.136ZM270.656 326.568H278.48V333.96H275.152V335.848H278.752V336.936H275.152V339.016H279.344V340.12H269.712V339.016H274V336.936H270.384V335.848H274V333.96H270.656V326.568ZM277.376 332.936V330.776H275.152V332.936H277.376ZM274 332.936V330.776H271.76V332.936H274ZM271.76 329.768H274V327.592H271.76V329.768ZM275.152 327.592V329.768H277.376V327.592H275.152ZM265.008 331.864H266.752V328.072H264.784V326.984H269.888V328.072H267.936V331.864H269.696V332.968H267.936V336.6C268.544 336.392 269.12 336.168 269.696 335.912V337.032C268.224 337.64 266.64 338.152 264.944 338.568L264.656 337.464C265.36 337.336 266.064 337.176 266.752 336.984V332.968H265.008V331.864ZM293.392 331.736V337.704H292.256V332.792H283.76V337.896H282.624V331.736H293.392ZM283.584 326.52H292.432V330.536H283.584V326.52ZM291.312 329.528V327.544H284.704V329.528H291.312ZM287.568 333.832L288.736 333.928C288.512 336.28 288.016 337.864 287.248 338.696C286.416 339.688 284.512 340.328 281.536 340.6L281.088 339.56C283.68 339.4 285.408 338.888 286.256 338.008C286.992 337.192 287.44 335.8 287.568 333.832ZM289.152 337.544C291.232 338.136 293.136 338.856 294.864 339.688L294.24 340.648C292.4 339.688 290.512 338.952 288.576 338.408L289.152 337.544ZM299.92 334.504V336.344H303.472V334.504H299.92ZM303.472 337.4H299.92V338.344H298.8V330.584H303.472V328.984H304.624V330.584H309.344V338.296H308.224V337.4H304.624V340.648H303.472V337.4ZM304.624 336.344H308.224V334.504H304.624V336.344ZM308.224 333.48V331.64H304.624V333.48H308.224ZM303.472 331.64H299.92V333.48H303.472V331.64ZM310.64 327.144V329.944H309.52V328.184H298.416V330.024H297.296V327.144H303.392C303.232 326.728 303.072 326.344 302.896 325.992L304.112 325.784C304.272 326.184 304.416 326.632 304.576 327.144H310.64ZM316.176 332.456V340.6H315.072V332.584C314.56 334.216 313.888 335.688 313.072 337L312.592 335.832C313.728 334.168 314.544 332.28 315.024 330.168H312.864V329.064H315.072V325.944H316.176V329.064H318.064V330.168H316.176V331.208C316.944 332.088 317.712 333.08 318.512 334.2L317.872 335.176C317.216 334.056 316.656 333.144 316.176 332.456ZM318.464 327.688H322.464C322.24 327.112 321.984 326.584 321.696 326.104L322.88 325.912C323.12 326.424 323.36 327.016 323.584 327.688H327.136V328.728H322.752C321.872 330.28 321.104 331.384 320.432 332.04C321.456 331.976 322.464 331.912 323.456 331.832C323.872 331.256 324.24 330.664 324.56 330.024L325.488 330.52C323.888 333.688 321.552 335.864 318.448 337.016L317.824 336.056C319.76 335.368 321.376 334.296 322.688 332.824C321.568 332.888 320.368 332.952 319.104 333L318.864 332.056C318.96 332.024 319.024 331.992 319.088 331.96C319.728 331.544 320.544 330.472 321.568 328.728H318.464V327.688ZM323.584 337.352C322.048 338.728 320.272 339.784 318.224 340.488L317.6 339.496C321.36 338.264 324.176 335.896 326.048 332.392L327.024 332.904C326.256 334.344 325.344 335.592 324.304 336.648C325.456 337.672 326.448 338.68 327.248 339.688L326.416 340.52C325.712 339.528 324.768 338.472 323.584 337.352ZM330.016 326.184C331.12 327.016 332.048 327.848 332.8 328.68L331.984 329.48C331.312 328.68 330.4 327.832 329.232 326.936L330.016 326.184ZM339.376 340.312C338.496 340.312 337.536 340.296 336.512 340.28C335.472 340.264 334.624 340.168 333.984 339.992C333.344 339.8 332.768 339.4 332.272 338.824C332.048 338.552 331.84 338.424 331.648 338.424C331.264 338.424 330.624 339.16 329.744 340.632L328.88 339.848C329.728 338.504 330.48 337.688 331.136 337.4V332.536H328.864V331.48H332.208V337.464C332.336 337.56 332.464 337.672 332.608 337.832C332.992 338.296 333.408 338.632 333.856 338.84C334.368 339.064 335.088 339.192 336.048 339.224C336.896 339.24 337.952 339.256 339.216 339.256C339.952 339.256 340.72 339.24 341.504 339.224C342.272 339.208 342.864 339.192 343.28 339.16L343.008 340.312H339.376ZM336.512 327.72C337.184 328.12 337.808 328.52 338.352 328.92C339.184 328.488 339.952 328.008 340.656 327.464H333.552V326.488H342.208V327.32C341.248 328.152 340.208 328.872 339.088 329.48L339.344 329.688H342.512V336.84C342.512 337.656 342.064 338.072 341.168 338.072H339.84L339.584 337.096L340.848 337.144C341.232 337.144 341.424 336.952 341.424 336.6V335.4H338.736V338.152H337.664V335.4H334.992V338.2H333.904V329.688H337.904C337.296 329.256 336.592 328.824 335.808 328.408L336.512 327.72ZM334.992 333.048V334.456H337.664V333.048H334.992ZM338.736 333.048V334.456H341.424V333.048H338.736ZM341.424 332.088V330.648H338.736V332.088H341.424ZM337.664 332.088V330.648H334.992V332.088H337.664ZM345.968 326.152C347.056 327 347.968 327.848 348.704 328.68L347.872 329.528C347.216 328.712 346.32 327.832 345.168 326.904L345.968 326.152ZM355.696 340.312C354.784 340.312 353.792 340.296 352.72 340.28C351.632 340.264 350.752 340.168 350.096 339.992C349.424 339.8 348.832 339.4 348.32 338.824C348.096 338.552 347.872 338.424 347.664 338.424C347.28 338.424 346.624 339.16 345.728 340.664L344.864 339.896C345.728 338.52 346.48 337.688 347.152 337.4V332.552H344.848V331.464H348.256V337.464C348.384 337.56 348.528 337.672 348.672 337.832C349.088 338.28 349.52 338.616 349.984 338.84C350.496 339.048 351.264 339.16 352.256 339.192C353.136 339.208 354.24 339.224 355.552 339.224C356.256 339.224 356.96 339.208 357.696 339.208C358.416 339.192 358.976 339.176 359.36 339.144L359.072 340.312H355.696ZM355.216 338.168H352.944L352.688 337.064C353.424 337.112 354.144 337.144 354.816 337.144C355.264 337.144 355.504 336.92 355.504 336.488V329.688H349.456V328.552H355.504V325.96H356.672V328.552H359.04V329.688H356.672V336.76C356.672 337.688 356.176 338.168 355.216 338.168ZM351.2 331.112C352.224 332.296 353.008 333.336 353.552 334.232L352.624 334.872C352.048 333.912 351.28 332.856 350.304 331.688L351.2 331.112ZM363.648 331.576V331.992C363.552 335.576 362.816 338.424 361.472 340.552L360.624 339.672C361.792 337.816 362.416 335.256 362.512 331.992V327.192C366.64 327.144 370.336 326.776 373.632 326.088L374.208 327.128C371.072 327.768 367.552 328.12 363.648 328.216V330.456H375.168V331.576H363.648ZM373.904 333.816V340.6H372.752V339.848H366.272V340.6H365.12V333.816H373.904ZM366.272 338.728H372.752V334.92H366.272V338.728ZM377.856 330.84L379.12 326.392L380.256 326.584L379.344 329.736H382.144C382.464 328.488 382.72 327.192 382.912 325.816L384.08 325.96C383.872 327.304 383.616 328.552 383.328 329.736H390.816V330.84H383.024C382.832 331.48 382.64 332.088 382.416 332.664H388.96V333.656C388.528 335.032 387.664 336.28 386.352 337.4C387.648 338.168 389.232 338.872 391.088 339.512L390.496 340.584C388.448 339.832 386.752 339.016 385.408 338.136C384.096 339.064 382.464 339.896 380.528 340.648L379.92 339.576C381.712 338.92 383.2 338.2 384.4 337.416C383.152 336.456 382.272 335.416 381.744 334.296C380.576 336.824 379.072 338.824 377.248 340.312L376.656 339.256C378.992 337.208 380.704 334.408 381.824 330.84H377.856ZM382.608 333.72C383.152 334.808 384.064 335.816 385.344 336.744C386.528 335.816 387.344 334.808 387.792 333.72H382.608ZM386.768 325.944C387.92 326.824 388.864 327.704 389.632 328.584L388.816 329.4C388.144 328.552 387.2 327.656 386 326.696L386.768 325.944ZM394.016 326.184C395.12 327.016 396.048 327.832 396.8 328.664L395.968 329.48C395.312 328.696 394.4 327.848 393.232 326.936L394.016 326.184ZM403.376 340.312C402.496 340.312 401.536 340.296 400.512 340.28C399.472 340.264 398.624 340.168 397.984 339.992C397.344 339.8 396.768 339.4 396.272 338.824C396.048 338.552 395.84 338.424 395.648 338.424C395.264 338.424 394.624 339.144 393.744 340.616L392.88 339.848C393.728 338.504 394.48 337.688 395.136 337.4V332.536H392.864V331.48H396.208V337.464C396.336 337.56 396.464 337.672 396.608 337.832C396.992 338.296 397.408 338.632 397.856 338.84C398.368 339.064 399.088 339.192 400.048 339.224C400.896 339.24 401.952 339.256 403.216 339.256C403.952 339.256 404.72 339.24 405.504 339.224C406.272 339.208 406.864 339.192 407.28 339.16L407.008 340.312H403.376ZM397.696 332.232H401.568C401.664 331.544 401.728 330.76 401.76 329.864H398.24V328.808H403.072C403.568 327.88 404 326.888 404.352 325.832L405.44 326.216C405.088 327.192 404.688 328.056 404.24 328.808H406.32V329.864H402.896C402.864 330.76 402.816 331.56 402.72 332.232H406.864V333.32H402.512C402.064 335.256 400.656 336.856 398.288 338.12L397.552 337.192C399.568 336.2 400.832 334.92 401.312 333.32H397.696V332.232ZM399.888 325.96C400.416 326.664 400.912 327.448 401.392 328.296L400.416 328.776C399.936 327.912 399.408 327.128 398.848 326.456L399.888 325.96ZM403.248 334.264C404.576 335.192 405.776 336.2 406.848 337.288L406.048 338.152C404.928 336.968 403.776 335.928 402.56 335.032L403.248 334.264ZM409.328 326.712H422.608V327.832H415.12C414.16 329.448 413.056 330.744 411.824 331.736C414.416 331.576 416.944 331.304 419.376 330.904C418.896 330.328 418.4 329.768 417.888 329.224L418.816 328.632C420.304 330.2 421.44 331.576 422.224 332.744L421.28 333.416C420.944 332.904 420.576 332.392 420.176 331.864C416.912 332.376 413.552 332.712 410.112 332.888L409.808 331.88C411.376 330.984 412.704 329.624 413.792 327.832H409.328V326.712ZM410.08 335.064H415.408V333.208H416.592V335.064H421.84V336.168H416.592V338.84H423.04V339.96H408.96V338.84H415.408V336.168H410.08V335.064ZM432.304 328.184V339.896H431.216V338.888H426.352V339.896H425.264V328.184H428.224V325.864H429.344V328.184H432.304ZM426.352 337.848H428.224V333.928H426.352V337.848ZM429.344 337.848H431.216V333.928H429.344V337.848ZM426.352 332.904H428.224V329.24H426.352V332.904ZM429.344 329.24V332.904H431.216V329.24H429.344ZM433.648 326.792H438.768V327.64C438.288 329.32 437.776 330.872 437.216 332.296C438.32 333.896 438.88 335.208 438.896 336.232C438.896 337.064 438.688 337.64 438.304 337.976C437.888 338.312 437.056 338.488 435.808 338.488L435.472 337.32C435.888 337.368 436.24 337.4 436.528 337.4C437.072 337.368 437.424 337.288 437.584 337.128C437.728 336.968 437.808 336.68 437.824 336.232C437.808 335.24 437.216 333.928 436.064 332.296C436.576 331.032 437.088 329.544 437.584 327.832H434.752V340.616H433.648V326.792ZM441.136 332.056H443.712V330.36H444.88V332.056H447.056V333.176H444.88V333.704C445.664 334.456 446.464 335.288 447.264 336.2L446.624 337.16C445.952 336.168 445.36 335.368 444.88 334.76V340.616H443.712V334.664C443.056 336.136 442.16 337.464 441.04 338.648L440.544 337.368C441.936 336.136 442.944 334.744 443.568 333.176H441.136V332.056ZM454.208 330.904V340.616H453.104V339.896H449.04V340.616H447.936V330.904H454.208ZM449.04 338.872H453.104V337.096H449.04V338.872ZM449.04 336.104H453.104V334.52H449.04V336.104ZM449.04 333.528H453.104V331.928H449.04V333.528ZM443.168 328.168C442.784 328.824 442.352 329.432 441.856 329.976L440.848 329.336C441.84 328.28 442.576 327.112 443.024 325.816L444.128 326.056C444 326.44 443.856 326.792 443.696 327.144H447.92V328.168H445.344C445.792 328.76 446.144 329.304 446.416 329.816L445.344 330.216C444.992 329.512 444.592 328.84 444.112 328.168H443.168ZM450.016 328.168C449.664 328.872 449.28 329.528 448.848 330.136L447.856 329.512C448.72 328.36 449.36 327.112 449.744 325.736L450.848 325.976C450.72 326.376 450.592 326.76 450.448 327.144H455.216V328.168H452.192C452.64 328.744 452.992 329.272 453.264 329.768L452.256 330.136C451.888 329.464 451.472 328.808 450.992 328.168H450.016Z" fill="black"/>
<path d="M721.36 273.72H723.5V283.08H725.62V284.94H723.5V288H721.28V284.94H714.38V282.72L721.36 273.72ZM721.22 276.68L716.28 283.08H721.28V276.68H721.22Z" fill="#025CB9"/>
<rect x="696.5" y="257.5" width="47" height="47" rx="23.5" stroke="#025CB9"/>
<path d="M539.408 331.512V334.312H543.472V331.512H539.408ZM539.344 335.368C539.168 337.416 538.576 339.112 537.552 340.456L536.672 339.672C537.696 338.248 538.224 336.44 538.256 334.248V326.568H550.176V338.552C550.176 339.672 549.616 340.232 548.496 340.232H546.656L546.352 339.096C546.992 339.128 547.584 339.16 548.128 339.16C548.704 339.16 549.008 338.824 549.008 338.152V335.368H544.656V340.056H543.472V335.368H539.344ZM549.008 334.312V331.512H544.656V334.312H549.008ZM549.008 330.44V327.688H544.656V330.44H549.008ZM543.472 327.688H539.408V330.44H543.472V327.688ZM564.784 329.032H555.648V332.152H564.784V329.032ZM555.648 333.272C555.568 336.136 554.816 338.6 553.376 340.664L552.528 339.896C553.824 338.104 554.48 335.768 554.512 332.904V327.896H559.728C559.44 327.224 559.136 326.6 558.8 326.024L560.032 325.832C560.32 326.44 560.608 327.128 560.896 327.896H565.952V333.272H555.648ZM568.88 326.888H583.152V328.008H581.04V338.888C581.04 339.944 580.528 340.488 579.504 340.488H576.832L576.576 339.368C577.456 339.4 578.304 339.432 579.104 339.432C579.616 339.432 579.888 339.144 579.888 338.6V328.008H568.88V326.888ZM576.96 330.456V336.328H571.856V337.736H570.736V330.456H576.96ZM571.856 335.272H575.856V331.496H571.856V335.272ZM597.376 327.832V340.584H596.208V339.592H587.792V340.584H586.624V327.832H590.048C590.4 327.192 590.672 326.552 590.832 325.88L592 326.04C591.824 326.68 591.568 327.288 591.248 327.832H597.376ZM587.792 338.488H596.208V335.88H587.792V338.488ZM587.792 334.824H596.208V332.376H587.792V334.824ZM587.792 331.32H596.208V328.936H587.792V331.32ZM606.8 326.952H614.464V328.088H606.8V326.952ZM606.368 331.016H615.168V332.152H612.576V339.144C612.576 340.072 612.048 340.536 611.024 340.536H608.672L608.432 339.4C609.2 339.448 609.92 339.48 610.624 339.48C611.136 339.48 611.408 339.272 611.408 338.856V332.152H606.368V331.016ZM604.272 326.072L605.312 326.552C604.416 328.328 602.976 329.896 600.992 331.256L600.656 330.104C602.32 328.92 603.52 327.576 604.272 326.072ZM605.024 329.72L606.064 330.2C605.6 331.096 605.024 331.96 604.32 332.76V340.6H603.184V333.928C602.544 334.504 601.856 335.064 601.088 335.592L600.752 334.44C602.704 333.064 604.128 331.496 605.024 329.72ZM622.656 325.928H623.84V330.872H629.776V331.992H623.84V338.84H631.136V339.96H616.896V338.84H622.656V325.928ZM634.672 331.672C634.144 332.376 633.568 333.064 632.944 333.704L632.576 332.472C634.272 330.568 635.52 328.376 636.304 325.912L637.392 326.424C636.976 327.656 636.464 328.824 635.824 329.928V340.632H634.672V331.672ZM637.6 327.976H640.72L641.2 325.912L642.32 326.024C642.16 326.696 642.016 327.352 641.872 327.976H646.704V329.096H641.584C641.408 329.736 641.232 330.36 641.04 330.952H647.36V332.056H640.672C640.416 332.792 640.144 333.464 639.888 334.088H646.464V335.08C645.792 336.2 644.72 337.32 643.248 338.44C644 338.84 644.72 339.272 645.424 339.736L644.768 340.728C642.816 339.384 640.8 338.328 638.752 337.56L639.36 336.664C640.352 337.048 641.312 337.464 642.24 337.912C643.504 337.032 644.496 336.12 645.232 335.16H638.384C638.8 334.168 639.2 333.128 639.568 332.056H636.896V330.952H639.92C640.112 330.328 640.288 329.704 640.448 329.096H637.6V327.976ZM658.528 329.48L658.32 330.312C658.72 332.184 659.232 333.8 659.872 335.144C660.496 333.528 660.832 331.64 660.896 329.48H658.528ZM659.344 336.296C658.72 335.064 658.192 333.656 657.76 332.056C657.472 332.792 657.152 333.448 656.816 334.024L656.096 333.144C657.04 331.352 657.68 328.936 658 325.896L659.12 326.088C659.024 326.904 658.896 327.672 658.768 328.376H662.992V329.48H661.952C661.872 332.152 661.376 334.44 660.48 336.328C661.312 337.768 662.288 338.872 663.44 339.656L662.816 340.6C661.696 339.8 660.736 338.712 659.936 337.368C659.168 338.648 658.176 339.72 656.976 340.584L656.384 339.624C657.632 338.76 658.608 337.656 659.344 336.296ZM651.76 333.368L652.832 333.496C652.72 333.8 652.608 334.088 652.512 334.376H655.856V335.32C655.504 336.376 654.912 337.288 654.08 338.056C654.848 338.408 655.584 338.76 656.288 339.144L655.664 340.04C654.96 339.624 654.144 339.192 653.2 338.776C652.144 339.512 650.816 340.104 649.216 340.552L648.672 339.592C649.984 339.24 651.12 338.808 652.048 338.28C651.344 337.976 650.608 337.672 649.824 337.384C650.24 336.68 650.608 336.024 650.928 335.384H649.04V334.376H651.376C651.52 334.024 651.648 333.688 651.76 333.368ZM653.024 337.608C653.824 336.968 654.432 336.216 654.816 335.384H652.064C651.808 335.928 651.52 336.44 651.2 336.92C651.84 337.144 652.448 337.368 653.024 337.608ZM650.304 326.232C650.688 326.856 651.008 327.528 651.296 328.232L650.464 328.616C650.128 327.832 649.776 327.144 649.392 326.536L650.304 326.232ZM655.168 326.184L656 326.568C655.68 327.272 655.28 327.96 654.768 328.632L653.952 328.216C654.464 327.528 654.88 326.856 655.168 326.184ZM649.072 329H652.192V325.944H653.264V329H656.176V330.008H653.264V330.184C654.128 330.616 655.024 331.112 655.92 331.656L655.328 332.552C654.528 331.912 653.84 331.4 653.264 331.016V333.096H652.192V330.056C651.664 331.32 650.704 332.408 649.328 333.336L648.768 332.408C650 331.688 650.864 330.888 651.344 330.008H649.072V329ZM666.624 340.456H665.264L665.024 339.368C665.44 339.416 665.856 339.448 666.24 339.448C666.64 339.448 666.848 339.208 666.848 338.76V334.84C666.208 335.08 665.584 335.304 664.96 335.496L664.672 334.376C665.408 334.2 666.144 333.976 666.848 333.72V330.104H664.928V329H666.848V325.976H667.968V329H669.504V330.104H667.968V333.256C668.48 333.032 668.976 332.792 669.456 332.536V333.672C668.96 333.928 668.464 334.152 667.968 334.376V339.048C667.968 339.976 667.52 340.456 666.624 340.456ZM671.408 333.384C671.216 336.12 670.592 338.52 669.536 340.6L668.64 339.8C669.776 337.688 670.352 334.936 670.368 331.576V326.568H678.8V330.456H675.792V332.344H679.216V333.384H675.792V335.352H678.48V340.6H677.408V339.816H673.072V340.6H672V335.352H674.672V333.384H671.408ZM674.672 330.456H671.488V331.576C671.488 331.832 671.472 332.088 671.472 332.344H674.672V330.456ZM673.072 338.792H677.408V336.376H673.072V338.792ZM677.68 327.64H671.488V329.416H677.68V327.64ZM694.56 327.016V339.96H693.44V338.696H689.552V340.12H688.448V327.016H694.56ZM689.552 337.608H693.44V328.088H689.552V337.608ZM681.136 330.328H683.936V328.024C683.136 328.152 682.32 328.248 681.488 328.312L681.12 327.288C683.504 327.096 685.488 326.696 687.088 326.088L687.632 327.048C686.8 327.352 685.952 327.608 685.056 327.8V330.328H687.792V331.4H685.056V332.2C685.984 333.016 686.912 333.944 687.856 335L687.184 335.992C686.352 334.856 685.648 333.944 685.056 333.272V340.488H683.936V333.384C683.248 334.904 682.336 336.28 681.2 337.512L680.72 336.264C682.208 334.856 683.28 333.272 683.936 331.512V331.4H681.136V330.328ZM697.152 328.872H703.408V325.976H704.592V328.872H710.832V329.976H705.616C706.688 332.52 708.608 334.792 711.36 336.792L710.576 337.784C707.76 335.48 705.808 332.872 704.72 329.976H704.592V336.216H708.016V337.32H704.592V340.6H703.408V337.32H700.112V336.216H703.408V329.976H703.296C702.112 333.224 700.096 335.896 697.248 337.992L696.592 336.92C699.28 335.128 701.2 332.808 702.384 329.976H697.152V328.872ZM713.552 326.648H726.48V327.768H720.528V333.816H727.088V334.92H720.528V340.584H719.344V334.92H712.912V333.816H719.344V327.768H713.552V326.648ZM715.504 328.792C716.112 329.912 716.688 331.128 717.232 332.456L716.16 332.984C715.616 331.608 715.04 330.392 714.432 329.32L715.504 328.792ZM724.576 328.712L725.632 329.208C725.152 330.472 724.512 331.704 723.728 332.92L722.704 332.392C723.488 331.144 724.112 329.928 724.576 328.712ZM741.344 333.944V340.616H740.176V339.816H731.824V340.616H730.656V333.944H741.344ZM731.824 338.712H740.176V335.048H731.824V338.712ZM729.52 332.296L729.296 331.208C730.704 330.728 732.448 328.952 734.528 325.896L735.712 326.296C734.272 328.344 732.816 329.976 731.376 331.16C734.448 331.032 737.36 330.824 740.112 330.568C739.504 329.704 738.88 328.888 738.24 328.152L739.28 327.656C740.656 329.256 741.936 331.032 743.12 332.968L742 333.512C741.6 332.84 741.2 332.216 740.816 331.608C737.44 331.912 733.68 332.136 729.52 332.296ZM750.464 328.696V339.608H749.344V338.696H746.432V340.072H745.312V328.696H746.8C747.12 327.8 747.344 326.872 747.488 325.912L748.64 326.072C748.448 327.016 748.208 327.896 747.888 328.696H750.464ZM746.432 337.624H749.344V334.12H746.432V337.624ZM746.432 333.08H749.344V329.784H746.432V333.08ZM753.248 332.408C754.4 333.736 755.264 334.904 755.872 335.896L754.96 336.536C754.304 335.48 753.424 334.296 752.32 332.984L753.248 332.408ZM758.736 328.712C758.736 334.024 758.656 337.32 758.496 338.568C758.336 339.784 757.6 340.408 756.256 340.408C755.936 340.408 755.392 340.376 754.624 340.344L754.352 339.288C755.024 339.32 755.6 339.336 756.096 339.336C756.848 339.336 757.28 338.92 757.408 338.104C757.504 337.208 757.568 334.44 757.6 329.832H753.2C752.752 330.84 752.224 331.752 751.6 332.568L750.912 331.656C752.032 330.088 752.784 328.168 753.2 325.896L754.336 326.04C754.144 326.984 753.92 327.88 753.632 328.712H758.736ZM770.528 329.48L770.32 330.312C770.72 332.184 771.232 333.8 771.872 335.144C772.496 333.528 772.832 331.64 772.896 329.48H770.528ZM771.344 336.296C770.72 335.064 770.192 333.656 769.76 332.056C769.472 332.792 769.152 333.448 768.816 334.024L768.096 333.144C769.04 331.352 769.68 328.936 770 325.896L771.12 326.088C771.024 326.904 770.896 327.672 770.768 328.376H774.992V329.48H773.952C773.872 332.152 773.376 334.44 772.48 336.328C773.312 337.768 774.288 338.872 775.44 339.656L774.816 340.6C773.696 339.8 772.736 338.712 771.936 337.368C771.168 338.648 770.176 339.72 768.976 340.584L768.384 339.624C769.632 338.76 770.608 337.656 771.344 336.296ZM763.76 333.368L764.832 333.496C764.72 333.8 764.608 334.088 764.512 334.376H767.856V335.32C767.504 336.376 766.912 337.288 766.08 338.056C766.848 338.408 767.584 338.76 768.288 339.144L767.664 340.04C766.96 339.624 766.144 339.192 765.2 338.776C764.144 339.512 762.816 340.104 761.216 340.552L760.672 339.592C761.984 339.24 763.12 338.808 764.048 338.28C763.344 337.976 762.608 337.672 761.824 337.384C762.24 336.68 762.608 336.024 762.928 335.384H761.04V334.376H763.376C763.52 334.024 763.648 333.688 763.76 333.368ZM765.024 337.608C765.824 336.968 766.432 336.216 766.816 335.384H764.064C763.808 335.928 763.52 336.44 763.2 336.92C763.84 337.144 764.448 337.368 765.024 337.608ZM762.304 326.232C762.688 326.856 763.008 327.528 763.296 328.232L762.464 328.616C762.128 327.832 761.776 327.144 761.392 326.536L762.304 326.232ZM767.168 326.184L768 326.568C767.68 327.272 767.28 327.96 766.768 328.632L765.952 328.216C766.464 327.528 766.88 326.856 767.168 326.184ZM761.072 329H764.192V325.944H765.264V329H768.176V330.008H765.264V330.184C766.128 330.616 767.024 331.112 767.92 331.656L767.328 332.552C766.528 331.912 765.84 331.4 765.264 331.016V333.096H764.192V330.056C763.664 331.32 762.704 332.408 761.328 333.336L760.768 332.408C762 331.688 762.864 330.888 763.344 330.008H761.072V329ZM778.624 340.456H777.264L777.024 339.368C777.44 339.416 777.856 339.448 778.24 339.448C778.64 339.448 778.848 339.208 778.848 338.76V334.84C778.208 335.08 777.584 335.304 776.96 335.496L776.672 334.376C777.408 334.2 778.144 333.976 778.848 333.72V330.104H776.928V329H778.848V325.976H779.968V329H781.504V330.104H779.968V333.256C780.48 333.032 780.976 332.792 781.456 332.536V333.672C780.96 333.928 780.464 334.152 779.968 334.376V339.048C779.968 339.976 779.52 340.456 778.624 340.456ZM783.408 333.384C783.216 336.12 782.592 338.52 781.536 340.6L780.64 339.8C781.776 337.688 782.352 334.936 782.368 331.576V326.568H790.8V330.456H787.792V332.344H791.216V333.384H787.792V335.352H790.48V340.6H789.408V339.816H785.072V340.6H784V335.352H786.672V333.384H783.408ZM786.672 330.456H783.488V331.576C783.488 331.832 783.472 332.088 783.472 332.344H786.672V330.456ZM785.072 338.792H789.408V336.376H785.072V338.792ZM789.68 327.64H783.488V329.416H789.68V327.64ZM794.048 326.184C795.12 327.016 796.032 327.832 796.768 328.664L795.936 329.48C795.296 328.696 794.4 327.848 793.264 326.936L794.048 326.184ZM803.344 340.312C802.48 340.312 801.536 340.296 800.528 340.28C799.504 340.264 798.688 340.168 798.048 339.992C797.424 339.8 796.864 339.4 796.368 338.824C796.16 338.552 795.952 338.424 795.76 338.424C795.376 338.424 794.752 339.16 793.872 340.632L793.008 339.848C793.856 338.504 794.608 337.688 795.264 337.4V332.536H792.976V331.48H796.336V337.464C796.464 337.56 796.592 337.688 796.72 337.832C797.104 338.296 797.504 338.632 797.952 338.84C798.432 339.064 799.152 339.192 800.08 339.224C800.912 339.24 801.952 339.256 803.184 339.256C803.936 339.256 804.704 339.24 805.488 339.224C806.256 339.208 806.864 339.192 807.28 339.16L807.008 340.312H803.344ZM797.872 328.456H799.76V325.912H800.864V328.456H803.392V325.928H804.512V328.456H806.544V329.528H804.512V332.712H807.056V333.8H804.512V338.392H803.392V333.8H800.544C800.128 335.72 799.296 337.144 798.064 338.072L797.376 337.144C798.384 336.424 799.072 335.304 799.424 333.8H797.312V332.712H799.632C799.712 332.104 799.76 331.464 799.76 330.792V329.528H797.872V328.456ZM800.864 329.528V330.536C800.864 331.304 800.816 332.04 800.736 332.712H803.392V329.528H800.864ZM814.8 326.952H822.464V328.088H814.8V326.952ZM814.368 331.016H823.168V332.152H820.576V339.144C820.576 340.072 820.048 340.536 819.024 340.536H816.672L816.432 339.4C817.2 339.448 817.92 339.48 818.624 339.48C819.136 339.48 819.408 339.272 819.408 338.856V332.152H814.368V331.016ZM812.272 326.072L813.312 326.552C812.416 328.328 810.976 329.896 808.992 331.256L808.656 330.104C810.32 328.92 811.52 327.576 812.272 326.072ZM813.024 329.72L814.064 330.2C813.6 331.096 813.024 331.96 812.32 332.76V340.6H811.184V333.928C810.544 334.504 809.856 335.064 809.088 335.592L808.752 334.44C810.704 333.064 812.128 331.496 813.024 329.72ZM830.32 327.928H826.928V338.888H839.008V340.008H825.776V326.808H838.688V327.928H834.88V334.44C834.88 334.856 835.104 335.08 835.552 335.08H836.912C837.2 335.08 837.408 334.968 837.536 334.76C837.696 334.504 837.808 333.768 837.872 332.536L838.96 332.888C838.864 334.424 838.656 335.368 838.352 335.704C838.096 335.992 837.68 336.136 837.104 336.136H835.2C834.24 336.136 833.776 335.64 833.776 334.664V327.928H831.44C831.296 332.2 830.256 335.144 828.32 336.776L827.392 336.024C829.232 334.6 830.208 331.896 830.32 327.928ZM855.264 336.312C855.152 337.976 854.976 339.048 854.72 339.544C854.464 340.024 853.968 340.28 853.2 340.28H850.032C849.264 340.28 848.88 339.768 848.88 338.76V331.976H853.248V327.704H848.608V326.616H854.368V333.096H850V338.344C850 338.888 850.16 339.176 850.496 339.192H853.008C853.456 339.192 853.744 338.968 853.872 338.52C854 338.088 854.08 337.224 854.128 335.944L855.264 336.312ZM840.8 326.6H848.08V327.688H846V329.544H847.824V340.536H846.8V339.672H842.24V340.536H841.216V329.544H842.96V327.688H840.8V326.6ZM842.24 338.584H846.8V337.032H842.24V338.584ZM843.184 330.6H842.24V335.976H846.8V334.584H845.984C845.312 334.584 844.976 334.216 844.976 333.48V330.6H843.968V331.64C843.936 333.352 843.584 334.6 842.912 335.4L842.304 334.84C842.88 334.168 843.168 333.112 843.184 331.64V330.6ZM843.952 329.544H845.008V327.688H843.952V329.544ZM846.8 333.688V330.6H845.776V333.272C845.776 333.544 845.904 333.688 846.176 333.688H846.8ZM870.56 327.016V339.96H869.44V338.696H865.552V340.12H864.448V327.016H870.56ZM865.552 337.608H869.44V328.088H865.552V337.608ZM857.136 330.328H859.936V328.024C859.136 328.152 858.32 328.248 857.488 328.312L857.12 327.288C859.504 327.096 861.488 326.696 863.088 326.088L863.632 327.048C862.8 327.352 861.952 327.608 861.056 327.8V330.328H863.792V331.4H861.056V332.2C861.984 333.016 862.912 333.944 863.856 335L863.184 335.992C862.352 334.856 861.648 333.944 861.056 333.272V340.488H859.936V333.384C859.248 334.904 858.336 336.28 857.2 337.512L856.72 336.264C858.208 334.856 859.28 333.272 859.936 331.512V331.4H857.136V330.328ZM877.776 326.264L878.784 326.872C878.032 328.2 877.28 329.288 876.528 330.136C875.728 331.064 874.656 331.976 873.328 332.872L872.704 331.864C873.792 331.24 874.784 330.424 875.664 329.416C876.432 328.52 877.136 327.48 877.776 326.264ZM878.304 333.4H875.072V332.296H884.624C884.576 334.296 884.48 335.912 884.32 337.144C884.16 338.36 883.904 339.224 883.536 339.704C883.184 340.168 882.608 340.424 881.808 340.472H878.896L878.576 339.336C879.504 339.368 880.384 339.384 881.216 339.384C882.08 339.384 882.64 339.016 882.912 338.28C883.2 337.512 883.376 335.896 883.456 333.4H879.472C879.088 335.144 878.56 336.536 877.872 337.56C877.056 338.712 875.824 339.736 874.192 340.648L873.456 339.688C874.928 338.888 876.048 338.008 876.8 337.048C877.472 336.12 877.968 334.904 878.304 333.4ZM882.288 326.056C883.216 328.52 884.864 330.472 887.248 331.896L886.48 332.808C884 331.208 882.272 329.144 881.296 326.616L882.288 326.056ZM892.416 332.232V340.552H891.28V332.376C890.736 334.008 890.016 335.48 889.12 336.808L888.624 335.56C889.84 333.992 890.704 332.184 891.216 330.168H888.944V329.064H891.28V325.928H892.416V329.064H894.576V330.168H892.416V331.032C893.168 331.816 893.936 332.696 894.72 333.688L894.096 334.6C893.456 333.608 892.896 332.824 892.416 332.232ZM902.16 325.992L902.736 327.016C900.912 327.672 898.88 328.056 896.64 328.168V331.048H903.136V332.152H900.752V340.568H899.6V332.152H896.64V332.328C896.528 335.736 895.712 338.456 894.208 340.472L893.392 339.624C894.704 337.864 895.424 335.432 895.52 332.328V327.192C897.984 327.128 900.192 326.728 902.16 325.992Z" fill="black"/>
<path d="M490 287L484 281L490 275L491.4 276.4L486.8 281L491.4 285.6L490 287Z" fill="#025CB9"/>
</svg>
