<svg width="1220" height="345" viewBox="0 0 1220 345" fill="none" xmlns="http://www.w3.org/2000/svg">
<path d="M578.98 13.66H581.1V16.42H587.44V28H585.38V26.98H581.1V31.98H578.98V26.98H574.62V28.14H572.56V16.42H578.98V13.66ZM574.62 25.02H578.98V22.6H574.62V25.02ZM581.1 25.02H585.38V22.6H581.1V25.02ZM574.62 20.74H578.98V18.36H574.62V20.74ZM581.1 20.74H585.38V18.36H581.1V20.74ZM601.96 13.58H603.98V14.68H608.72V16.36H603.98V17.2H608.02V18.84H603.98V19.7H609.2V21.42H596.8V19.7H601.96V18.84H598.2V17.2H601.96V16.36H597.36V14.68H601.96V13.58ZM600.14 26.46V27.44H605.86V26.46H600.14ZM605.86 24.9V23.9H600.14V24.9H605.86ZM600.14 29.02V32.08H598.18V22.22H607.86V30.02C607.86 31.3 607.2 31.96 605.9 31.96H604.24L603.74 30.14L605.32 30.22C605.68 30.22 605.86 30 605.86 29.58V29.02H600.14ZM593.56 13.72C594.82 14.68 595.9 15.66 596.8 16.62L595.36 18.06C594.6 17.14 593.5 16.18 592.08 15.14L593.56 13.72ZM590.72 19.48H595.4V27.64C595.88 27.18 596.36 26.68 596.86 26.16L597.42 28.36C596.22 29.54 594.96 30.6 593.64 31.54L592.86 29.66C593.2 29.36 593.38 28.98 593.38 28.54V21.48H590.72V19.48ZM616.76 22.3L616.3 20.54C616.48 20.48 616.62 20.42 616.72 20.36C617.38 19.96 618.22 18.92 619.24 17.26H616.24V15.38H621.5C621.26 14.78 621.02 14.22 620.76 13.7L622.88 13.34C623.12 13.94 623.38 14.62 623.62 15.38H628.68V17.26H621.4C620.66 18.58 620 19.6 619.42 20.32C621.3 20.2 623.2 20.02 625.08 19.8C624.72 19.32 624.36 18.86 624 18.42L625.68 17.38C627.08 19.02 628.14 20.46 628.88 21.7L627.14 22.9C626.86 22.44 626.58 21.96 626.26 21.48C623.34 21.8 620.16 22.08 616.76 22.3ZM612.86 13.72C614.06 14.56 615.1 15.42 615.94 16.28L614.46 17.76C613.74 16.96 612.7 16.08 611.36 15.16L612.86 13.72ZM612.38 18.5C613.62 19.46 614.68 20.44 615.52 21.4L614.04 22.88C613.3 21.98 612.26 21 610.9 19.94L612.38 18.5ZM613.84 23.92L615.68 24.64C614.92 27.18 614.08 29.58 613.16 31.82L611.24 30.96C612.24 28.68 613.12 26.32 613.84 23.92ZM620.6 22.88H622.72V31.68H620.6V22.88ZM617.32 22.88H619.36C619.28 25.52 619.02 27.46 618.58 28.7C618.1 29.98 617.28 31.12 616.14 32.08L614.82 30.4C615.7 29.66 616.34 28.78 616.7 27.76C617.04 26.8 617.24 25.16 617.32 22.88ZM627.26 31.9H626.44C625 31.9 624.28 31.28 624.28 30.06V22.88H626.26V29.64C626.26 29.84 626.34 29.96 626.5 30H627.16C627.4 29.96 627.52 29.68 627.54 29.16C627.58 28.62 627.6 27.88 627.6 26.96L629.42 27.64C629.42 29.58 629.28 30.76 629 31.18C628.74 31.58 628.16 31.82 627.26 31.9ZM639.1 14.2H648.08V20.36H639.1V14.2ZM646.06 18.52V16.04H641.14V18.52H646.06ZM638.56 21.8H648.66V23.68H644.54V25.56H648.04V27.42H644.54V29.46H649.14V31.42H637.8V29.46H642.42V27.42H639.02V25.56H642.42V23.68H638.56V21.8ZM631.08 18.84H633.78V16.6C633.04 16.7 632.28 16.78 631.52 16.86L631.1 14.9C633.56 14.7 635.76 14.32 637.7 13.72L638.44 15.68C637.58 15.92 636.68 16.12 635.76 16.28V18.84H637.94V20.82H635.76V21.6C636.64 22.4 637.54 23.26 638.44 24.22L637.26 26C636.68 25.04 636.18 24.24 635.76 23.6V32H633.78V23.92C633.16 25.52 632.4 26.98 631.48 28.32L630.56 25.98C631.9 24.46 632.9 22.74 633.54 20.82H631.08V18.84Z" fill="#025CB9"/>
<rect x="530.5" y="0.5" width="159" height="45" stroke="#025CB9"/>
<path d="M223 110L587 110" stroke="#025CB9"/>
<path d="M633 110L997 110" stroke="#025CB9"/>
<path d="M200.14 102.72H201.9V117H199.56V105.54C198.7 106.32 197.62 106.9 196.3 107.28V104.96C196.94 104.8 197.62 104.52 198.34 104.12C199.06 103.68 199.66 103.22 200.14 102.72Z" fill="#025CB9"/>
<rect x="176.5" y="86.5" width="47" height="47" rx="23.5" stroke="#025CB9"/>
<path d="M131.408 160.512V163.312H135.472V160.512H131.408ZM131.344 164.368C131.168 166.416 130.576 168.112 129.552 169.456L128.672 168.672C129.696 167.248 130.224 165.44 130.256 163.248V155.568H142.176V167.552C142.176 168.672 141.616 169.232 140.496 169.232H138.656L138.352 168.096C138.992 168.128 139.584 168.16 140.128 168.16C140.704 168.16 141.008 167.824 141.008 167.152V164.368H136.656V169.056H135.472V164.368H131.344ZM141.008 163.312V160.512H136.656V163.312H141.008ZM141.008 159.44V156.688H136.656V159.44H141.008ZM135.472 156.688H131.408V159.44H135.472V156.688ZM156.784 158.032H147.648V161.152H156.784V158.032ZM147.648 162.272C147.568 165.136 146.816 167.6 145.376 169.664L144.528 168.896C145.824 167.104 146.48 164.768 146.512 161.904V156.896H151.728C151.44 156.224 151.136 155.6 150.8 155.024L152.032 154.832C152.32 155.44 152.608 156.128 152.896 156.896H157.952V162.272H147.648ZM162.64 169.456H161.2L160.96 168.336C161.408 168.368 161.824 168.4 162.24 168.4C162.624 168.4 162.832 168.192 162.832 167.792V163.888C162.224 164.128 161.6 164.352 160.976 164.544L160.704 163.392C161.424 163.216 162.128 162.992 162.832 162.72V159.104H160.896V158H162.832V154.976H164.016V158H165.632V159.104H164.016V162.224C164.48 162 164.944 161.776 165.392 161.52V162.688C164.944 162.928 164.48 163.152 164.016 163.376V168.096C164.016 168.992 163.552 169.456 162.64 169.456ZM166.88 155.488H173.856V161.04H166.88V155.488ZM172.736 160.096V158.72H168V160.096H172.736ZM168 157.824H172.736V156.432H168V157.824ZM165.76 162.16H174.912V163.184H170.912V164.992H174.256V166.032H170.912V168.096C171.552 168.192 172.304 168.24 173.184 168.24C174.016 168.24 174.736 168.208 175.328 168.16L175.008 169.28C174.368 169.28 173.776 169.264 173.264 169.264C171.152 169.248 169.712 169.04 168.944 168.656C168.336 168.336 167.776 167.728 167.296 166.832C166.912 167.824 166.384 168.736 165.696 169.568L164.848 168.832C166.064 167.36 166.736 165.696 166.864 163.872L167.888 163.984C167.856 164.56 167.776 165.104 167.648 165.648C168.16 166.72 168.752 167.408 169.424 167.712C169.536 167.76 169.664 167.808 169.808 167.856V163.184H165.76V162.16ZM176.928 156.832H183.536C183.248 156.176 182.928 155.584 182.576 155.04L183.856 154.816C184.176 155.424 184.496 156.096 184.784 156.832H191.088V157.936H176.928V156.832ZM186.528 158.416C188.304 159.824 189.792 161.216 190.992 162.624L190.144 163.472C189.088 162.128 187.616 160.704 185.744 159.168L186.528 158.416ZM186.688 161.408L187.744 161.872C186.976 163.344 186.048 164.608 184.944 165.68C186.672 166.928 188.768 167.856 191.264 168.496L190.544 169.568C187.952 168.832 185.792 167.808 184.064 166.464C182.272 167.904 180.096 168.96 177.536 169.632L176.832 168.576C179.36 167.936 181.456 166.976 183.136 165.696C181.968 164.64 181.008 163.424 180.256 162.08L181.248 161.52C181.952 162.832 182.88 163.968 184.016 164.944C185.104 163.92 186 162.752 186.688 161.408ZM181.376 158.432L182.208 159.168C180.992 160.752 179.488 162.144 177.696 163.328L176.96 162.352C178.704 161.232 180.176 159.936 181.376 158.432ZM198.912 154.768L200.112 154.928C199.984 155.408 199.824 155.856 199.632 156.272H204.32V163.328C205.152 162.4 205.76 161.424 206.16 160.432L207.152 161.056C206.384 162.528 205.44 163.792 204.32 164.832V168.24C204.32 169.168 203.888 169.632 203.056 169.632H201.344L201.04 168.528L202.688 168.576C203.008 168.576 203.184 168.368 203.184 167.984V165.776C202.832 166.032 202.496 166.272 202.144 166.496C199.952 167.792 197.2 168.72 193.904 169.296L193.392 168.256C197.568 167.52 200.576 166.448 202.432 165.056L202.656 164.88H193.296V163.824H195.216V156.272H198.432C198.64 155.792 198.8 155.28 198.912 154.768ZM196.368 163.824H203.184V162.208H196.368V163.824ZM196.368 161.216H203.184V159.776H196.368V161.216ZM196.368 158.8H203.184V157.296H196.368V158.8ZM216.176 162.304H214.176V161.184H221.248C221.248 164.576 221.168 166.672 221.008 167.488C220.88 168.736 220.224 169.36 219.056 169.36C218.72 169.36 218.16 169.344 217.36 169.312L217.088 168.224C217.776 168.256 218.368 168.288 218.88 168.288C219.488 168.288 219.824 167.856 219.92 167.008C220.016 166.496 220.08 164.928 220.112 162.304H217.312C217.04 164.064 216.672 165.456 216.192 166.48C215.616 167.6 214.768 168.624 213.632 169.52L212.896 168.576C213.888 167.792 214.64 166.928 215.152 165.968C215.6 165.04 215.952 163.808 216.176 162.304ZM212.304 154.912L213.36 155.392C212.944 156.608 212.432 157.744 211.808 158.832V169.632H210.624V160.608C210.096 161.312 209.52 161.984 208.896 162.624L208.528 161.424C210.256 159.536 211.504 157.36 212.304 154.912ZM215.792 155.088L216.848 155.504C215.92 158.24 214.704 160.32 213.2 161.76L212.304 160.992C213.84 159.536 215.008 157.568 215.792 155.088ZM219.584 154.896C220.288 157.232 221.536 159.136 223.312 160.624L222.544 161.52C220.656 159.952 219.344 157.92 218.608 155.44L219.584 154.896ZM234.032 155.008H235.216C235.216 156.352 235.168 157.616 235.072 158.768C235.92 162.864 237.392 166.128 239.488 168.528L238.656 169.488C236.944 167.312 235.648 164.624 234.752 161.456C234.672 161.904 234.592 162.32 234.512 162.736C233.904 165.488 232.544 167.76 230.416 169.52L229.632 168.576C231.488 167.008 232.736 165.04 233.344 162.656C233.792 160.656 234.032 158.112 234.032 155.008ZM226.592 155.088C227.68 155.904 228.592 156.72 229.328 157.552L228.544 158.352C227.872 157.568 226.944 156.736 225.792 155.872L226.592 155.088ZM224.72 159.824H228.176V166.816C228.752 166.336 229.376 165.792 230.032 165.168L230.32 166.352C229.328 167.296 228.272 168.144 227.152 168.88L226.704 167.856C226.944 167.664 227.072 167.424 227.072 167.168V160.928H224.72V159.824ZM250.624 156.816H246.128V155.68H255.104V156.816H251.792V161.312H254.88V162.384H251.792V167.92H255.424V169.056H245.632V167.92H247.264V159.456H248.384V167.92H250.624V156.816ZM242.656 155.088C243.696 155.92 244.576 156.736 245.296 157.552L244.512 158.352C243.856 157.552 242.976 156.72 241.856 155.84L242.656 155.088ZM240.704 159.824H244.128V166.736C244.64 166.288 245.184 165.776 245.776 165.2L246.08 166.432C245.152 167.328 244.176 168.144 243.136 168.864L242.688 167.824C242.912 167.632 243.024 167.408 243.024 167.152V160.928H240.704V159.824ZM259.648 160.576V160.992C259.552 164.576 258.816 167.424 257.472 169.552L256.624 168.672C257.792 166.816 258.416 164.256 258.512 160.992V156.192C262.64 156.144 266.336 155.776 269.632 155.088L270.208 156.128C267.072 156.768 263.552 157.12 259.648 157.216V159.456H271.168V160.576H259.648ZM269.904 162.816V169.6H268.752V168.848H262.272V169.6H261.12V162.816H269.904ZM262.272 167.728H268.752V163.92H262.272V167.728ZM130.656 183.648H135.424V182.64H136.576V183.648H141.28V184.656H136.576V186.208H143.104V187.216H140.016V188.752H142.416V189.76H140.016V192.272C140.016 193.152 139.536 193.6 138.592 193.6H136.272L136.032 192.512C136.8 192.56 137.52 192.592 138.192 192.592C138.64 192.592 138.864 192.384 138.864 192V189.76H129.824V188.752H138.864V187.216H128.88V186.208H135.424V184.656H130.656V183.648ZM132.528 190.208C133.392 191.04 134.048 191.792 134.496 192.432L133.6 193.056C133.104 192.368 132.432 191.616 131.6 190.784L132.528 190.208ZM131.232 181.072C130.848 181.808 130.4 182.496 129.904 183.104L128.912 182.48C129.84 181.376 130.528 180.16 130.96 178.848L132.048 179.088C131.92 179.44 131.808 179.776 131.68 180.096H135.776V181.072H133.072C133.488 181.632 133.824 182.144 134.08 182.624L133.04 183.008C132.72 182.336 132.32 181.696 131.872 181.072H131.232ZM137.728 181.024C137.456 181.568 137.152 182.048 136.832 182.496L135.872 181.888C136.576 180.96 137.072 179.952 137.392 178.832L138.48 179.056C138.384 179.392 138.272 179.728 138.16 180.048H142.768V181.024H139.872C140.304 181.584 140.64 182.112 140.88 182.592L139.888 182.96C139.552 182.288 139.152 181.648 138.672 181.024H137.728ZM147.952 178.832L148.96 179.296C148.128 181.056 146.8 182.624 144.944 183.984L144.608 182.88C146.144 181.696 147.248 180.352 147.952 178.832ZM148.544 182.512L149.536 182.976C149.152 183.84 148.672 184.656 148.096 185.424V193.52H146.992V186.704C146.416 187.312 145.776 187.872 145.088 188.4L144.752 187.296C146.48 185.904 147.744 184.304 148.544 182.512ZM153.936 178.896H155.04V180.64H158.64V181.68H155.04V183.68H159.296V184.736H149.76V183.68H153.936V181.68H150.368V180.64H153.936V178.896ZM149.84 186.688H156.048V185.504H157.2V186.688H159.072V187.76H157.2V191.872C157.2 192.912 156.672 193.44 155.648 193.44H153.376L153.12 192.336C153.856 192.384 154.576 192.416 155.248 192.416C155.776 192.416 156.048 192.128 156.048 191.584V187.76H149.84V186.688ZM151.728 188.384C152.624 189.296 153.312 190.096 153.792 190.768L152.896 191.408C152.384 190.672 151.696 189.84 150.832 188.944L151.728 188.384ZM172.576 185.248V188.384H164.592V189.488H173.312V193.6H172.176V192.928H164.592V193.584H163.44V185.248H172.576ZM164.592 191.904H172.176V190.416H164.592V191.904ZM164.592 187.456H171.456V186.176H164.592V187.456ZM174.784 183.312V186.208H173.664V184.304H162.336V186.208H161.216V183.312H167.552C167.392 182.928 167.232 182.592 167.056 182.272L168.176 182.08L168.08 182.016C168.848 181.056 169.392 180.016 169.744 178.864L170.848 179.104C170.736 179.44 170.624 179.76 170.496 180.08H175.12V181.088H172.272C172.608 181.536 172.88 181.952 173.072 182.336L172.048 182.72C171.76 182.144 171.424 181.6 171.04 181.088H170.032C169.744 181.632 169.408 182.144 169.056 182.624L168.192 182.096C168.368 182.464 168.544 182.864 168.704 183.312H174.784ZM163.136 181.088C162.752 181.712 162.336 182.288 161.856 182.816L160.848 182.176C161.808 181.184 162.512 180.064 162.96 178.848L164.064 179.088C163.936 179.44 163.792 179.76 163.664 180.08H167.952V181.088H165.264C165.616 181.568 165.92 182.032 166.144 182.464L165.088 182.864C164.8 182.256 164.448 181.664 164.048 181.088H163.136ZM182.656 179.568H190.48V186.96H187.152V188.848H190.752V189.936H187.152V192.016H191.344V193.12H181.712V192.016H186V189.936H182.384V188.848H186V186.96H182.656V179.568ZM189.376 185.936V183.776H187.152V185.936H189.376ZM186 185.936V183.776H183.76V185.936H186ZM183.76 182.768H186V180.592H183.76V182.768ZM187.152 180.592V182.768H189.376V180.592H187.152ZM177.008 184.864H178.752V181.072H176.784V179.984H181.888V181.072H179.936V184.864H181.696V185.968H179.936V189.6C180.544 189.392 181.12 189.168 181.696 188.912V190.032C180.224 190.64 178.64 191.152 176.944 191.568L176.656 190.464C177.36 190.336 178.064 190.176 178.752 189.984V185.968H177.008V184.864ZM205.392 184.736V190.704H204.256V185.792H195.76V190.896H194.624V184.736H205.392ZM195.584 179.52H204.432V183.536H195.584V179.52ZM203.312 182.528V180.544H196.704V182.528H203.312ZM199.568 186.832L200.736 186.928C200.512 189.28 200.016 190.864 199.248 191.696C198.416 192.688 196.512 193.328 193.536 193.6L193.088 192.56C195.68 192.4 197.408 191.888 198.256 191.008C198.992 190.192 199.44 188.8 199.568 186.832ZM201.152 190.544C203.232 191.136 205.136 191.856 206.864 192.688L206.24 193.648C204.4 192.688 202.512 191.952 200.576 191.408L201.152 190.544ZM211.92 187.504V189.344H215.472V187.504H211.92ZM215.472 190.4H211.92V191.344H210.8V183.584H215.472V181.984H216.624V183.584H221.344V191.296H220.224V190.4H216.624V193.648H215.472V190.4ZM216.624 189.344H220.224V187.504H216.624V189.344ZM220.224 186.48V184.64H216.624V186.48H220.224ZM215.472 184.64H211.92V186.48H215.472V184.64ZM222.64 180.144V182.944H221.52V181.184H210.416V183.024H209.296V180.144H215.392C215.232 179.728 215.072 179.344 214.896 178.992L216.112 178.784C216.272 179.184 216.416 179.632 216.576 180.144H222.64ZM228.176 185.456V193.6H227.072V185.584C226.56 187.216 225.888 188.688 225.072 190L224.592 188.832C225.728 187.168 226.544 185.28 227.024 183.168H224.864V182.064H227.072V178.944H228.176V182.064H230.064V183.168H228.176V184.208C228.944 185.088 229.712 186.08 230.512 187.2L229.872 188.176C229.216 187.056 228.656 186.144 228.176 185.456ZM230.464 180.688H234.464C234.24 180.112 233.984 179.584 233.696 179.104L234.88 178.912C235.12 179.424 235.36 180.016 235.584 180.688H239.136V181.728H234.752C233.872 183.28 233.104 184.384 232.432 185.04C233.456 184.976 234.464 184.912 235.456 184.832C235.872 184.256 236.24 183.664 236.56 183.024L237.488 183.52C235.888 186.688 233.552 188.864 230.448 190.016L229.824 189.056C231.76 188.368 233.376 187.296 234.688 185.824C233.568 185.888 232.368 185.952 231.104 186L230.864 185.056C230.96 185.024 231.024 184.992 231.088 184.96C231.728 184.544 232.544 183.472 233.568 181.728H230.464V180.688ZM235.584 190.352C234.048 191.728 232.272 192.784 230.224 193.488L229.6 192.496C233.36 191.264 236.176 188.896 238.048 185.392L239.024 185.904C238.256 187.344 237.344 188.592 236.304 189.648C237.456 190.672 238.448 191.68 239.248 192.688L238.416 193.52C237.712 192.528 236.768 191.472 235.584 190.352ZM242.016 179.184C243.12 180.016 244.048 180.848 244.8 181.68L243.984 182.48C243.312 181.68 242.4 180.832 241.232 179.936L242.016 179.184ZM251.376 193.312C250.496 193.312 249.536 193.296 248.512 193.28C247.472 193.264 246.624 193.168 245.984 192.992C245.344 192.8 244.768 192.4 244.272 191.824C244.048 191.552 243.84 191.424 243.648 191.424C243.264 191.424 242.624 192.16 241.744 193.632L240.88 192.848C241.728 191.504 242.48 190.688 243.136 190.4V185.536H240.864V184.48H244.208V190.464C244.336 190.56 244.464 190.672 244.608 190.832C244.992 191.296 245.408 191.632 245.856 191.84C246.368 192.064 247.088 192.192 248.048 192.224C248.896 192.24 249.952 192.256 251.216 192.256C251.952 192.256 252.72 192.24 253.504 192.224C254.272 192.208 254.864 192.192 255.28 192.16L255.008 193.312H251.376ZM248.512 180.72C249.184 181.12 249.808 181.52 250.352 181.92C251.184 181.488 251.952 181.008 252.656 180.464H245.552V179.488H254.208V180.32C253.248 181.152 252.208 181.872 251.088 182.48L251.344 182.688H254.512V189.84C254.512 190.656 254.064 191.072 253.168 191.072H251.84L251.584 190.096L252.848 190.144C253.232 190.144 253.424 189.952 253.424 189.6V188.4H250.736V191.152H249.664V188.4H246.992V191.2H245.904V182.688H249.904C249.296 182.256 248.592 181.824 247.808 181.408L248.512 180.72ZM246.992 186.048V187.456H249.664V186.048H246.992ZM250.736 186.048V187.456H253.424V186.048H250.736ZM253.424 185.088V183.648H250.736V185.088H253.424ZM249.664 185.088V183.648H246.992V185.088H249.664ZM257.968 179.152C259.056 180 259.968 180.848 260.704 181.68L259.872 182.528C259.216 181.712 258.32 180.832 257.168 179.904L257.968 179.152ZM267.696 193.312C266.784 193.312 265.792 193.296 264.72 193.28C263.632 193.264 262.752 193.168 262.096 192.992C261.424 192.8 260.832 192.4 260.32 191.824C260.096 191.552 259.872 191.424 259.664 191.424C259.28 191.424 258.624 192.16 257.728 193.664L256.864 192.896C257.728 191.52 258.48 190.688 259.152 190.4V185.552H256.848V184.464H260.256V190.464C260.384 190.56 260.528 190.672 260.672 190.832C261.088 191.28 261.52 191.616 261.984 191.84C262.496 192.048 263.264 192.16 264.256 192.192C265.136 192.208 266.24 192.224 267.552 192.224C268.256 192.224 268.96 192.208 269.696 192.208C270.416 192.192 270.976 192.176 271.36 192.144L271.072 193.312H267.696ZM267.216 191.168H264.944L264.688 190.064C265.424 190.112 266.144 190.144 266.816 190.144C267.264 190.144 267.504 189.92 267.504 189.488V182.688H261.456V181.552H267.504V178.96H268.672V181.552H271.04V182.688H268.672V189.76C268.672 190.688 268.176 191.168 267.216 191.168ZM263.2 184.112C264.224 185.296 265.008 186.336 265.552 187.232L264.624 187.872C264.048 186.912 263.28 185.856 262.304 184.688L263.2 184.112Z" fill="black"/>
<path d="M610.22 102.44C611.6 102.44 612.74 102.84 613.64 103.64C614.52 104.44 614.96 105.46 614.96 106.74C614.96 107.98 614.48 109.1 613.56 110.12C613 110.72 612 111.48 610.6 112.42C609.14 113.38 608.26 114.22 607.94 114.94H614.98V117H605.02C605.02 115.54 605.48 114.28 606.44 113.2C606.96 112.6 608.06 111.72 609.72 110.58C610.64 109.94 611.28 109.4 611.68 108.98C612.3 108.28 612.62 107.52 612.62 106.72C612.62 105.94 612.4 105.36 612 104.98C611.58 104.6 610.96 104.42 610.14 104.42C609.26 104.42 608.6 104.72 608.16 105.32C607.72 105.88 607.48 106.74 607.44 107.86H605.1C605.12 106.26 605.58 104.98 606.5 104C607.44 102.96 608.68 102.44 610.22 102.44Z" fill="#025CB9"/>
<rect x="586.5" y="86.5" width="47" height="47" rx="23.5" stroke="#025CB9"/>
<path d="M541.408 160.512V163.312H545.472V160.512H541.408ZM541.344 164.368C541.168 166.416 540.576 168.112 539.552 169.456L538.672 168.672C539.696 167.248 540.224 165.44 540.256 163.248V155.568H552.176V167.552C552.176 168.672 551.616 169.232 550.496 169.232H548.656L548.352 168.096C548.992 168.128 549.584 168.16 550.128 168.16C550.704 168.16 551.008 167.824 551.008 167.152V164.368H546.656V169.056H545.472V164.368H541.344ZM551.008 163.312V160.512H546.656V163.312H551.008ZM551.008 159.44V156.688H546.656V159.44H551.008ZM545.472 156.688H541.408V159.44H545.472V156.688ZM566.784 158.032H557.648V161.152H566.784V158.032ZM557.648 162.272C557.568 165.136 556.816 167.6 555.376 169.664L554.528 168.896C555.824 167.104 556.48 164.768 556.512 161.904V156.896H561.728C561.44 156.224 561.136 155.6 560.8 155.024L562.032 154.832C562.32 155.44 562.608 156.128 562.896 156.896H567.952V162.272H557.648ZM577.44 154.976H578.624V157.376H583.696V166.32H582.56V165.344H578.624V169.536H577.44V165.344H573.44V166.432H572.304V157.376H577.44V154.976ZM573.44 164.256H577.44V161.856H573.44V164.256ZM578.624 164.256H582.56V161.856H578.624V164.256ZM573.44 160.816H577.44V158.448H573.44V160.816ZM578.624 160.816H582.56V158.448H578.624V160.816ZM595.824 154.928H596.928V155.968H600.896V156.912H596.928V157.984H600.32V158.912H596.928V160H601.296V160.96H591.504V160H595.824V158.912H592.592V157.984H595.824V156.912H591.952V155.968H595.824V154.928ZM593.824 164.992V166.16H598.992V164.992H593.824ZM598.992 164.096V162.912H593.824V164.096H598.992ZM593.824 167.056V169.6H592.72V161.968H600.096V168.208C600.096 169.072 599.632 169.504 598.736 169.504H597.392L597.12 168.48L598.4 168.528C598.784 168.528 598.992 168.336 598.992 167.968V167.056H593.824ZM588.608 155.104C589.68 155.904 590.576 156.72 591.312 157.536L590.528 158.336C589.856 157.568 588.944 156.752 587.792 155.888L588.608 155.104ZM586.672 159.824H590.064V166.848C590.544 166.4 591.04 165.904 591.584 165.344L591.888 166.56C590.992 167.488 590.032 168.32 589.04 169.04L588.592 168.016C588.832 167.792 588.96 167.552 588.96 167.28V160.928H586.672V159.824ZM607.472 156.56H611.664V154.928H612.832V156.56H617.232V157.664H612.832V159.184H616.576V163.712H612.768C612.64 165.152 612.368 166.256 611.936 167.056C613.536 167.936 615.392 168.432 617.488 168.544L617.2 169.648C614.96 169.504 612.992 168.944 611.296 167.952C610.432 168.832 609.072 169.408 607.216 169.68L606.72 168.624C608.352 168.448 609.552 168 610.288 167.296C609.344 166.624 608.496 165.808 607.76 164.864L608.64 164.256C609.328 165.12 610.096 165.84 610.944 166.448C611.28 165.744 611.504 164.832 611.6 163.712H608.016V159.184H611.664V157.664H607.472V156.56ZM615.488 162.672V160.208H612.832V162.288C612.832 162.416 612.816 162.544 612.816 162.672H615.488ZM611.648 162.672C611.648 162.544 611.664 162.416 611.664 162.288V160.208H609.104V162.672H611.648ZM604.544 160.704C604.032 161.424 603.488 162.112 602.88 162.768L602.496 161.552C604.16 159.6 605.36 157.36 606.096 154.832L607.184 155.328C606.784 156.576 606.288 157.76 605.696 158.864V169.632H604.544V160.704ZM621.408 160.512V163.312H625.472V160.512H621.408ZM621.344 164.368C621.168 166.416 620.576 168.112 619.552 169.456L618.672 168.672C619.696 167.248 620.224 165.44 620.256 163.248V155.568H632.176V167.552C632.176 168.672 631.616 169.232 630.496 169.232H628.656L628.352 168.096C628.992 168.128 629.584 168.16 630.128 168.16C630.704 168.16 631.008 167.824 631.008 167.152V164.368H626.656V169.056H625.472V164.368H621.344ZM631.008 163.312V160.512H626.656V163.312H631.008ZM631.008 159.44V156.688H626.656V159.44H631.008ZM625.472 156.688H621.408V159.44H625.472V156.688ZM636.384 155.856H647.776V156.976H636.384V155.856ZM634.848 160.32H649.2V161.472H641.52C640.048 164.496 638.752 166.592 637.664 167.776C640.544 167.616 643.408 167.344 646.272 166.96C645.696 165.936 645.056 164.88 644.352 163.792L645.28 163.216C646.752 165.424 647.888 167.36 648.688 168.992L647.664 169.712C647.408 169.152 647.136 168.592 646.832 168.016C643.584 168.432 640.048 168.752 636.208 169.008L635.904 167.84C636.032 167.808 636.112 167.76 636.176 167.728C637.2 166.96 638.56 164.88 640.24 161.472H634.848V160.32ZM651.328 164.544H657.456V163.456H658.576V164.544H664.656V165.568H659.552C660.768 166.672 662.624 167.536 665.12 168.176L664.608 169.248C661.808 168.352 659.792 167.168 658.576 165.728V169.6H657.456V165.792C656.32 167.12 654.336 168.272 651.488 169.248L650.848 168.208C653.616 167.44 655.52 166.56 656.544 165.568H651.328V164.544ZM657.12 154.88H658.224V155.776H664.128V156.768H658.224V157.808H663.072V162.992H652.976V157.808H657.12V154.88ZM661.984 162.016V160.864H654.064V162.016H661.984ZM654.064 159.92H661.984V158.784H654.064V159.92ZM666.88 155.568H681.12V156.688H674.704C674.576 157.392 674.368 158.08 674.112 158.736H680.256V169.648H679.152V168.848H668.896V169.648H667.792V158.736H672.944C673.2 158.064 673.408 157.392 673.536 156.688H666.88V155.568ZM668.896 167.792H671.104V159.776H668.896V167.792ZM672.176 167.792H675.824V165.744H672.176V167.792ZM676.896 167.792H679.152V159.776H676.896V167.792ZM672.176 164.736H675.824V162.784H672.176V164.736ZM672.176 161.76H675.824V159.776H672.176V161.76ZM574.848 178.752C575.376 179.552 575.888 180.432 576.368 181.392L575.328 181.904C574.848 180.912 574.336 180.032 573.792 179.264L574.848 178.752ZM580.192 183.056H576.08V184.608C576.064 185.408 576.016 186.144 575.936 186.816H580.192V183.056ZM580.192 187.92H575.776C575.584 188.912 575.312 189.76 574.976 190.48C574.304 191.84 573.216 192.896 571.696 193.648L571.024 192.592C572.464 191.856 573.488 190.864 574.064 189.616C574.272 189.104 574.448 188.544 574.576 187.92H570.88V186.816H574.752C574.848 186.128 574.896 185.392 574.912 184.608V183.056H571.536V181.952H579.616C580.224 180.96 580.736 179.888 581.184 178.752L582.416 179.2C581.968 180.224 581.472 181.152 580.928 181.952H584.512V183.056H581.376V186.816H585.136V187.92H581.376V193.52H580.192V187.92ZM588.048 179.184C589.12 180.016 590.032 180.832 590.768 181.664L589.936 182.48C589.296 181.696 588.4 180.848 587.264 179.936L588.048 179.184ZM597.344 193.312C596.48 193.312 595.536 193.296 594.528 193.28C593.504 193.264 592.688 193.168 592.048 192.992C591.424 192.8 590.864 192.4 590.368 191.824C590.16 191.552 589.952 191.424 589.76 191.424C589.376 191.424 588.752 192.16 587.872 193.632L587.008 192.848C587.856 191.504 588.608 190.688 589.264 190.4V185.536H586.976V184.48H590.336V190.464C590.464 190.56 590.592 190.688 590.72 190.832C591.104 191.296 591.504 191.632 591.952 191.84C592.432 192.064 593.152 192.192 594.08 192.224C594.912 192.24 595.952 192.256 597.184 192.256C597.936 192.256 598.704 192.24 599.488 192.224C600.256 192.208 600.864 192.192 601.28 192.16L601.008 193.312H597.344ZM591.872 181.456H593.76V178.912H594.864V181.456H597.392V178.928H598.512V181.456H600.544V182.528H598.512V185.712H601.056V186.8H598.512V191.392H597.392V186.8H594.544C594.128 188.72 593.296 190.144 592.064 191.072L591.376 190.144C592.384 189.424 593.072 188.304 593.424 186.8H591.312V185.712H593.632C593.712 185.104 593.76 184.464 593.76 183.792V182.528H591.872V181.456ZM594.864 182.528V183.536C594.864 184.304 594.816 185.04 594.736 185.712H597.392V182.528H594.864ZM608.8 179.952H616.464V181.088H608.8V179.952ZM608.368 184.016H617.168V185.152H614.576V192.144C614.576 193.072 614.048 193.536 613.024 193.536H610.672L610.432 192.4C611.2 192.448 611.92 192.48 612.624 192.48C613.136 192.48 613.408 192.272 613.408 191.856V185.152H608.368V184.016ZM606.272 179.072L607.312 179.552C606.416 181.328 604.976 182.896 602.992 184.256L602.656 183.104C604.32 181.92 605.52 180.576 606.272 179.072ZM607.024 182.72L608.064 183.2C607.6 184.096 607.024 184.96 606.32 185.76V193.6H605.184V186.928C604.544 187.504 603.856 188.064 603.088 188.592L602.752 187.44C604.704 186.064 606.128 184.496 607.024 182.72ZM626.32 178.944H627.424V193.6H626.32V190.08H623.168V189.024H626.32V186.256H624.064V185.2H626.32V182.544H623.808V181.504H626.32V178.944ZM620.48 193.456H619.008L618.752 192.336C619.216 192.368 619.664 192.4 620.08 192.4C620.528 192.4 620.768 192.208 620.768 191.824V188C620.192 188.224 619.6 188.448 619.008 188.64L618.736 187.472C619.424 187.296 620.096 187.088 620.768 186.832V183.104H619.04V182H620.768V178.976H621.888V182H623.312V183.104H621.888V186.368C622.416 186.112 622.928 185.856 623.44 185.568V186.752C622.928 187.024 622.416 187.28 621.888 187.52V192.112C621.888 193.008 621.408 193.456 620.48 193.456ZM629.328 178.944H630.448V181.504H633.184V182.544H630.448V185.2H632.848V186.256H630.448V189.024H633.296V190.08H630.448V193.6H629.328V178.944ZM635.376 179.6H640.224V180.512C639.728 181.952 639.152 183.456 638.48 185.024C639.52 186.432 640.08 187.696 640.16 188.848C640.16 189.536 639.984 190.032 639.664 190.336C639.216 190.72 638.448 190.912 637.328 190.928L636.944 189.76C637.2 189.792 637.408 189.824 637.568 189.824C638.144 189.792 638.544 189.696 638.736 189.568C638.928 189.424 639.04 189.184 639.04 188.848C639.04 187.76 638.464 186.544 637.328 185.2C638.096 183.536 638.672 182.032 639.088 180.688H636.496V193.616H635.376V179.6ZM643.696 179.04H644.832C644.832 180.624 644.752 182.08 644.624 183.392C645.552 187.232 647.152 190.256 649.424 192.48L648.592 193.456C646.672 191.424 645.232 188.912 644.272 185.92C644.208 186.208 644.16 186.48 644.096 186.752C643.488 189.504 642.064 191.76 639.824 193.52L639.056 192.608C641.008 191.04 642.304 189.056 642.944 186.688C643.424 184.688 643.68 182.144 643.696 179.04Z" fill="black"/>
<path d="M405.6 110L401 105.4L402.4 104L408.4 110L402.4 116L401 114.6L405.6 110Z" fill="#025CB9"/>
<path d="M815.6 110L811 105.4L812.4 104L818.4 110L812.4 116L811 114.6L815.6 110Z" fill="#025CB9"/>
<path d="M1020.14 102.44C1021.58 102.44 1022.76 102.78 1023.64 103.48C1024.5 104.18 1024.94 105.14 1024.94 106.38C1024.94 107.94 1024.14 108.98 1022.56 109.5C1023.4 109.76 1024.06 110.14 1024.5 110.66C1024.98 111.2 1025.22 111.9 1025.22 112.74C1025.22 114.06 1024.76 115.14 1023.84 115.98C1022.88 116.84 1021.62 117.28 1020.06 117.28C1018.58 117.28 1017.38 116.9 1016.48 116.14C1015.48 115.3 1014.92 114.06 1014.8 112.46H1017.18C1017.22 113.38 1017.5 114.1 1018.06 114.6C1018.56 115.06 1019.22 115.3 1020.04 115.3C1020.94 115.3 1021.66 115.04 1022.18 114.54C1022.64 114.08 1022.88 113.52 1022.88 112.84C1022.88 112.02 1022.62 111.42 1022.14 111.04C1021.66 110.64 1020.96 110.46 1020.04 110.46H1019.04V108.7H1020.04C1020.88 108.7 1021.52 108.52 1021.96 108.16C1022.38 107.8 1022.6 107.26 1022.6 106.56C1022.6 105.86 1022.4 105.34 1022.02 104.98C1021.6 104.62 1020.98 104.44 1020.16 104.44C1019.32 104.44 1018.68 104.64 1018.22 105.06C1017.74 105.48 1017.46 106.12 1017.38 106.98H1015.08C1015.2 105.54 1015.72 104.42 1016.68 103.62C1017.58 102.82 1018.74 102.44 1020.14 102.44Z" fill="#025CB9"/>
<rect x="996.5" y="86.5" width="47" height="47" rx="23.5" stroke="#025CB9"/>
<path d="M895.408 160.512V163.312H899.472V160.512H895.408ZM895.344 164.368C895.168 166.416 894.576 168.112 893.552 169.456L892.672 168.672C893.696 167.248 894.224 165.44 894.256 163.248V155.568H906.176V167.552C906.176 168.672 905.616 169.232 904.496 169.232H902.656L902.352 168.096C902.992 168.128 903.584 168.16 904.128 168.16C904.704 168.16 905.008 167.824 905.008 167.152V164.368H900.656V169.056H899.472V164.368H895.344ZM905.008 163.312V160.512H900.656V163.312H905.008ZM905.008 159.44V156.688H900.656V159.44H905.008ZM899.472 156.688H895.408V159.44H899.472V156.688ZM920.784 158.032H911.648V161.152H920.784V158.032ZM911.648 162.272C911.568 165.136 910.816 167.6 909.376 169.664L908.528 168.896C909.824 167.104 910.48 164.768 910.512 161.904V156.896H915.728C915.44 156.224 915.136 155.6 914.8 155.024L916.032 154.832C916.32 155.44 916.608 156.128 916.896 156.896H921.952V162.272H911.648ZM927.584 161.664H936.48V165.552H927.584V161.664ZM935.328 164.528V162.672H928.736V164.528H935.328ZM929.008 165.904C929.552 166.496 930.048 167.2 930.496 168.032H933.664C934.16 167.328 934.592 166.592 934.96 165.824L936.048 166.192C935.696 166.88 935.312 167.488 934.896 168.032H938.832V169.136H925.136V168.032H929.296C928.912 167.424 928.464 166.848 927.92 166.304L929.008 165.904ZM926.448 157.12C927.312 157.728 928.032 158.32 928.64 158.912C929.376 158.208 929.968 157.424 930.416 156.592H926.416V155.536H931.728V156.4C931.28 157.456 930.656 158.416 929.856 159.264H934.784C933.664 158.144 932.8 156.896 932.192 155.552L933.136 155.024C933.424 155.696 933.792 156.336 934.224 156.944C934.928 156.432 935.52 155.856 936.016 155.216L936.832 155.936C936.272 156.624 935.616 157.232 934.864 157.76C935.216 158.192 935.616 158.592 936.048 158.976C936.832 158.4 937.488 157.76 938.032 157.056L938.832 157.776C938.288 158.48 937.632 159.12 936.88 159.664C937.68 160.272 938.56 160.832 939.536 161.312L938.784 162.192C937.392 161.44 936.192 160.592 935.184 159.648V160.32H929.344V159.776C928.288 160.736 926.976 161.536 925.408 162.192L924.72 161.296C925.904 160.816 926.944 160.24 927.84 159.584C927.248 159.024 926.528 158.448 925.68 157.856L926.448 157.12ZM942.752 155.536H951.984V160.736H954.864V161.776H948.48V163.6C948.864 164.048 949.264 164.464 949.712 164.864C950.848 164.224 951.84 163.312 952.672 162.128L953.552 162.864C952.656 164.016 951.648 164.896 950.496 165.504C951.744 166.48 953.216 167.344 954.912 168.08L954.336 169.104C951.872 167.952 949.92 166.544 948.48 164.88V168.176C948.48 169.136 948.048 169.616 947.216 169.616H945.376L945.136 168.528C945.728 168.576 946.288 168.608 946.832 168.608C947.152 168.608 947.328 168.368 947.328 167.904V164.976C945.68 166.48 943.712 167.824 941.44 169.04L940.976 167.968C943.44 166.8 945.552 165.408 947.328 163.776V161.776H941.152V160.736H950.816V159.184H943.296V158.176H950.816V156.576H942.752V155.536ZM942.88 162.384C943.856 163.056 944.672 163.744 945.328 164.416L944.592 165.168C943.984 164.528 943.168 163.84 942.112 163.12L942.88 162.384ZM958.384 155.856H969.776V156.976H958.384V155.856ZM956.848 160.32H971.2V161.472H963.52C962.048 164.496 960.752 166.592 959.664 167.776C962.544 167.616 965.408 167.344 968.272 166.96C967.696 165.936 967.056 164.88 966.352 163.792L967.28 163.216C968.752 165.424 969.888 167.36 970.688 168.992L969.664 169.712C969.408 169.152 969.136 168.592 968.832 168.016C965.584 168.432 962.048 168.752 958.208 169.008L957.904 167.84C958.032 167.808 958.112 167.76 958.176 167.728C959.2 166.96 960.56 164.88 962.24 161.472H956.848V160.32ZM973.328 164.544H979.456V163.456H980.576V164.544H986.656V165.568H981.552C982.768 166.672 984.624 167.536 987.12 168.176L986.608 169.248C983.808 168.352 981.792 167.168 980.576 165.728V169.6H979.456V165.792C978.32 167.12 976.336 168.272 973.488 169.248L972.848 168.208C975.616 167.44 977.52 166.56 978.544 165.568H973.328V164.544ZM979.12 154.88H980.224V155.776H986.128V156.768H980.224V157.808H985.072V162.992H974.976V157.808H979.12V154.88ZM983.984 162.016V160.864H976.064V162.016H983.984ZM976.064 159.92H983.984V158.784H976.064V159.92ZM988.88 155.568H1003.12V156.688H996.704C996.576 157.392 996.368 158.08 996.112 158.736H1002.26V169.648H1001.15V168.848H990.896V169.648H989.792V158.736H994.944C995.2 158.064 995.408 157.392 995.536 156.688H988.88V155.568ZM990.896 167.792H993.104V159.776H990.896V167.792ZM994.176 167.792H997.824V165.744H994.176V167.792ZM998.896 167.792H1001.15V159.776H998.896V167.792ZM994.176 164.736H997.824V162.784H994.176V164.736ZM994.176 161.76H997.824V159.776H994.176V161.76ZM1006.98 166.096C1007.33 166.096 1007.63 166.24 1007.86 166.544C1008.06 166.832 1008.18 167.2 1008.18 167.664C1008.18 168.368 1007.97 168.992 1007.55 169.536C1007.14 170.048 1006.58 170.4 1005.9 170.576V169.792C1006.32 169.648 1006.66 169.408 1006.91 169.088C1007.15 168.752 1007.26 168.4 1007.26 168.016C1007.2 168.048 1007.07 168.08 1006.91 168.08C1006.64 168.08 1006.42 167.984 1006.22 167.792C1006.03 167.6 1005.94 167.36 1005.94 167.088C1005.94 166.784 1006.03 166.544 1006.22 166.368C1006.42 166.176 1006.66 166.096 1006.98 166.096ZM1024.85 154.752C1025.38 155.552 1025.89 156.432 1026.37 157.392L1025.33 157.904C1024.85 156.912 1024.34 156.032 1023.79 155.264L1024.85 154.752ZM1030.19 159.056H1026.08V160.608C1026.06 161.408 1026.02 162.144 1025.94 162.816H1030.19V159.056ZM1030.19 163.92H1025.78C1025.58 164.912 1025.31 165.76 1024.98 166.48C1024.3 167.84 1023.22 168.896 1021.7 169.648L1021.02 168.592C1022.46 167.856 1023.49 166.864 1024.06 165.616C1024.27 165.104 1024.45 164.544 1024.58 163.92H1020.88V162.816H1024.75C1024.85 162.128 1024.9 161.392 1024.91 160.608V159.056H1021.54V157.952H1029.62C1030.22 156.96 1030.74 155.888 1031.18 154.752L1032.42 155.2C1031.97 156.224 1031.47 157.152 1030.93 157.952H1034.51V159.056H1031.38V162.816H1035.14V163.92H1031.38V169.52H1030.19V163.92ZM1041.74 162.384H1045.41V159.408H1046.58V162.384H1050.4V163.504H1046.58V167.92H1051.12V169.056H1041.09V167.92H1045.41V163.504H1041.74V162.384ZM1039.17 163.088C1038.58 163.696 1037.95 164.288 1037.28 164.848L1036.56 163.904C1038.56 162.256 1040.11 160.368 1041.23 158.24H1037.12V157.104H1041.78C1042.1 156.368 1042.38 155.6 1042.61 154.816L1043.81 154.96C1043.58 155.696 1043.34 156.416 1043.06 157.104H1051.1V158.24H1042.54C1041.92 159.504 1041.17 160.688 1040.3 161.776V169.648H1039.17V163.088ZM1054.38 155.856H1065.78V156.976H1054.38V155.856ZM1052.85 160.32H1067.2V161.472H1059.52C1058.05 164.496 1056.75 166.592 1055.66 167.776C1058.54 167.616 1061.41 167.344 1064.27 166.96C1063.7 165.936 1063.06 164.88 1062.35 163.792L1063.28 163.216C1064.75 165.424 1065.89 167.36 1066.69 168.992L1065.66 169.712C1065.41 169.152 1065.14 168.592 1064.83 168.016C1061.58 168.432 1058.05 168.752 1054.21 169.008L1053.9 167.84C1054.03 167.808 1054.11 167.76 1054.18 167.728C1055.2 166.96 1056.56 164.88 1058.24 161.472H1052.85V160.32ZM1069.33 164.544H1075.46V163.456H1076.58V164.544H1082.66V165.568H1077.55C1078.77 166.672 1080.62 167.536 1083.12 168.176L1082.61 169.248C1079.81 168.352 1077.79 167.168 1076.58 165.728V169.6H1075.46V165.792C1074.32 167.12 1072.34 168.272 1069.49 169.248L1068.85 168.208C1071.62 167.44 1073.52 166.56 1074.54 165.568H1069.33V164.544ZM1075.12 154.88H1076.22V155.776H1082.13V156.768H1076.22V157.808H1081.07V162.992H1070.98V157.808H1075.12V154.88ZM1079.98 162.016V160.864H1072.06V162.016H1079.98ZM1072.06 159.92H1079.98V158.784H1072.06V159.92ZM1084.88 155.568H1099.12V156.688H1092.7C1092.58 157.392 1092.37 158.08 1092.11 158.736H1098.26V169.648H1097.15V168.848H1086.9V169.648H1085.79V158.736H1090.94C1091.2 158.064 1091.41 157.392 1091.54 156.688H1084.88V155.568ZM1086.9 167.792H1089.1V159.776H1086.9V167.792ZM1090.18 167.792H1093.82V165.744H1090.18V167.792ZM1094.9 167.792H1097.15V159.776H1094.9V167.792ZM1090.18 164.736H1093.82V162.784H1090.18V164.736ZM1090.18 161.76H1093.82V159.776H1090.18V161.76ZM1107.41 154.864H1108.59V157.744H1114.34V165.264H1113.18V164.256H1108.59V169.712H1107.41V164.256H1102.83V165.264H1101.68V157.744H1107.41V154.864ZM1102.83 163.136H1107.41V158.864H1102.83V163.136ZM1108.59 163.136H1113.18V158.864H1108.59V163.136ZM1121.47 156.56H1125.66V154.928H1126.83V156.56H1131.23V157.664H1126.83V159.184H1130.58V163.712H1126.77C1126.64 165.152 1126.37 166.256 1125.94 167.056C1127.54 167.936 1129.39 168.432 1131.49 168.544L1131.2 169.648C1128.96 169.504 1126.99 168.944 1125.3 167.952C1124.43 168.832 1123.07 169.408 1121.22 169.68L1120.72 168.624C1122.35 168.448 1123.55 168 1124.29 167.296C1123.34 166.624 1122.5 165.808 1121.76 164.864L1122.64 164.256C1123.33 165.12 1124.1 165.84 1124.94 166.448C1125.28 165.744 1125.5 164.832 1125.6 163.712H1122.02V159.184H1125.66V157.664H1121.47V156.56ZM1129.49 162.672V160.208H1126.83V162.288C1126.83 162.416 1126.82 162.544 1126.82 162.672H1129.49ZM1125.65 162.672C1125.65 162.544 1125.66 162.416 1125.66 162.288V160.208H1123.1V162.672H1125.65ZM1118.54 160.704C1118.03 161.424 1117.49 162.112 1116.88 162.768L1116.5 161.552C1118.16 159.6 1119.36 157.36 1120.1 154.832L1121.18 155.328C1120.78 156.576 1120.29 157.76 1119.7 158.864V169.632H1118.54V160.704ZM1135.41 160.512V163.312H1139.47V160.512H1135.41ZM1135.34 164.368C1135.17 166.416 1134.58 168.112 1133.55 169.456L1132.67 168.672C1133.7 167.248 1134.22 165.44 1134.26 163.248V155.568H1146.18V167.552C1146.18 168.672 1145.62 169.232 1144.5 169.232H1142.66L1142.35 168.096C1142.99 168.128 1143.58 168.16 1144.13 168.16C1144.7 168.16 1145.01 167.824 1145.01 167.152V164.368H1140.66V169.056H1139.47V164.368H1135.34ZM1145.01 163.312V160.512H1140.66V163.312H1145.01ZM1145.01 159.44V156.688H1140.66V159.44H1145.01ZM1139.47 156.688H1135.41V159.44H1139.47V156.688ZM962.702 178.656V179.456C962.27 179.584 961.934 179.824 961.678 180.176C961.438 180.48 961.326 180.832 961.326 181.216C961.39 181.184 961.518 181.168 961.678 181.168C961.95 181.168 962.19 181.248 962.382 181.44C962.558 181.632 962.654 181.856 962.654 182.144C962.654 182.432 962.542 182.672 962.35 182.864C962.158 183.04 961.918 183.136 961.614 183.136C961.246 183.136 960.958 182.976 960.734 182.688C960.526 182.4 960.43 182.016 960.43 181.568C960.43 180.848 960.622 180.224 961.038 179.712C961.454 179.184 961.998 178.832 962.702 178.656ZM959.534 178.656V179.456C959.102 179.584 958.766 179.824 958.526 180.16C958.27 180.48 958.158 180.832 958.158 181.216C958.222 181.184 958.35 181.168 958.526 181.168C958.782 181.168 959.006 181.248 959.198 181.44C959.39 181.632 959.486 181.856 959.486 182.144C959.486 182.432 959.39 182.672 959.214 182.864C959.022 183.04 958.766 183.136 958.446 183.136C958.078 183.136 957.79 182.976 957.582 182.688C957.358 182.4 957.262 182.032 957.262 181.568C957.262 180.848 957.47 180.224 957.886 179.712C958.286 179.184 958.83 178.832 959.534 178.656ZM966.96 181.12C966.576 181.712 966.144 182.224 965.664 182.656L964.976 181.792C965.744 181.088 966.384 180.096 966.912 178.816L967.952 179.04C967.808 179.424 967.664 179.776 967.52 180.096H972.096V181.12H969.68C969.648 181.664 969.6 182.192 969.536 182.672H972.544V183.728H969.296C969.248 183.888 969.2 184.032 969.168 184.176C970.384 184.784 971.408 185.408 972.24 186.048L971.424 186.864C970.752 186.256 969.888 185.648 968.8 185.008C968.16 186.128 967.04 187.056 965.456 187.792L964.688 186.848C966.352 186.112 967.44 185.2 967.968 184.112L968.128 183.728H964.912V182.672H968.416C968.512 182.176 968.56 181.664 968.592 181.12H966.96ZM973.216 180.016H978.48V185.872H973.216V180.016ZM977.36 184.848V181.04H974.336V184.848H977.36ZM977.344 187.024V193.632H976.176V192.912H968.256V193.632H967.104V187.024H977.344ZM968.256 191.888H976.176V190.512H968.256V191.888ZM968.256 189.504H976.176V188.048H968.256V189.504ZM982.864 188.112V189.6H986.56V188.112H982.864ZM986.56 187.152V185.6H982.864V187.152H986.56ZM982.864 190.576V193.632H981.76V184.592H987.664V192.112C987.664 193.04 987.216 193.52 986.32 193.52H985.04L984.752 192.432L985.952 192.48C986.352 192.48 986.56 192.272 986.56 191.872V190.576H982.864ZM993.28 185.92H990.64C989.664 185.92 989.184 185.392 989.184 184.352V178.976H990.32V181.056C992.08 180.784 993.504 180.496 994.608 180.208L994.976 181.216C993.632 181.552 992.08 181.856 990.32 182.112V184.112C990.32 184.624 990.528 184.88 990.96 184.88H993.056C993.376 184.88 993.6 184.784 993.728 184.624C993.888 184.4 993.984 183.808 994.048 182.816L995.12 183.152C995.008 184.464 994.8 185.264 994.512 185.552C994.256 185.792 993.84 185.92 993.28 185.92ZM990.32 189.536V191.824C990.32 192.144 990.512 192.32 990.928 192.32H993.104C993.424 192.32 993.664 192.24 993.792 192.096C993.968 191.872 994.08 191.28 994.144 190.304L995.184 190.624C995.088 191.92 994.88 192.704 994.576 192.992C994.32 193.232 993.904 193.36 993.328 193.36H990.608C989.648 193.36 989.184 192.928 989.184 192.08V186.528H990.32V188.496C991.92 188.336 993.344 188.064 994.608 187.68L994.976 188.704C993.536 189.12 991.984 189.392 990.32 189.536ZM986.512 180.064C987.472 181.36 988.224 182.48 988.752 183.44L987.808 184.112C987.632 183.76 987.44 183.408 987.232 183.056C985.52 183.328 983.472 183.52 981.104 183.648L980.784 182.688C980.992 182.624 981.168 182.512 981.312 182.384C982.304 181.36 983.136 180.208 983.776 178.928L984.864 179.264C984.128 180.688 983.328 181.808 982.432 182.624C983.776 182.544 985.2 182.416 986.704 182.224C986.368 181.712 986 181.168 985.616 180.624L986.512 180.064ZM998.384 179.856H1009.78V180.976H998.384V179.856ZM996.848 184.32H1011.2V185.472H1003.52C1002.05 188.496 1000.75 190.592 999.664 191.776C1002.54 191.616 1005.41 191.344 1008.27 190.96C1007.7 189.936 1007.06 188.88 1006.35 187.792L1007.28 187.216C1008.75 189.424 1009.89 191.36 1010.69 192.992L1009.66 193.712C1009.41 193.152 1009.14 192.592 1008.83 192.016C1005.58 192.432 1002.05 192.752 998.208 193.008L997.904 191.84C998.032 191.808 998.112 191.76 998.176 191.728C999.2 190.96 1000.56 188.88 1002.24 185.472H996.848V184.32ZM1027.2 187.6L1027.38 188.72L1025.76 188.976V193.552H1024.59V189.168L1019.6 189.984L1019.44 188.864L1024.59 188.032V178.992H1025.76V187.84L1027.2 187.6ZM1020.96 179.824C1022.11 180.64 1023.07 181.456 1023.86 182.288L1023.07 183.088C1022.37 182.304 1021.39 181.472 1020.14 180.608L1020.96 179.824ZM1020.48 183.504C1021.65 184.368 1022.64 185.216 1023.44 186.08L1022.62 186.896C1021.9 186.08 1020.91 185.216 1019.66 184.288L1020.48 183.504ZM1013.01 183.248H1015.63V180.88C1014.86 180.992 1014.08 181.088 1013.25 181.168L1013.02 180.08C1015.1 179.92 1016.96 179.584 1018.56 179.104L1018.96 180.192C1018.27 180.384 1017.55 180.544 1016.78 180.688V183.248H1018.99V184.352H1016.78V185.136C1017.68 185.856 1018.61 186.672 1019.54 187.568L1018.88 188.544C1018.05 187.568 1017.36 186.8 1016.78 186.24V193.552H1015.63V186.08C1014.99 187.648 1014.14 189.072 1013.06 190.352L1012.56 189.072C1013.92 187.696 1014.9 186.112 1015.5 184.352H1013.01V183.248ZM1040.35 180.816H1037.86V185.248H1040.35V180.816ZM1040.35 186.352H1037.84C1037.71 189.648 1036.77 192.064 1034.98 193.616L1034.13 192.848C1035.76 191.472 1036.62 189.312 1036.72 186.352H1034.98V185.248H1036.74V180.816H1035.33V179.728H1042.93V180.816H1041.46V185.248H1043.36V186.352H1041.46V193.568H1040.35V186.352ZM1031.01 180.912H1029.09V179.792H1034.62V180.912H1032.1C1031.87 182.192 1031.54 183.408 1031.1 184.528H1034.06V191.776H1031.31V193.04H1030.26V186.352C1029.92 186.96 1029.55 187.536 1029.15 188.08L1028.54 187.088C1029.79 185.296 1030.61 183.232 1031.01 180.912ZM1031.31 190.768H1032.99V185.552H1031.31V190.768ZM1045.55 179.648H1058.48V180.768H1052.53V186.816H1059.09V187.92H1052.53V193.584H1051.34V187.92H1044.91V186.816H1051.34V180.768H1045.55V179.648ZM1047.5 181.792C1048.11 182.912 1048.69 184.128 1049.23 185.456L1048.16 185.984C1047.62 184.608 1047.04 183.392 1046.43 182.32L1047.5 181.792ZM1056.58 181.712L1057.63 182.208C1057.15 183.472 1056.51 184.704 1055.73 185.92L1054.7 185.392C1055.49 184.144 1056.11 182.928 1056.58 181.712ZM1073.34 186.944V193.616H1072.18V192.816H1063.82V193.616H1062.66V186.944H1073.34ZM1063.82 191.712H1072.18V188.048H1063.82V191.712ZM1061.52 185.296L1061.3 184.208C1062.7 183.728 1064.45 181.952 1066.53 178.896L1067.71 179.296C1066.27 181.344 1064.82 182.976 1063.38 184.16C1066.45 184.032 1069.36 183.824 1072.11 183.568C1071.5 182.704 1070.88 181.888 1070.24 181.152L1071.28 180.656C1072.66 182.256 1073.94 184.032 1075.12 185.968L1074 186.512C1073.6 185.84 1073.2 185.216 1072.82 184.608C1069.44 184.912 1065.68 185.136 1061.52 185.296ZM1081.52 178.64C1081.87 178.64 1082.18 178.784 1082.4 179.072C1082.61 179.36 1082.72 179.728 1082.72 180.208C1082.72 180.912 1082.51 181.536 1082.1 182.064C1081.68 182.576 1081.12 182.928 1080.45 183.12V182.32C1080.86 182.176 1081.2 181.952 1081.46 181.632C1081.7 181.296 1081.81 180.944 1081.81 180.56C1081.74 180.592 1081.62 180.608 1081.46 180.608C1081.18 180.608 1080.96 180.512 1080.77 180.32C1080.58 180.128 1080.48 179.904 1080.48 179.632C1080.48 179.328 1080.58 179.088 1080.78 178.912C1080.96 178.72 1081.2 178.64 1081.52 178.64ZM1078.37 178.64C1078.72 178.64 1079.01 178.784 1079.23 179.072C1079.44 179.36 1079.55 179.728 1079.55 180.208C1079.55 180.912 1079.34 181.536 1078.93 182.064C1078.51 182.576 1077.95 182.928 1077.28 183.12V182.32C1077.7 182.176 1078.02 181.952 1078.27 181.632C1078.53 181.296 1078.64 180.944 1078.64 180.56C1078.58 180.592 1078.45 180.608 1078.29 180.608C1078.02 180.608 1077.79 180.512 1077.62 180.32C1077.42 180.128 1077.33 179.904 1077.33 179.632C1077.33 179.328 1077.41 179.088 1077.6 178.912C1077.79 178.72 1078.05 178.64 1078.37 178.64Z" fill="black"/>
<path d="M1020 236.4L1014 230.4L1015.4 229L1020 233.6L1024.6 229L1026 230.4L1020 236.4Z" fill="#025CB9"/>
<path d="M793.5 256.997C868.871 256.997 1020 256.997 1020 256.997L1020 201.5M1020 133.5L1020 147" stroke="#025CB9"/>
<path d="M329 257L747 257" stroke="#025CB9"/>
<path d="M301.84 249.72H310.54V251.78H303.72L303.32 255.7H303.38C303.82 255.26 304.32 254.94 304.9 254.74C305.42 254.54 306 254.44 306.64 254.44C307.98 254.44 309.08 254.88 309.92 255.76C310.76 256.64 311.2 257.86 311.2 259.4C311.2 260.88 310.64 262.08 309.52 263.02C308.48 263.86 307.26 264.28 305.84 264.28C304.54 264.28 303.42 263.92 302.5 263.22C301.46 262.44 300.9 261.38 300.8 260.06H303.1C303.2 260.84 303.5 261.42 304.02 261.8C304.46 262.12 305.08 262.3 305.86 262.3C306.7 262.3 307.42 262.04 308 261.52C308.56 261 308.86 260.3 308.86 259.42C308.86 258.46 308.6 257.7 308.12 257.16C307.64 256.6 306.92 256.34 306 256.34C305.38 256.34 304.84 256.44 304.4 256.66C303.9 256.9 303.52 257.26 303.24 257.76H301.06L301.84 249.72Z" fill="#025CB9"/>
<rect x="282.5" y="233.5" width="47" height="47" rx="23.5" stroke="#025CB9"/>
<path d="M197.408 307.512V310.312H201.472V307.512H197.408ZM197.344 311.368C197.168 313.416 196.576 315.112 195.552 316.456L194.672 315.672C195.696 314.248 196.224 312.44 196.256 310.248V302.568H208.176V314.552C208.176 315.672 207.616 316.232 206.496 316.232H204.656L204.352 315.096C204.992 315.128 205.584 315.16 206.128 315.16C206.704 315.16 207.008 314.824 207.008 314.152V311.368H202.656V316.056H201.472V311.368H197.344ZM207.008 310.312V307.512H202.656V310.312H207.008ZM207.008 306.44V303.688H202.656V306.44H207.008ZM201.472 303.688H197.408V306.44H201.472V303.688ZM222.784 305.032H213.648V308.152H222.784V305.032ZM213.648 309.272C213.568 312.136 212.816 314.6 211.376 316.664L210.528 315.896C211.824 314.104 212.48 311.768 212.512 308.904V303.896H217.728C217.44 303.224 217.136 302.6 216.8 302.024L218.032 301.832C218.32 302.44 218.608 303.128 218.896 303.896H223.952V309.272H213.648ZM226.88 302.888H241.152V304.008H239.04V314.888C239.04 315.944 238.528 316.488 237.504 316.488H234.832L234.576 315.368C235.456 315.4 236.304 315.432 237.104 315.432C237.616 315.432 237.888 315.144 237.888 314.6V304.008H226.88V302.888ZM234.96 306.456V312.328H229.856V313.736H228.736V306.456H234.96ZM229.856 311.272H233.856V307.496H229.856V311.272ZM252.176 301.96H253.36V306.792C254.688 307.768 256.032 308.872 257.408 310.104L256.704 311.16C255.392 309.848 254.288 308.808 253.36 308.072V316.584H252.176V301.96ZM245.712 308.312C246.608 308.792 247.424 309.352 248.16 309.992C248.896 308.584 249.392 307.016 249.632 305.304H246.464C245.696 307.128 244.656 308.616 243.376 309.8L242.592 308.824C244.416 307.128 245.664 304.824 246.304 301.944L247.456 302.136C247.296 302.856 247.104 303.544 246.88 304.2H250.768V305.208C250.224 310.056 247.888 313.72 243.728 316.2L242.944 315.224C244.944 314.072 246.512 312.632 247.632 310.904C246.8 310.2 245.952 309.624 245.104 309.208L245.712 308.312ZM259.856 306.84L261.12 302.392L262.256 302.584L261.344 305.736H264.144C264.464 304.488 264.72 303.192 264.912 301.816L266.08 301.96C265.872 303.304 265.616 304.552 265.328 305.736H272.816V306.84H265.024C264.832 307.48 264.64 308.088 264.416 308.664H270.96V309.656C270.528 311.032 269.664 312.28 268.352 313.4C269.648 314.168 271.232 314.872 273.088 315.512L272.496 316.584C270.448 315.832 268.752 315.016 267.408 314.136C266.096 315.064 264.464 315.896 262.528 316.648L261.92 315.576C263.712 314.92 265.2 314.2 266.4 313.416C265.152 312.456 264.272 311.416 263.744 310.296C262.576 312.824 261.072 314.824 259.248 316.312L258.656 315.256C260.992 313.208 262.704 310.408 263.824 306.84H259.856ZM264.608 309.72C265.152 310.808 266.064 311.816 267.344 312.744C268.528 311.816 269.344 310.808 269.792 309.72H264.608ZM268.768 301.944C269.92 302.824 270.864 303.704 271.632 304.584L270.816 305.4C270.144 304.552 269.2 303.656 268 302.696L268.768 301.944ZM286.352 303.816H283.856V308.248H286.352V303.816ZM286.352 309.352H283.84C283.712 312.648 282.768 315.064 280.976 316.616L280.128 315.848C281.76 314.472 282.624 312.312 282.72 309.352H280.976V308.248H282.736V303.816H281.328V302.728H288.928V303.816H287.456V308.248H289.36V309.352H287.456V316.568H286.352V309.352ZM277.008 303.912H275.088V302.792H280.624V303.912H278.096C277.872 305.192 277.536 306.408 277.104 307.528H280.064V314.776H277.312V316.04H276.256V309.352C275.92 309.96 275.552 310.536 275.152 311.08L274.544 310.088C275.792 308.296 276.608 306.232 277.008 303.912ZM277.312 313.768H278.992V308.552H277.312V313.768ZM299.552 305.272C301.248 306.088 302.784 307.08 304.16 308.264L303.536 309.224C302.064 307.928 300.544 306.904 298.976 306.136L299.552 305.272ZM296.352 305.208L297.04 306.008C295.728 307.256 294.08 308.296 292.096 309.112L291.6 308.072C293.52 307.352 295.104 306.392 296.352 305.208ZM298.032 301.864C298.256 302.328 298.464 302.856 298.656 303.448H304.576V306.664H303.424V304.52H292.576V306.648H291.424V303.448H297.44C297.232 302.936 297.008 302.472 296.768 302.056L298.032 301.864ZM296.288 307.816H297.456V308.984L297.408 309.864H301.536V314.92C301.536 315.208 301.696 315.368 302.016 315.368H303.2C303.6 315.368 303.84 315.16 303.936 314.744C304 314.104 304.032 313.432 304.032 312.712L305.088 313.016C304.992 314.328 304.912 315.144 304.816 315.448C304.64 316.12 304.096 316.456 303.2 316.456H301.84C300.88 316.456 300.4 316.008 300.4 315.112V310.952H297.248C297.008 312.104 296.592 313.096 295.984 313.896C295.088 315.032 293.616 315.928 291.568 316.568L290.944 315.576C292.928 314.952 294.32 314.136 295.12 313.128C295.552 312.488 295.856 311.768 296.048 310.952H292.032V309.864H296.224C296.256 309.56 296.272 309.272 296.288 308.984V307.816ZM317.904 301.88C318.672 302.456 319.328 303.048 319.872 303.64L319.136 304.376H321.088V305.48H316.16C316.272 307.464 316.48 309.032 316.768 310.184C316.864 310.584 316.976 310.952 317.088 311.304C317.888 310.024 318.528 308.52 319.024 306.808L320.064 307.256C319.424 309.368 318.592 311.16 317.568 312.6C317.792 313.112 318.032 313.56 318.288 313.928C318.816 314.696 319.248 315.08 319.568 315.08C319.856 315.064 320.128 314.232 320.368 312.584L321.408 313.16C321.024 315.288 320.48 316.36 319.76 316.36C319.088 316.36 318.368 315.88 317.6 314.92C317.312 314.536 317.04 314.088 316.8 313.592C315.68 314.904 314.368 315.88 312.864 316.552L312.224 315.592C313.824 314.872 315.184 313.816 316.288 312.424C316.064 311.832 315.856 311.192 315.68 310.504C315.328 309.16 315.104 307.48 314.976 305.48H309.488V308.136H313.408C313.376 310.84 313.248 312.584 313.04 313.368C312.832 314.056 312.336 314.408 311.536 314.44C311.152 314.44 310.688 314.408 310.176 314.376L309.824 313.336C310.448 313.368 310.976 313.384 311.408 313.384C311.76 313.368 311.984 313.128 312.08 312.68C312.176 312.136 312.224 310.984 312.256 309.224H309.488V309.704C309.424 312.568 308.784 314.872 307.6 316.6L306.72 315.816C307.744 314.344 308.272 312.312 308.32 309.704V304.376H314.928C314.896 303.576 314.88 302.76 314.88 301.896H316.064C316.064 302.792 316.08 303.608 316.112 304.376H319.104C318.624 303.8 317.984 303.208 317.168 302.584L317.904 301.88ZM324.624 302.568H335.296V308.76H330.592V310.216H336.96V311.304H331.616C332.752 312.744 334.656 314.04 337.312 315.16L336.528 316.168C333.744 314.712 331.792 313.096 330.672 311.304H330.592V316.584H329.408V311.304H329.344C328.128 313.272 326.144 314.888 323.36 316.152L322.704 315.096C325.312 314.104 327.2 312.84 328.368 311.304H323.04V310.216H329.408V308.76H324.624V302.568ZM334.16 307.752V306.2H330.592V307.752H334.16ZM329.408 307.752V306.2H325.776V307.752H329.408ZM325.776 305.192H329.408V303.592H325.776V305.192ZM330.592 303.592V305.192H334.16V303.592H330.592ZM340.976 313.096C341.328 313.096 341.632 313.24 341.856 313.544C342.064 313.832 342.176 314.2 342.176 314.664C342.176 315.368 341.968 315.992 341.552 316.536C341.136 317.048 340.576 317.4 339.904 317.576V316.792C340.32 316.648 340.656 316.408 340.912 316.088C341.152 315.752 341.264 315.4 341.264 315.016C341.2 315.048 341.072 315.08 340.912 315.08C340.64 315.08 340.416 314.984 340.224 314.792C340.032 314.6 339.936 314.36 339.936 314.088C339.936 313.784 340.032 313.544 340.224 313.368C340.416 313.176 340.656 313.096 340.976 313.096ZM364.032 311.4H360.896V310.28H368.368V311.4H365.216V314.936H369.104V316.056H360.176V314.936H364.032V311.4ZM365.136 306.888C363.968 307.912 362.496 308.776 360.736 309.464L360.016 308.52C363.008 307.4 365.088 305.8 366.24 303.752H360.768V302.648H367.616V303.56C367.2 304.52 366.624 305.384 365.888 306.168C367.232 307.016 368.384 307.864 369.312 308.712L368.464 309.56C367.632 308.712 366.528 307.816 365.136 306.888ZM360.016 313.048V314.136C358.512 314.904 356.8 315.528 354.912 316.008L354.752 314.904C356.752 314.44 358.512 313.816 360.016 313.048ZM357.472 301.912L358.576 302.344C357.776 304.392 356.976 306.008 356.16 307.224C356.896 307.16 357.632 307.064 358.384 306.936C358.688 306.376 359.008 305.784 359.328 305.16L360.384 305.56C358.912 308.264 357.68 310.184 356.704 311.336C357.824 311.096 358.928 310.776 360.048 310.376V311.432C358.4 312.008 356.816 312.392 355.296 312.6L354.992 311.544C355.184 311.464 355.36 311.352 355.504 311.224C356.144 310.584 356.912 309.496 357.808 307.96C356.896 308.104 355.984 308.232 355.072 308.36L354.784 307.304C354.96 307.224 355.12 307.08 355.264 306.872C356.112 305.432 356.848 303.768 357.472 301.912ZM382.576 308.248V311.384H374.592V312.488H383.312V316.6H382.176V315.928H374.592V316.584H373.44V308.248H382.576ZM374.592 314.904H382.176V313.416H374.592V314.904ZM374.592 310.456H381.456V309.176H374.592V310.456ZM384.784 306.312V309.208H383.664V307.304H372.336V309.208H371.216V306.312H377.552C377.392 305.928 377.232 305.592 377.056 305.272L378.176 305.08L378.08 305.016C378.848 304.056 379.392 303.016 379.744 301.864L380.848 302.104C380.736 302.44 380.624 302.76 380.496 303.08H385.12V304.088H382.272C382.608 304.536 382.88 304.952 383.072 305.336L382.048 305.72C381.76 305.144 381.424 304.6 381.04 304.088H380.032C379.744 304.632 379.408 305.144 379.056 305.624L378.192 305.096C378.368 305.464 378.544 305.864 378.704 306.312H384.784ZM373.136 304.088C372.752 304.712 372.336 305.288 371.856 305.816L370.848 305.176C371.808 304.184 372.512 303.064 372.96 301.848L374.064 302.088C373.936 302.44 373.792 302.76 373.664 303.08H377.952V304.088H375.264C375.616 304.568 375.92 305.032 376.144 305.464L375.088 305.864C374.8 305.256 374.448 304.664 374.048 304.088H373.136ZM392.656 302.568H400.48V309.96H397.152V311.848H400.752V312.936H397.152V315.016H401.344V316.12H391.712V315.016H396V312.936H392.384V311.848H396V309.96H392.656V302.568ZM399.376 308.936V306.776H397.152V308.936H399.376ZM396 308.936V306.776H393.76V308.936H396ZM393.76 305.768H396V303.592H393.76V305.768ZM397.152 303.592V305.768H399.376V303.592H397.152ZM387.008 307.864H388.752V304.072H386.784V302.984H391.888V304.072H389.936V307.864H391.696V308.968H389.936V312.6C390.544 312.392 391.12 312.168 391.696 311.912V313.032C390.224 313.64 388.64 314.152 386.944 314.568L386.656 313.464C387.36 313.336 388.064 313.176 388.752 312.984V308.968H387.008V307.864ZM415.392 307.736V313.704H414.256V308.792H405.76V313.896H404.624V307.736H415.392ZM405.584 302.52H414.432V306.536H405.584V302.52ZM413.312 305.528V303.544H406.704V305.528H413.312ZM409.568 309.832L410.736 309.928C410.512 312.28 410.016 313.864 409.248 314.696C408.416 315.688 406.512 316.328 403.536 316.6L403.088 315.56C405.68 315.4 407.408 314.888 408.256 314.008C408.992 313.192 409.44 311.8 409.568 309.832ZM411.152 313.544C413.232 314.136 415.136 314.856 416.864 315.688L416.24 316.648C414.4 315.688 412.512 314.952 410.576 314.408L411.152 313.544ZM229.92 334.504V336.344H233.472V334.504H229.92ZM233.472 337.4H229.92V338.344H228.8V330.584H233.472V328.984H234.624V330.584H239.344V338.296H238.224V337.4H234.624V340.648H233.472V337.4ZM234.624 336.344H238.224V334.504H234.624V336.344ZM238.224 333.48V331.64H234.624V333.48H238.224ZM233.472 331.64H229.92V333.48H233.472V331.64ZM240.64 327.144V329.944H239.52V328.184H228.416V330.024H227.296V327.144H233.392C233.232 326.728 233.072 326.344 232.896 325.992L234.112 325.784C234.272 326.184 234.416 326.632 234.576 327.144H240.64ZM246.176 332.456V340.6H245.072V332.584C244.56 334.216 243.888 335.688 243.072 337L242.592 335.832C243.728 334.168 244.544 332.28 245.024 330.168H242.864V329.064H245.072V325.944H246.176V329.064H248.064V330.168H246.176V331.208C246.944 332.088 247.712 333.08 248.512 334.2L247.872 335.176C247.216 334.056 246.656 333.144 246.176 332.456ZM248.464 327.688H252.464C252.24 327.112 251.984 326.584 251.696 326.104L252.88 325.912C253.12 326.424 253.36 327.016 253.584 327.688H257.136V328.728H252.752C251.872 330.28 251.104 331.384 250.432 332.04C251.456 331.976 252.464 331.912 253.456 331.832C253.872 331.256 254.24 330.664 254.56 330.024L255.488 330.52C253.888 333.688 251.552 335.864 248.448 337.016L247.824 336.056C249.76 335.368 251.376 334.296 252.688 332.824C251.568 332.888 250.368 332.952 249.104 333L248.864 332.056C248.96 332.024 249.024 331.992 249.088 331.96C249.728 331.544 250.544 330.472 251.568 328.728H248.464V327.688ZM253.584 337.352C252.048 338.728 250.272 339.784 248.224 340.488L247.6 339.496C251.36 338.264 254.176 335.896 256.048 332.392L257.024 332.904C256.256 334.344 255.344 335.592 254.304 336.648C255.456 337.672 256.448 338.68 257.248 339.688L256.416 340.52C255.712 339.528 254.768 338.472 253.584 337.352ZM260.016 326.184C261.12 327.016 262.048 327.848 262.8 328.68L261.984 329.48C261.312 328.68 260.4 327.832 259.232 326.936L260.016 326.184ZM269.376 340.312C268.496 340.312 267.536 340.296 266.512 340.28C265.472 340.264 264.624 340.168 263.984 339.992C263.344 339.8 262.768 339.4 262.272 338.824C262.048 338.552 261.84 338.424 261.648 338.424C261.264 338.424 260.624 339.16 259.744 340.632L258.88 339.848C259.728 338.504 260.48 337.688 261.136 337.4V332.536H258.864V331.48H262.208V337.464C262.336 337.56 262.464 337.672 262.608 337.832C262.992 338.296 263.408 338.632 263.856 338.84C264.368 339.064 265.088 339.192 266.048 339.224C266.896 339.24 267.952 339.256 269.216 339.256C269.952 339.256 270.72 339.24 271.504 339.224C272.272 339.208 272.864 339.192 273.28 339.16L273.008 340.312H269.376ZM266.512 327.72C267.184 328.12 267.808 328.52 268.352 328.92C269.184 328.488 269.952 328.008 270.656 327.464H263.552V326.488H272.208V327.32C271.248 328.152 270.208 328.872 269.088 329.48L269.344 329.688H272.512V336.84C272.512 337.656 272.064 338.072 271.168 338.072H269.84L269.584 337.096L270.848 337.144C271.232 337.144 271.424 336.952 271.424 336.6V335.4H268.736V338.152H267.664V335.4H264.992V338.2H263.904V329.688H267.904C267.296 329.256 266.592 328.824 265.808 328.408L266.512 327.72ZM264.992 333.048V334.456H267.664V333.048H264.992ZM268.736 333.048V334.456H271.424V333.048H268.736ZM271.424 332.088V330.648H268.736V332.088H271.424ZM267.664 332.088V330.648H264.992V332.088H267.664ZM275.968 326.152C277.056 327 277.968 327.848 278.704 328.68L277.872 329.528C277.216 328.712 276.32 327.832 275.168 326.904L275.968 326.152ZM285.696 340.312C284.784 340.312 283.792 340.296 282.72 340.28C281.632 340.264 280.752 340.168 280.096 339.992C279.424 339.8 278.832 339.4 278.32 338.824C278.096 338.552 277.872 338.424 277.664 338.424C277.28 338.424 276.624 339.16 275.728 340.664L274.864 339.896C275.728 338.52 276.48 337.688 277.152 337.4V332.552H274.848V331.464H278.256V337.464C278.384 337.56 278.528 337.672 278.672 337.832C279.088 338.28 279.52 338.616 279.984 338.84C280.496 339.048 281.264 339.16 282.256 339.192C283.136 339.208 284.24 339.224 285.552 339.224C286.256 339.224 286.96 339.208 287.696 339.208C288.416 339.192 288.976 339.176 289.36 339.144L289.072 340.312H285.696ZM285.216 338.168H282.944L282.688 337.064C283.424 337.112 284.144 337.144 284.816 337.144C285.264 337.144 285.504 336.92 285.504 336.488V329.688H279.456V328.552H285.504V325.96H286.672V328.552H289.04V329.688H286.672V336.76C286.672 337.688 286.176 338.168 285.216 338.168ZM281.2 331.112C282.224 332.296 283.008 333.336 283.552 334.232L282.624 334.872C282.048 333.912 281.28 332.856 280.304 331.688L281.2 331.112ZM293.648 331.576V331.992C293.552 335.576 292.816 338.424 291.472 340.552L290.624 339.672C291.792 337.816 292.416 335.256 292.512 331.992V327.192C296.64 327.144 300.336 326.776 303.632 326.088L304.208 327.128C301.072 327.768 297.552 328.12 293.648 328.216V330.456H305.168V331.576H293.648ZM303.904 333.816V340.6H302.752V339.848H296.272V340.6H295.12V333.816H303.904ZM296.272 338.728H302.752V334.92H296.272V338.728ZM307.856 330.84L309.12 326.392L310.256 326.584L309.344 329.736H312.144C312.464 328.488 312.72 327.192 312.912 325.816L314.08 325.96C313.872 327.304 313.616 328.552 313.328 329.736H320.816V330.84H313.024C312.832 331.48 312.64 332.088 312.416 332.664H318.96V333.656C318.528 335.032 317.664 336.28 316.352 337.4C317.648 338.168 319.232 338.872 321.088 339.512L320.496 340.584C318.448 339.832 316.752 339.016 315.408 338.136C314.096 339.064 312.464 339.896 310.528 340.648L309.92 339.576C311.712 338.92 313.2 338.2 314.4 337.416C313.152 336.456 312.272 335.416 311.744 334.296C310.576 336.824 309.072 338.824 307.248 340.312L306.656 339.256C308.992 337.208 310.704 334.408 311.824 330.84H307.856ZM312.608 333.72C313.152 334.808 314.064 335.816 315.344 336.744C316.528 335.816 317.344 334.808 317.792 333.72H312.608ZM316.768 325.944C317.92 326.824 318.864 327.704 319.632 328.584L318.816 329.4C318.144 328.552 317.2 327.656 316 326.696L316.768 325.944ZM324.016 326.184C325.12 327.016 326.048 327.832 326.8 328.664L325.968 329.48C325.312 328.696 324.4 327.848 323.232 326.936L324.016 326.184ZM333.376 340.312C332.496 340.312 331.536 340.296 330.512 340.28C329.472 340.264 328.624 340.168 327.984 339.992C327.344 339.8 326.768 339.4 326.272 338.824C326.048 338.552 325.84 338.424 325.648 338.424C325.264 338.424 324.624 339.144 323.744 340.616L322.88 339.848C323.728 338.504 324.48 337.688 325.136 337.4V332.536H322.864V331.48H326.208V337.464C326.336 337.56 326.464 337.672 326.608 337.832C326.992 338.296 327.408 338.632 327.856 338.84C328.368 339.064 329.088 339.192 330.048 339.224C330.896 339.24 331.952 339.256 333.216 339.256C333.952 339.256 334.72 339.24 335.504 339.224C336.272 339.208 336.864 339.192 337.28 339.16L337.008 340.312H333.376ZM327.696 332.232H331.568C331.664 331.544 331.728 330.76 331.76 329.864H328.24V328.808H333.072C333.568 327.88 334 326.888 334.352 325.832L335.44 326.216C335.088 327.192 334.688 328.056 334.24 328.808H336.32V329.864H332.896C332.864 330.76 332.816 331.56 332.72 332.232H336.864V333.32H332.512C332.064 335.256 330.656 336.856 328.288 338.12L327.552 337.192C329.568 336.2 330.832 334.92 331.312 333.32H327.696V332.232ZM329.888 325.96C330.416 326.664 330.912 327.448 331.392 328.296L330.416 328.776C329.936 327.912 329.408 327.128 328.848 326.456L329.888 325.96ZM333.248 334.264C334.576 335.192 335.776 336.2 336.848 337.288L336.048 338.152C334.928 336.968 333.776 335.928 332.56 335.032L333.248 334.264ZM339.328 326.712H352.608V327.832H345.12C344.16 329.448 343.056 330.744 341.824 331.736C344.416 331.576 346.944 331.304 349.376 330.904C348.896 330.328 348.4 329.768 347.888 329.224L348.816 328.632C350.304 330.2 351.44 331.576 352.224 332.744L351.28 333.416C350.944 332.904 350.576 332.392 350.176 331.864C346.912 332.376 343.552 332.712 340.112 332.888L339.808 331.88C341.376 330.984 342.704 329.624 343.792 327.832H339.328V326.712ZM340.08 335.064H345.408V333.208H346.592V335.064H351.84V336.168H346.592V338.84H353.04V339.96H338.96V338.84H345.408V336.168H340.08V335.064ZM362.304 328.184V339.896H361.216V338.888H356.352V339.896H355.264V328.184H358.224V325.864H359.344V328.184H362.304ZM356.352 337.848H358.224V333.928H356.352V337.848ZM359.344 337.848H361.216V333.928H359.344V337.848ZM356.352 332.904H358.224V329.24H356.352V332.904ZM359.344 329.24V332.904H361.216V329.24H359.344ZM363.648 326.792H368.768V327.64C368.288 329.32 367.776 330.872 367.216 332.296C368.32 333.896 368.88 335.208 368.896 336.232C368.896 337.064 368.688 337.64 368.304 337.976C367.888 338.312 367.056 338.488 365.808 338.488L365.472 337.32C365.888 337.368 366.24 337.4 366.528 337.4C367.072 337.368 367.424 337.288 367.584 337.128C367.728 336.968 367.808 336.68 367.824 336.232C367.808 335.24 367.216 333.928 366.064 332.296C366.576 331.032 367.088 329.544 367.584 327.832H364.752V340.616H363.648V326.792ZM371.136 332.056H373.712V330.36H374.88V332.056H377.056V333.176H374.88V333.704C375.664 334.456 376.464 335.288 377.264 336.2L376.624 337.16C375.952 336.168 375.36 335.368 374.88 334.76V340.616H373.712V334.664C373.056 336.136 372.16 337.464 371.04 338.648L370.544 337.368C371.936 336.136 372.944 334.744 373.568 333.176H371.136V332.056ZM384.208 330.904V340.616H383.104V339.896H379.04V340.616H377.936V330.904H384.208ZM379.04 338.872H383.104V337.096H379.04V338.872ZM379.04 336.104H383.104V334.52H379.04V336.104ZM379.04 333.528H383.104V331.928H379.04V333.528ZM373.168 328.168C372.784 328.824 372.352 329.432 371.856 329.976L370.848 329.336C371.84 328.28 372.576 327.112 373.024 325.816L374.128 326.056C374 326.44 373.856 326.792 373.696 327.144H377.92V328.168H375.344C375.792 328.76 376.144 329.304 376.416 329.816L375.344 330.216C374.992 329.512 374.592 328.84 374.112 328.168H373.168ZM380.016 328.168C379.664 328.872 379.28 329.528 378.848 330.136L377.856 329.512C378.72 328.36 379.36 327.112 379.744 325.736L380.848 325.976C380.72 326.376 380.592 326.76 380.448 327.144H385.216V328.168H382.192C382.64 328.744 382.992 329.272 383.264 329.768L382.256 330.136C381.888 329.464 381.472 328.808 380.992 328.168H380.016Z" fill="black"/>
<path d="M540 263L534 257L540 251L541.4 252.4L536.8 257L541.4 261.6L540 263Z" fill="#025CB9"/>
<path d="M771.36 249.72H773.5V259.08H775.62V260.94H773.5V264H771.28V260.94H764.38V258.72L771.36 249.72ZM771.22 252.68L766.28 259.08H771.28V252.68H771.22Z" fill="#025CB9"/>
<rect x="746.5" y="233.5" width="47" height="47" rx="23.5" stroke="#025CB9"/>
<path d="M645.408 307.512V310.312H649.472V307.512H645.408ZM645.344 311.368C645.168 313.416 644.576 315.112 643.552 316.456L642.672 315.672C643.696 314.248 644.224 312.44 644.256 310.248V302.568H656.176V314.552C656.176 315.672 655.616 316.232 654.496 316.232H652.656L652.352 315.096C652.992 315.128 653.584 315.16 654.128 315.16C654.704 315.16 655.008 314.824 655.008 314.152V311.368H650.656V316.056H649.472V311.368H645.344ZM655.008 310.312V307.512H650.656V310.312H655.008ZM655.008 306.44V303.688H650.656V306.44H655.008ZM649.472 303.688H645.408V306.44H649.472V303.688ZM670.784 305.032H661.648V308.152H670.784V305.032ZM661.648 309.272C661.568 312.136 660.816 314.6 659.376 316.664L658.528 315.896C659.824 314.104 660.48 311.768 660.512 308.904V303.896H665.728C665.44 303.224 665.136 302.6 664.8 302.024L666.032 301.832C666.32 302.44 666.608 303.128 666.896 303.896H671.952V309.272H661.648ZM674.88 302.888H689.152V304.008H687.04V314.888C687.04 315.944 686.528 316.488 685.504 316.488H682.832L682.576 315.368C683.456 315.4 684.304 315.432 685.104 315.432C685.616 315.432 685.888 315.144 685.888 314.6V304.008H674.88V302.888ZM682.96 306.456V312.328H677.856V313.736H676.736V306.456H682.96ZM677.856 311.272H681.856V307.496H677.856V311.272ZM703.376 303.832V316.584H702.208V315.592H693.792V316.584H692.624V303.832H696.048C696.4 303.192 696.672 302.552 696.832 301.88L698 302.04C697.824 302.68 697.568 303.288 697.248 303.832H703.376ZM693.792 314.488H702.208V311.88H693.792V314.488ZM693.792 310.824H702.208V308.376H693.792V310.824ZM693.792 307.32H702.208V304.936H693.792V307.32ZM712.8 302.952H720.464V304.088H712.8V302.952ZM712.368 307.016H721.168V308.152H718.576V315.144C718.576 316.072 718.048 316.536 717.024 316.536H714.672L714.432 315.4C715.2 315.448 715.92 315.48 716.624 315.48C717.136 315.48 717.408 315.272 717.408 314.856V308.152H712.368V307.016ZM710.272 302.072L711.312 302.552C710.416 304.328 708.976 305.896 706.992 307.256L706.656 306.104C708.32 304.92 709.52 303.576 710.272 302.072ZM711.024 305.72L712.064 306.2C711.6 307.096 711.024 307.96 710.32 308.76V316.6H709.184V309.928C708.544 310.504 707.856 311.064 707.088 311.592L706.752 310.44C708.704 309.064 710.128 307.496 711.024 305.72ZM728.656 301.928H729.84V306.872H735.776V307.992H729.84V314.84H737.136V315.96H722.896V314.84H728.656V301.928ZM740.672 307.672C740.144 308.376 739.568 309.064 738.944 309.704L738.576 308.472C740.272 306.568 741.52 304.376 742.304 301.912L743.392 302.424C742.976 303.656 742.464 304.824 741.824 305.928V316.632H740.672V307.672ZM743.6 303.976H746.72L747.2 301.912L748.32 302.024C748.16 302.696 748.016 303.352 747.872 303.976H752.704V305.096H747.584C747.408 305.736 747.232 306.36 747.04 306.952H753.36V308.056H746.672C746.416 308.792 746.144 309.464 745.888 310.088H752.464V311.08C751.792 312.2 750.72 313.32 749.248 314.44C750 314.84 750.72 315.272 751.424 315.736L750.768 316.728C748.816 315.384 746.8 314.328 744.752 313.56L745.36 312.664C746.352 313.048 747.312 313.464 748.24 313.912C749.504 313.032 750.496 312.12 751.232 311.16H744.384C744.8 310.168 745.2 309.128 745.568 308.056H742.896V306.952H745.92C746.112 306.328 746.288 305.704 746.448 305.096H743.6V303.976ZM764.528 305.48L764.32 306.312C764.72 308.184 765.232 309.8 765.872 311.144C766.496 309.528 766.832 307.64 766.896 305.48H764.528ZM765.344 312.296C764.72 311.064 764.192 309.656 763.76 308.056C763.472 308.792 763.152 309.448 762.816 310.024L762.096 309.144C763.04 307.352 763.68 304.936 764 301.896L765.12 302.088C765.024 302.904 764.896 303.672 764.768 304.376H768.992V305.48H767.952C767.872 308.152 767.376 310.44 766.48 312.328C767.312 313.768 768.288 314.872 769.44 315.656L768.816 316.6C767.696 315.8 766.736 314.712 765.936 313.368C765.168 314.648 764.176 315.72 762.976 316.584L762.384 315.624C763.632 314.76 764.608 313.656 765.344 312.296ZM757.76 309.368L758.832 309.496C758.72 309.8 758.608 310.088 758.512 310.376H761.856V311.32C761.504 312.376 760.912 313.288 760.08 314.056C760.848 314.408 761.584 314.76 762.288 315.144L761.664 316.04C760.96 315.624 760.144 315.192 759.2 314.776C758.144 315.512 756.816 316.104 755.216 316.552L754.672 315.592C755.984 315.24 757.12 314.808 758.048 314.28C757.344 313.976 756.608 313.672 755.824 313.384C756.24 312.68 756.608 312.024 756.928 311.384H755.04V310.376H757.376C757.52 310.024 757.648 309.688 757.76 309.368ZM759.024 313.608C759.824 312.968 760.432 312.216 760.816 311.384H758.064C757.808 311.928 757.52 312.44 757.2 312.92C757.84 313.144 758.448 313.368 759.024 313.608ZM756.304 302.232C756.688 302.856 757.008 303.528 757.296 304.232L756.464 304.616C756.128 303.832 755.776 303.144 755.392 302.536L756.304 302.232ZM761.168 302.184L762 302.568C761.68 303.272 761.28 303.96 760.768 304.632L759.952 304.216C760.464 303.528 760.88 302.856 761.168 302.184ZM755.072 305H758.192V301.944H759.264V305H762.176V306.008H759.264V306.184C760.128 306.616 761.024 307.112 761.92 307.656L761.328 308.552C760.528 307.912 759.84 307.4 759.264 307.016V309.096H758.192V306.056C757.664 307.32 756.704 308.408 755.328 309.336L754.768 308.408C756 307.688 756.864 306.888 757.344 306.008H755.072V305ZM772.624 316.456H771.264L771.024 315.368C771.44 315.416 771.856 315.448 772.24 315.448C772.64 315.448 772.848 315.208 772.848 314.76V310.84C772.208 311.08 771.584 311.304 770.96 311.496L770.672 310.376C771.408 310.2 772.144 309.976 772.848 309.72V306.104H770.928V305H772.848V301.976H773.968V305H775.504V306.104H773.968V309.256C774.48 309.032 774.976 308.792 775.456 308.536V309.672C774.96 309.928 774.464 310.152 773.968 310.376V315.048C773.968 315.976 773.52 316.456 772.624 316.456ZM777.408 309.384C777.216 312.12 776.592 314.52 775.536 316.6L774.64 315.8C775.776 313.688 776.352 310.936 776.368 307.576V302.568H784.8V306.456H781.792V308.344H785.216V309.384H781.792V311.352H784.48V316.6H783.408V315.816H779.072V316.6H778V311.352H780.672V309.384H777.408ZM780.672 306.456H777.488V307.576C777.488 307.832 777.472 308.088 777.472 308.344H780.672V306.456ZM779.072 314.792H783.408V312.376H779.072V314.792ZM783.68 303.64H777.488V305.416H783.68V303.64ZM788.976 313.096C789.328 313.096 789.632 313.24 789.856 313.544C790.064 313.832 790.176 314.2 790.176 314.664C790.176 315.368 789.968 315.992 789.552 316.536C789.136 317.048 788.576 317.4 787.904 317.576V316.792C788.32 316.648 788.656 316.408 788.912 316.088C789.152 315.752 789.264 315.4 789.264 315.016C789.2 315.048 789.072 315.08 788.912 315.08C788.64 315.08 788.416 314.984 788.224 314.792C788.032 314.6 787.936 314.36 787.936 314.088C787.936 313.784 788.032 313.544 788.224 313.368C788.416 313.176 788.656 313.096 788.976 313.096ZM816.56 303.016V315.96H815.44V314.696H811.552V316.12H810.448V303.016H816.56ZM811.552 313.608H815.44V304.088H811.552V313.608ZM803.136 306.328H805.936V304.024C805.136 304.152 804.32 304.248 803.488 304.312L803.12 303.288C805.504 303.096 807.488 302.696 809.088 302.088L809.632 303.048C808.8 303.352 807.952 303.608 807.056 303.8V306.328H809.792V307.4H807.056V308.2C807.984 309.016 808.912 309.944 809.856 311L809.184 311.992C808.352 310.856 807.648 309.944 807.056 309.272V316.488H805.936V309.384C805.248 310.904 804.336 312.28 803.2 313.512L802.72 312.264C804.208 310.856 805.28 309.272 805.936 307.512V307.4H803.136V306.328ZM819.152 304.872H825.408V301.976H826.592V304.872H832.832V305.976H827.616C828.688 308.52 830.608 310.792 833.36 312.792L832.576 313.784C829.76 311.48 827.808 308.872 826.72 305.976H826.592V312.216H830.016V313.32H826.592V316.6H825.408V313.32H822.112V312.216H825.408V305.976H825.296C824.112 309.224 822.096 311.896 819.248 313.992L818.592 312.92C821.28 311.128 823.2 308.808 824.384 305.976H819.152V304.872ZM835.552 302.648H848.48V303.768H842.528V309.816H849.088V310.92H842.528V316.584H841.344V310.92H834.912V309.816H841.344V303.768H835.552V302.648ZM837.504 304.792C838.112 305.912 838.688 307.128 839.232 308.456L838.16 308.984C837.616 307.608 837.04 306.392 836.432 305.32L837.504 304.792ZM846.576 304.712L847.632 305.208C847.152 306.472 846.512 307.704 845.728 308.92L844.704 308.392C845.488 307.144 846.112 305.928 846.576 304.712ZM863.344 309.944V316.616H862.176V315.816H853.824V316.616H852.656V309.944H863.344ZM853.824 314.712H862.176V311.048H853.824V314.712ZM851.52 308.296L851.296 307.208C852.704 306.728 854.448 304.952 856.528 301.896L857.712 302.296C856.272 304.344 854.816 305.976 853.376 307.16C856.448 307.032 859.36 306.824 862.112 306.568C861.504 305.704 860.88 304.888 860.24 304.152L861.28 303.656C862.656 305.256 863.936 307.032 865.12 308.968L864 309.512C863.6 308.84 863.2 308.216 862.816 307.608C859.44 307.912 855.68 308.136 851.52 308.296ZM876.528 305.48L876.32 306.312C876.72 308.184 877.232 309.8 877.872 311.144C878.496 309.528 878.832 307.64 878.896 305.48H876.528ZM877.344 312.296C876.72 311.064 876.192 309.656 875.76 308.056C875.472 308.792 875.152 309.448 874.816 310.024L874.096 309.144C875.04 307.352 875.68 304.936 876 301.896L877.12 302.088C877.024 302.904 876.896 303.672 876.768 304.376H880.992V305.48H879.952C879.872 308.152 879.376 310.44 878.48 312.328C879.312 313.768 880.288 314.872 881.44 315.656L880.816 316.6C879.696 315.8 878.736 314.712 877.936 313.368C877.168 314.648 876.176 315.72 874.976 316.584L874.384 315.624C875.632 314.76 876.608 313.656 877.344 312.296ZM869.76 309.368L870.832 309.496C870.72 309.8 870.608 310.088 870.512 310.376H873.856V311.32C873.504 312.376 872.912 313.288 872.08 314.056C872.848 314.408 873.584 314.76 874.288 315.144L873.664 316.04C872.96 315.624 872.144 315.192 871.2 314.776C870.144 315.512 868.816 316.104 867.216 316.552L866.672 315.592C867.984 315.24 869.12 314.808 870.048 314.28C869.344 313.976 868.608 313.672 867.824 313.384C868.24 312.68 868.608 312.024 868.928 311.384H867.04V310.376H869.376C869.52 310.024 869.648 309.688 869.76 309.368ZM871.024 313.608C871.824 312.968 872.432 312.216 872.816 311.384H870.064C869.808 311.928 869.52 312.44 869.2 312.92C869.84 313.144 870.448 313.368 871.024 313.608ZM868.304 302.232C868.688 302.856 869.008 303.528 869.296 304.232L868.464 304.616C868.128 303.832 867.776 303.144 867.392 302.536L868.304 302.232ZM873.168 302.184L874 302.568C873.68 303.272 873.28 303.96 872.768 304.632L871.952 304.216C872.464 303.528 872.88 302.856 873.168 302.184ZM867.072 305H870.192V301.944H871.264V305H874.176V306.008H871.264V306.184C872.128 306.616 873.024 307.112 873.92 307.656L873.328 308.552C872.528 307.912 871.84 307.4 871.264 307.016V309.096H870.192V306.056C869.664 307.32 868.704 308.408 867.328 309.336L866.768 308.408C868 307.688 868.864 306.888 869.344 306.008H867.072V305ZM884.624 316.456H883.264L883.024 315.368C883.44 315.416 883.856 315.448 884.24 315.448C884.64 315.448 884.848 315.208 884.848 314.76V310.84C884.208 311.08 883.584 311.304 882.96 311.496L882.672 310.376C883.408 310.2 884.144 309.976 884.848 309.72V306.104H882.928V305H884.848V301.976H885.968V305H887.504V306.104H885.968V309.256C886.48 309.032 886.976 308.792 887.456 308.536V309.672C886.96 309.928 886.464 310.152 885.968 310.376V315.048C885.968 315.976 885.52 316.456 884.624 316.456ZM889.408 309.384C889.216 312.12 888.592 314.52 887.536 316.6L886.64 315.8C887.776 313.688 888.352 310.936 888.368 307.576V302.568H896.8V306.456H893.792V308.344H897.216V309.384H893.792V311.352H896.48V316.6H895.408V315.816H891.072V316.6H890V311.352H892.672V309.384H889.408ZM892.672 306.456H889.488V307.576C889.488 307.832 889.472 308.088 889.472 308.344H892.672V306.456ZM891.072 314.792H895.408V312.376H891.072V314.792ZM895.68 303.64H889.488V305.416H895.68V303.64ZM716.048 326.184C717.12 327.016 718.032 327.832 718.768 328.664L717.936 329.48C717.296 328.696 716.4 327.848 715.264 326.936L716.048 326.184ZM725.344 340.312C724.48 340.312 723.536 340.296 722.528 340.28C721.504 340.264 720.688 340.168 720.048 339.992C719.424 339.8 718.864 339.4 718.368 338.824C718.16 338.552 717.952 338.424 717.76 338.424C717.376 338.424 716.752 339.16 715.872 340.632L715.008 339.848C715.856 338.504 716.608 337.688 717.264 337.4V332.536H714.976V331.48H718.336V337.464C718.464 337.56 718.592 337.688 718.72 337.832C719.104 338.296 719.504 338.632 719.952 338.84C720.432 339.064 721.152 339.192 722.08 339.224C722.912 339.24 723.952 339.256 725.184 339.256C725.936 339.256 726.704 339.24 727.488 339.224C728.256 339.208 728.864 339.192 729.28 339.16L729.008 340.312H725.344ZM719.872 328.456H721.76V325.912H722.864V328.456H725.392V325.928H726.512V328.456H728.544V329.528H726.512V332.712H729.056V333.8H726.512V338.392H725.392V333.8H722.544C722.128 335.72 721.296 337.144 720.064 338.072L719.376 337.144C720.384 336.424 721.072 335.304 721.424 333.8H719.312V332.712H721.632C721.712 332.104 721.76 331.464 721.76 330.792V329.528H719.872V328.456ZM722.864 329.528V330.536C722.864 331.304 722.816 332.04 722.736 332.712H725.392V329.528H722.864ZM736.8 326.952H744.464V328.088H736.8V326.952ZM736.368 331.016H745.168V332.152H742.576V339.144C742.576 340.072 742.048 340.536 741.024 340.536H738.672L738.432 339.4C739.2 339.448 739.92 339.48 740.624 339.48C741.136 339.48 741.408 339.272 741.408 338.856V332.152H736.368V331.016ZM734.272 326.072L735.312 326.552C734.416 328.328 732.976 329.896 730.992 331.256L730.656 330.104C732.32 328.92 733.52 327.576 734.272 326.072ZM735.024 329.72L736.064 330.2C735.6 331.096 735.024 331.96 734.32 332.76V340.6H733.184V333.928C732.544 334.504 731.856 335.064 731.088 335.592L730.752 334.44C732.704 333.064 734.128 331.496 735.024 329.72ZM752.32 327.928H748.928V338.888H761.008V340.008H747.776V326.808H760.688V327.928H756.88V334.44C756.88 334.856 757.104 335.08 757.552 335.08H758.912C759.2 335.08 759.408 334.968 759.536 334.76C759.696 334.504 759.808 333.768 759.872 332.536L760.96 332.888C760.864 334.424 760.656 335.368 760.352 335.704C760.096 335.992 759.68 336.136 759.104 336.136H757.2C756.24 336.136 755.776 335.64 755.776 334.664V327.928H753.44C753.296 332.2 752.256 335.144 750.32 336.776L749.392 336.024C751.232 334.6 752.208 331.896 752.32 327.928ZM777.264 336.312C777.152 337.976 776.976 339.048 776.72 339.544C776.464 340.024 775.968 340.28 775.2 340.28H772.032C771.264 340.28 770.88 339.768 770.88 338.76V331.976H775.248V327.704H770.608V326.616H776.368V333.096H772V338.344C772 338.888 772.16 339.176 772.496 339.192H775.008C775.456 339.192 775.744 338.968 775.872 338.52C776 338.088 776.08 337.224 776.128 335.944L777.264 336.312ZM762.8 326.6H770.08V327.688H768V329.544H769.824V340.536H768.8V339.672H764.24V340.536H763.216V329.544H764.96V327.688H762.8V326.6ZM764.24 338.584H768.8V337.032H764.24V338.584ZM765.184 330.6H764.24V335.976H768.8V334.584H767.984C767.312 334.584 766.976 334.216 766.976 333.48V330.6H765.968V331.64C765.936 333.352 765.584 334.6 764.912 335.4L764.304 334.84C764.88 334.168 765.168 333.112 765.184 331.64V330.6ZM765.952 329.544H767.008V327.688H765.952V329.544ZM768.8 333.688V330.6H767.776V333.272C767.776 333.544 767.904 333.688 768.176 333.688H768.8ZM792.56 327.016V339.96H791.44V338.696H787.552V340.12H786.448V327.016H792.56ZM787.552 337.608H791.44V328.088H787.552V337.608ZM779.136 330.328H781.936V328.024C781.136 328.152 780.32 328.248 779.488 328.312L779.12 327.288C781.504 327.096 783.488 326.696 785.088 326.088L785.632 327.048C784.8 327.352 783.952 327.608 783.056 327.8V330.328H785.792V331.4H783.056V332.2C783.984 333.016 784.912 333.944 785.856 335L785.184 335.992C784.352 334.856 783.648 333.944 783.056 333.272V340.488H781.936V333.384C781.248 334.904 780.336 336.28 779.2 337.512L778.72 336.264C780.208 334.856 781.28 333.272 781.936 331.512V331.4H779.136V330.328ZM799.776 326.264L800.784 326.872C800.032 328.2 799.28 329.288 798.528 330.136C797.728 331.064 796.656 331.976 795.328 332.872L794.704 331.864C795.792 331.24 796.784 330.424 797.664 329.416C798.432 328.52 799.136 327.48 799.776 326.264ZM800.304 333.4H797.072V332.296H806.624C806.576 334.296 806.48 335.912 806.32 337.144C806.16 338.36 805.904 339.224 805.536 339.704C805.184 340.168 804.608 340.424 803.808 340.472H800.896L800.576 339.336C801.504 339.368 802.384 339.384 803.216 339.384C804.08 339.384 804.64 339.016 804.912 338.28C805.2 337.512 805.376 335.896 805.456 333.4H801.472C801.088 335.144 800.56 336.536 799.872 337.56C799.056 338.712 797.824 339.736 796.192 340.648L795.456 339.688C796.928 338.888 798.048 338.008 798.8 337.048C799.472 336.12 799.968 334.904 800.304 333.4ZM804.288 326.056C805.216 328.52 806.864 330.472 809.248 331.896L808.48 332.808C806 331.208 804.272 329.144 803.296 326.616L804.288 326.056ZM814.416 332.232V340.552H813.28V332.376C812.736 334.008 812.016 335.48 811.12 336.808L810.624 335.56C811.84 333.992 812.704 332.184 813.216 330.168H810.944V329.064H813.28V325.928H814.416V329.064H816.576V330.168H814.416V331.032C815.168 331.816 815.936 332.696 816.72 333.688L816.096 334.6C815.456 333.608 814.896 332.824 814.416 332.232ZM824.16 325.992L824.736 327.016C822.912 327.672 820.88 328.056 818.64 328.168V331.048H825.136V332.152H822.752V340.568H821.6V332.152H818.64V332.328C818.528 335.736 817.712 338.456 816.208 340.472L815.392 339.624C816.704 337.864 817.424 335.432 817.52 332.328V327.192C819.984 327.128 822.192 326.728 824.16 325.992Z" fill="black"/>
</svg>
