<svg width="436" height="308" viewBox="0 0 436 308" fill="none" xmlns="http://www.w3.org/2000/svg">
<path d="M122.629 10.4127L289.877 10.4127L373.501 155.254L289.877 300.095L122.629 300.095L39.0046 155.254L122.629 10.4127Z" stroke="#025CB9" stroke-opacity="0.2"/>
<path d="M159.084 73.5524L253.424 73.5524L300.594 155.253L253.424 236.954L159.084 236.954L111.914 155.253L159.084 73.5524Z" stroke="#025CB9" stroke-opacity="0.1"/>
<rect x="140" y="92" width="99" height="30" fill="#025CB9"/>
<rect x="140" y="92" width="18" height="30" fill="#266CE0"/>
<rect x="160" y="92" width="20" height="30" fill="#266CE0"/>
<rect x="180" y="92" width="32" height="30" fill="#025CB9"/>
<rect x="212" y="92" width="30" height="30" fill="#5B9AF1"/>
<rect x="245.5" y="92.5" width="29" height="29" fill="white" stroke="#BDD9FF"/>
<rect x="140" y="123" width="114" height="30" fill="#025CB9"/>
<rect x="140" y="123" width="18" height="30" fill="#266CE0"/>
<rect x="160" y="123" width="20" height="30" fill="#266CE0"/>
<rect x="180" y="123" width="32" height="30" fill="#5B9AF1"/>
<rect x="212" y="123" width="30" height="30" fill="#BDD9FF"/>
<rect x="245" y="123" width="30" height="30" fill="#5B9AF1"/>
<rect x="163.398" y="157" width="111" height="30" fill="#025CB9"/>
<rect x="140.5" y="157.5" width="17" height="29" fill="white" stroke="#BDD9FF"/>
<rect x="160" y="157" width="20" height="30" fill="#266CE0"/>
<rect x="180" y="157" width="32" height="30" fill="#BDD9FF"/>
<rect x="212" y="157" width="30" height="30" fill="#5B9AF1"/>
<rect x="245" y="157" width="30" height="30" fill="#BDD9FF"/>
<rect x="140" y="189" width="19" height="30" fill="#025CB9"/>
<rect x="180" y="189" width="82" height="30" fill="#025CB9"/>
<rect x="140" y="189" width="18" height="30" fill="#266CE0"/>
<rect x="160.5" y="189.5" width="17" height="29" fill="white" stroke="#BDD9FF"/>
<rect x="180" y="189" width="32" height="30" fill="#BDD9FF"/>
<rect x="212" y="189" width="30" height="30" fill="#025CB9"/>
<rect x="245" y="189" width="30" height="30" fill="#5B9AF1"/>
<rect x="231" y="40" width="10" height="22" fill="#025CB9"/>
<rect x="241" y="40" width="19" height="22" fill="url(#paint0_linear_459_14526)"/>
<rect x="260" y="40" width="59" height="22" fill="url(#paint1_linear_459_14526)" fill-opacity="0.5"/>
<rect x="260" y="49" width="59" height="4" fill="url(#paint2_linear_459_14526)" fill-opacity="0.6"/>
<rect width="10" height="22" transform="matrix(-1 0 0 1 184 257)" fill="#025CB9"/>
<rect width="13" height="22" transform="matrix(-1 0 0 1 174 257)" fill="#266CE0"/>
<rect width="59" height="22" transform="matrix(-1 0 0 1 161 257)" fill="url(#paint3_linear_459_14526)" fill-opacity="0.5"/>
<rect width="59" height="4" transform="matrix(-1 0 0 1 161 266)" fill="url(#paint4_linear_459_14526)" fill-opacity="0.6"/>
<rect x="290" y="94" width="13" height="28" fill="#025CB9"/>
<rect x="303" y="94" width="28" height="28" fill="url(#paint5_linear_459_14526)"/>
<rect x="331" y="94" width="59" height="28" fill="url(#paint6_linear_459_14526)" fill-opacity="0.5"/>
<rect x="331" y="106" width="59" height="4" fill="url(#paint7_linear_459_14526)" fill-opacity="0.6"/>
<rect width="13" height="28" transform="matrix(-1 0 0 1 114 148)" fill="#025CB9"/>
<rect width="28" height="28" transform="matrix(-1 0 0 1 101 148)" fill="url(#paint8_linear_459_14526)"/>
<rect width="59" height="28" transform="matrix(-1 0 0 1 73 148)" fill="url(#paint9_linear_459_14526)" fill-opacity="0.5"/>
<rect width="59" height="4" transform="matrix(-1 0 0 1 73 160)" fill="url(#paint10_linear_459_14526)" fill-opacity="0.6"/>
<rect width="13" height="28" transform="matrix(-1 0 0 1 125 191)" fill="#025CB9"/>
<rect width="28" height="28" transform="matrix(-1 0 0 1 112 191)" fill="#266CE0"/>
<rect width="59" height="28" transform="matrix(-1 0 0 1 84 191)" fill="url(#paint11_linear_459_14526)" fill-opacity="0.5"/>
<rect width="59" height="4" transform="matrix(-1 0 0 1 84 203)" fill="url(#paint12_linear_459_14526)" fill-opacity="0.6"/>
<rect x="317" y="132" width="19" height="28" fill="#266CE0"/>
<rect x="336" y="132" width="28" height="28" fill="#266CE0" fill-opacity="0.5"/>
<rect x="364" y="132" width="59" height="28" fill="url(#paint13_linear_459_14526)" fill-opacity="0.5"/>
<rect x="364" y="144" width="59" height="4" fill="url(#paint14_linear_459_14526)" fill-opacity="0.6"/>
<path d="M120.052 6.25L124.974 6.25L127.436 10.5131L124.974 14.7763L120.052 14.7763L117.59 10.5131L120.052 6.25Z" fill="#BDD9FF" stroke="#A5CBFF"/>
<path d="M153.423 63.7363L158.346 63.7363L160.807 67.9995L158.346 72.2626L153.423 72.2626L150.962 67.9995L153.423 63.7363Z" fill="#BDD9FF" stroke="#A5CBFF"/>
<path d="M73.0518 87.25L77.9745 87.25L80.4358 91.5131L77.9745 95.7763L73.0518 95.7763L70.5905 91.5131L73.0518 87.25Z" fill="#5993F1" stroke="#266CE0"/>
<path d="M287.411 295.769L292.334 295.769L294.795 300.032L292.334 304.295L287.411 304.295L284.95 300.032L287.411 295.769Z" fill="#5993F1" stroke="#266CE0"/>
<path d="M93.0518 249.25L97.9745 249.25L100.436 253.513L97.9745 257.776L93.0518 257.776L90.5905 253.513L93.0518 249.25Z" fill="#5993F1" stroke="#266CE0"/>
<path d="M302.638 32.4277L307.56 32.4277L310.022 36.6909L307.56 40.954L302.638 40.954L300.176 36.6909L302.638 32.4277Z" fill="#D2E5FF" stroke="#BAD7FF"/>
<path d="M360.321 169.485L365.244 169.485L367.705 173.748L365.244 178.012L360.321 178.012L357.86 173.748L360.321 169.485Z" fill="#BDD9FF" stroke="#A5CBFF"/>
<path d="M156.13 36.3307C139.685 36.0423 137.259 42.7014 138.102 46.067H195.796C196.95 41.7405 192.911 37.7734 190.748 36.3307C189.666 33.3256 184.69 27.3154 173.439 27.3154C162.188 27.3154 157.212 33.3256 156.13 36.3307Z" fill="url(#paint15_linear_459_14526)" fill-opacity="0.5"/>
<defs>
<linearGradient id="paint0_linear_459_14526" x1="241" y1="62" x2="257.436" y2="38.2274" gradientUnits="userSpaceOnUse">
<stop stop-color="#5B9AF1"/>
<stop offset="1" stop-color="#5B9AF1" stop-opacity="0"/>
</linearGradient>
<linearGradient id="paint1_linear_459_14526" x1="260" y1="51" x2="319" y2="51" gradientUnits="userSpaceOnUse">
<stop stop-color="#BDD9FF"/>
<stop offset="1" stop-color="#BDD9FF" stop-opacity="0"/>
</linearGradient>
<linearGradient id="paint2_linear_459_14526" x1="260" y1="51" x2="319" y2="51" gradientUnits="userSpaceOnUse">
<stop stop-color="#BDD9FF"/>
<stop offset="1" stop-color="#BDD9FF" stop-opacity="0"/>
</linearGradient>
<linearGradient id="paint3_linear_459_14526" x1="-2.19792e-07" y1="11" x2="59" y2="11" gradientUnits="userSpaceOnUse">
<stop stop-color="#BDD9FF"/>
<stop offset="1" stop-color="#BDD9FF" stop-opacity="0"/>
</linearGradient>
<linearGradient id="paint4_linear_459_14526" x1="-2.19792e-07" y1="2" x2="59" y2="1.99999" gradientUnits="userSpaceOnUse">
<stop stop-color="#BDD9FF"/>
<stop offset="1" stop-color="#BDD9FF" stop-opacity="0"/>
</linearGradient>
<linearGradient id="paint5_linear_459_14526" x1="303" y1="122" x2="322.684" y2="89.0344" gradientUnits="userSpaceOnUse">
<stop stop-color="#5B9AF1"/>
<stop offset="1" stop-color="#5B9AF1" stop-opacity="0"/>
</linearGradient>
<linearGradient id="paint6_linear_459_14526" x1="331" y1="108" x2="390" y2="108" gradientUnits="userSpaceOnUse">
<stop stop-color="#BDD9FF"/>
<stop offset="1" stop-color="#BDD9FF" stop-opacity="0"/>
</linearGradient>
<linearGradient id="paint7_linear_459_14526" x1="331" y1="108" x2="390" y2="108" gradientUnits="userSpaceOnUse">
<stop stop-color="#BDD9FF"/>
<stop offset="1" stop-color="#BDD9FF" stop-opacity="0"/>
</linearGradient>
<linearGradient id="paint8_linear_459_14526" x1="-4.17233e-07" y1="28" x2="19.684" y2="-4.96556" gradientUnits="userSpaceOnUse">
<stop stop-color="#5B9AF1"/>
<stop offset="1" stop-color="#5B9AF1" stop-opacity="0"/>
</linearGradient>
<linearGradient id="paint9_linear_459_14526" x1="-2.19792e-07" y1="14" x2="59" y2="14" gradientUnits="userSpaceOnUse">
<stop stop-color="#BDD9FF"/>
<stop offset="1" stop-color="#BDD9FF" stop-opacity="0"/>
</linearGradient>
<linearGradient id="paint10_linear_459_14526" x1="-2.19792e-07" y1="2" x2="59" y2="1.99999" gradientUnits="userSpaceOnUse">
<stop stop-color="#BDD9FF"/>
<stop offset="1" stop-color="#BDD9FF" stop-opacity="0"/>
</linearGradient>
<linearGradient id="paint11_linear_459_14526" x1="-2.19792e-07" y1="14" x2="59" y2="14" gradientUnits="userSpaceOnUse">
<stop stop-color="#BDD9FF"/>
<stop offset="1" stop-color="#BDD9FF" stop-opacity="0"/>
</linearGradient>
<linearGradient id="paint12_linear_459_14526" x1="-2.19792e-07" y1="2" x2="59" y2="1.99999" gradientUnits="userSpaceOnUse">
<stop stop-color="#BDD9FF"/>
<stop offset="1" stop-color="#BDD9FF" stop-opacity="0"/>
</linearGradient>
<linearGradient id="paint13_linear_459_14526" x1="364" y1="146" x2="423" y2="146" gradientUnits="userSpaceOnUse">
<stop stop-color="#BDD9FF"/>
<stop offset="1" stop-color="#BDD9FF" stop-opacity="0"/>
</linearGradient>
<linearGradient id="paint14_linear_459_14526" x1="364" y1="146" x2="423" y2="146" gradientUnits="userSpaceOnUse">
<stop stop-color="#BDD9FF"/>
<stop offset="1" stop-color="#BDD9FF" stop-opacity="0"/>
</linearGradient>
<linearGradient id="paint15_linear_459_14526" x1="196" y1="36.6914" x2="137.957" y2="46.0674" gradientUnits="userSpaceOnUse">
<stop stop-color="#BDD9FF" stop-opacity="0"/>
<stop offset="1" stop-color="#BDD9FF"/>
</linearGradient>
</defs>
</svg>
